<svg xmlns="http://www.w3.org/2000/svg" width="409" height="421"><g fill="none" fill-rule="evenodd"><g fill-rule="nonzero" transform="translate(7 59)"><rect width="209.79" height="290.79" x=".405" y=".405" fill="#FFF" stroke="#F2F2F2" stroke-width=".81" rx="4.05"/><rect width="16.2" height="12.96" x="178.2" y="16.2" fill="#D0D0D0" rx="2.43"/><rect width="27.54" height="4.86" x="144.18" y="16.2" fill="#383737" fill-opacity=".19" rx="2.43"/><rect width="38.88" height="4.86" x="132.84" y="24.3" fill="#383737" fill-opacity=".19" rx="2.43"/><rect width="129.6" height="6.48" x="32.4" y="64.8" fill="#383737" fill-opacity=".12" rx="3.24"/><rect width="48.6" height="6.48" x="24.3" y="19.44" fill="#383737" fill-opacity=".28" rx="3.24"/><rect width="141.75" height="6.48" x="24.3" y="181.44" fill="#383737" fill-opacity=".12" rx="3.24"/><rect width="163.62" height="6.48" x="24.3" y="77.76" fill="#383737" fill-opacity=".12" rx="3.24"/><rect width="144.18" height="6.48" x="24.3" y="142.56" fill="#383737" fill-opacity=".12" rx="3.24"/><rect width="165.24" height="6.48" x="24.3" y="194.4" fill="#383737" fill-opacity=".12" rx="3.24"/><rect width="163.62" height="6.48" x="24.3" y="90.72" fill="#383737" fill-opacity=".12" rx="3.24"/><rect width="135.27" height="6.48" x="24.3" y="155.52" fill="#383737" fill-opacity=".12" rx="3.24"/><rect width="165.24" height="6.48" x="24.3" y="207.36" fill="#383737" fill-opacity=".12" rx="3.24"/><rect width="129.6" height="6.48" x="24.3" y="103.68" fill="#383737" fill-opacity=".12" rx="3.24"/><rect width="54.27" height="6.48" x="24.3" y="220.32" fill="#383737" fill-opacity=".12" rx="3.24"/><rect width="34.02" height="6.48" x="24.3" y="260.82" fill="#383737" fill-opacity=".28" rx="3.24"/><rect width="34.02" height="6.48" x="153.9" y="260.82" fill="#383737" fill-opacity=".28" rx="3.24"/><path stroke="#383737" stroke-linecap="square" stroke-width=".81" d="M0 40.905h210.6" opacity=".153"/><rect width="48.6" height="6.48" x="32.4" y="129.6" fill="#383737" fill-opacity=".12" rx="3.24"/><rect width="68.04" height="6.48" x="84.24" y="129.6" fill="#383737" fill-opacity=".12" rx="3.24"/></g><g transform="translate(112 10)"><rect width="279.72" height="387.72" x=".54" y=".54" fill="#FFF" fill-rule="nonzero" stroke="#F2F2F2" stroke-width="1.08" rx="5.4"/><rect width="36.72" height="6.48" x="186.84" y="21.6" fill="#383737" fill-opacity=".19" fill-rule="nonzero" rx="3.24"/><rect width="51.84" height="6.48" x="171.72" y="32.4" fill="#383737" fill-opacity=".19" fill-rule="nonzero" rx="3.24"/><rect width="98.28" height="8.64" x="43.2" y="86.4" fill="#383737" fill-opacity=".12" fill-rule="nonzero" rx="4.32"/><rect width="68.04" height="8.64" x="147.96" y="86.4" fill="#383737" fill-opacity=".12" fill-rule="nonzero" rx="4.32"/><rect width="64.8" height="8.64" x="32.4" y="25.92" fill="#383737" fill-opacity=".28" fill-rule="nonzero" rx="4.32"/><rect width="64.8" height="8.64" x="43.2" y="172.8" fill="#383737" fill-opacity=".12" fill-rule="nonzero" rx="4.32"/><rect width="90.72" height="8.64" x="112.32" y="172.8" fill="#0EA7AE" fill-opacity=".31" fill-rule="nonzero" rx="4.32"/><rect width="29.16" height="8.64" x="32.4" y="241.92" fill="#383737" fill-opacity=".12" fill-rule="nonzero" rx="4.32"/><rect width="47.52" height="8.64" x="173.88" y="241.92" fill="#383737" fill-opacity=".12" fill-rule="nonzero" rx="4.32"/><rect width="97.2" height="8.64" x="69.12" y="241.92" fill="#0EA7AE" fill-opacity=".31" fill-rule="nonzero" rx="4.32"/><rect width="218.16" height="8.64" x="32.4" y="103.68" fill="#383737" fill-opacity=".12" fill-rule="nonzero" rx="4.32"/><rect width="192.24" height="8.64" x="32.4" y="190.08" fill="#383737" fill-opacity=".12" fill-rule="nonzero" rx="4.32"/><rect width="220.32" height="8.64" x="32.4" y="259.2" fill="#383737" fill-opacity=".12" fill-rule="nonzero" rx="4.32"/><rect width="218.16" height="8.64" x="32.4" y="120.96" fill="#383737" fill-opacity=".12" fill-rule="nonzero" rx="4.32"/><rect width="180.36" height="8.64" x="32.4" y="207.36" fill="#383737" fill-opacity=".12" fill-rule="nonzero" rx="4.32"/><rect width="220.32" height="8.64" x="32.4" y="276.48" fill="#383737" fill-opacity=".12" fill-rule="nonzero" rx="4.32"/><rect width="172.8" height="8.64" x="32.4" y="138.24" fill="#0EA7AE" fill-opacity=".31" fill-rule="nonzero" rx="4.32"/><rect width="72.36" height="8.64" x="32.4" y="293.76" fill="#383737" fill-opacity=".12" fill-rule="nonzero" rx="4.32"/><rect width="45.36" height="8.64" x="32.4" y="347.76" fill="#383737" fill-opacity=".28" fill-rule="nonzero" rx="4.32"/><rect width="45.36" height="8.64" x="205.2" y="347.76" fill="#383737" fill-opacity=".28" fill-rule="nonzero" rx="4.32"/><path stroke="#383737" stroke-linecap="square" stroke-width="1.08" d="M0 54.54h280.8" opacity=".153"/><rect width="104.76" height="14.04" x="39.42" y="83.7" stroke="#0EA7AE" stroke-width="1.08" rx="2.16"/><rect width="104.76" height="14.04" x="65.34" y="239.22" stroke="#0EA7AE" stroke-width="1.08" rx="2.16"/><rect width="51.84" height="51.84" x="213.84" y="247.32" fill="#35BBC2" fill-opacity=".17" fill-rule="nonzero" stroke="#0EA7AE" stroke-width="2.16" rx="25.92"/><path fill="#0EA7AE" d="M217.63 146.706v-1.504a.244.244 0 0 0-.07-.18.244.244 0 0 0-.18-.07h-1.504a.244.244 0 0 0-.18.07.244.244 0 0 0-.071.18v1.504a.24.24 0 0 0 .25.251h1.505a.244.244 0 0 0 .18-.07.244.244 0 0 0 .07-.18zm2.006-5.265c0-.46-.145-.885-.435-1.277a2.967 2.967 0 0 0-1.085-.908 2.976 2.976 0 0 0-1.332-.322c-1.269 0-2.238.557-2.906 1.67-.079.124-.058.234.062.328l1.035.784a.221.221 0 0 0 .148.047.231.231 0 0 0 .196-.094c.277-.356.502-.596.674-.721.178-.126.402-.188.674-.188.25 0 .474.068.67.204.196.135.294.29.294.462a.703.703 0 0 1-.157.478c-.105.12-.282.237-.533.352-.329.147-.63.372-.905.678-.274.306-.411.633-.411.983v.282c0 .073.023.133.07.18a.244.244 0 0 0 .18.071h1.505a.244.244 0 0 0 .18-.07.244.244 0 0 0 .07-.18c0-.1.057-.23.17-.389.111-.159.254-.288.426-.387.167-.094.295-.169.384-.224.089-.054.209-.146.36-.274.152-.128.268-.253.349-.376a2.069 2.069 0 0 0 .317-1.109zm2.202-1.512c.538.92.807 1.925.807 3.017a5.886 5.886 0 0 1-.807 3.02 5.99 5.99 0 0 1-2.19 2.19 5.886 5.886 0 0 1-3.02.807 5.886 5.886 0 0 1-3.02-.807 5.99 5.99 0 0 1-2.19-2.19 5.886 5.886 0 0 1-.807-3.02c0-1.092.269-2.099.807-3.02a5.99 5.99 0 0 1 2.19-2.19 5.886 5.886 0 0 1 3.02-.807c1.091 0 2.098.269 3.02.807a5.981 5.981 0 0 1 2.19 2.193z"/><path stroke="#0EA7AE" stroke-linecap="square" stroke-width="1.08" d="M110.7 177.12h94.5"/><rect width="29.16" height="29.16" x="234.36" y="14.04" fill="#0EA7AE" fill-rule="nonzero" rx="14.58"/><path fill="#FFF" d="M255.045 28.967c-.794-1.233-1.789-2.154-2.985-2.766.318.544.478 1.131.478 1.763a3.38 3.38 0 0 1-1.03 2.48 3.38 3.38 0 0 1-2.48 1.03 3.38 3.38 0 0 1-2.48-1.03 3.38 3.38 0 0 1-1.03-2.48c0-.632.16-1.22.478-1.763-1.196.612-2.191 1.533-2.985 2.766a8.087 8.087 0 0 0 2.613 2.558 6.45 6.45 0 0 0 3.404.952 6.45 6.45 0 0 0 3.404-.952 8.087 8.087 0 0 0 2.613-2.558zm-5.75-2.742a.363.363 0 0 0 .109-.266.363.363 0 0 0-.11-.267.363.363 0 0 0-.266-.11c-.653 0-1.213.234-1.68.702a2.292 2.292 0 0 0-.702 1.68c0 .105.037.194.11.267.073.073.162.11.266.11a.363.363 0 0 0 .266-.11.363.363 0 0 0 .11-.267c0-.449.16-.833.478-1.151a1.57 1.57 0 0 1 1.152-.478.363.363 0 0 0 .266-.11zm6.596 2.202c.105.182.157.363.157.54 0 .178-.052.358-.157.54a8.312 8.312 0 0 1-2.95 2.888c-1.235.723-2.54 1.085-3.913 1.085-1.374 0-2.678-.363-3.914-1.089a8.366 8.366 0 0 1-2.95-2.883 1.084 1.084 0 0 1-.156-.54c0-.178.052-.359.156-.541a8.366 8.366 0 0 1 2.95-2.884c1.236-.726 2.54-1.089 3.914-1.089 1.373 0 2.678.363 3.913 1.09a8.366 8.366 0 0 1 2.95 2.883z"/></g></g></svg>