<svg width="600" height="240" xmlns="http://www.w3.org/2000/svg" xmlns:xlink="http://www.w3.org/1999/xlink"><defs><rect id="path-1" x=".5" y=".5" width="199" height="79" rx="5"/><filter x="-6%" y="-12.7%" width="112.1%" height="130.4%" filterUnits="objectBoundingBox" id="filter-2"><feMorphology radius=".5" operator="dilate" in="SourceAlpha" result="shadowSpreadOuter1"/><feOffset dy="2" in="shadowSpreadOuter1" result="shadowOffsetOuter1"/><feGaussianBlur stdDeviation="3.5" in="shadowOffsetOuter1" result="shadowBlurOuter1"/><feComposite in="shadowBlurOuter1" in2="SourceAlpha" operator="out" result="shadowBlurOuter1"/><feColorMatrix values="0 0 0 0 0.0705882353 0 0 0 0 0.133333333 0 0 0 0 0.137254902 0 0 0 0.14 0" in="shadowBlurOuter1"/></filter><path d="M8.197 1.197l-6.8 3.088 6.8 3.088v1.072L.07 4.781V3.79L8.197.11v1.088zm28.16 6.176l6.8-3.088-6.8-3.088V.11l8.128 3.68v.992l-8.128 3.664V7.373z" id="path-3"/><path d="M8.197 1.864l-6.8 3.088 6.8 3.088v1.072L.07 5.448v-.992L8.197.776v1.088zm28.16 6.176l6.8-3.088-6.8-3.088V.776l8.128 3.68v.992l-8.128 3.664V8.04z" id="path-4"/><path d="M8.197 1.864l-6.8 3.088 6.8 3.088v1.072L.07 5.448v-.992L8.197.776v1.088zm28.16 6.176l6.8-3.088-6.8-3.088V.776l8.128 3.68v.992l-8.128 3.664V8.04z" id="path-5"/><rect id="path-6" x=".5" y=".5" width="119" height="119" rx="5"/><filter x="-23.1%" y="-18.1%" width="146.2%" height="146.2%" filterUnits="objectBoundingBox" id="filter-7"><feMorphology radius=".5" operator="dilate" in="SourceAlpha" result="shadowSpreadOuter1"/><feOffset dy="6" in="shadowSpreadOuter1" result="shadowOffsetOuter1"/><feGaussianBlur stdDeviation="8" in="shadowOffsetOuter1" result="shadowBlurOuter1"/><feComposite in="shadowBlurOuter1" in2="SourceAlpha" operator="out" result="shadowBlurOuter1"/><feColorMatrix values="0 0 0 0 0.0705882353 0 0 0 0 0.133333333 0 0 0 0 0.137254902 0 0 0 0.1 0" in="shadowBlurOuter1"/></filter><path d="M9.22 23.46c.172-2.617.333-5.23.497-7.847l.453-7.216c.003-.037.013-.074.023-.125.087-.007.169-.017.25-.017 1.389 0 2.777.002 4.167-.002.157 0 .243.025.295.207.863 3.017 1.787 6.013 2.433 9.088.075.362.15.725.23 1.087.004.013.027.023.05.04.294-1.143.55-2.293.884-3.42.67-2.278 1.378-4.547 2.078-6.817.022-.073.127-.175.193-.175 1.464-.01 2.927-.008 4.429-.008l.836 15.483h-3.483l-.388-11.813c-.212.788-.405 1.58-.64 2.358-.909 3.01-1.829 6.017-2.75 9.024-.027.083-.139.196-.21.198-.862.013-1.725.008-2.61.008-.989-3.808-2.159-7.555-2.932-11.416L12.5 23.755h-.487c-.833 0-1.668-.007-2.503.005-.228.002-.307-.05-.29-.302v.002zm29.2-14.943c-.008-.195.05-.267.253-.267 1.219.01 2.439 0 3.659.013.093 0 .228.084.273.167 1.855 3.393 3.923 6.673 5.36 10.292.01.023.03.041.07.06-.325-3.492-.187-6.99-.222-10.527h2.892c.368 0 .37 0 .37.367v11.925c0 .963-.007 1.926.005 2.888.003.242-.048.332-.308.328-1.05-.016-2.1-.006-3.15-.006-.134 0-.24.001-.324-.154-1.603-3.023-3.221-6.041-4.821-9.07-.322-.608-.577-1.251-.864-1.88l.094 11.104h-.525c-.807 0-1.614-.012-2.42.006-.27.005-.345-.073-.344-.348.007-4.7.005-9.4.005-14.1 0-.267.01-.533-.003-.8v.002zm16.082.01c-.004-.212.055-.277.266-.277a3136 3136 0 0 0 11.2 0c.227 0 .287.07.284.292-.01.82-.012 1.64 0 2.458.003.223-.06.293-.285.292-1.174-.012-2.345-.005-3.517-.005h-.34V23.73h-3.532V11.287h-.321c-1.154 0-2.307-.007-3.462.005-.238.003-.298-.074-.293-.307.011-.82.01-1.64 0-2.458zM15.72 31.917h59.25V16.092c0-8.74-6.982-15.827-15.593-15.827H.128v15.827c0 8.74 6.982 15.826 15.592 15.826v-.001z" id="path-8"/><linearGradient x1="50%" y1="0%" x2="50%" y2="100%" id="linearGradient-10"><stop stop-color="#4FD5D8" offset="0%"/><stop stop-color="#0EA7AE" offset="100%"/></linearGradient><rect id="path-11" x=".5" y=".5" width="119" height="119" rx="5"/><filter x="-23.1%" y="-18.1%" width="146.2%" height="146.2%" filterUnits="objectBoundingBox" id="filter-12"><feMorphology radius=".5" operator="dilate" in="SourceAlpha" result="shadowSpreadOuter1"/><feOffset dy="6" in="shadowSpreadOuter1" result="shadowOffsetOuter1"/><feGaussianBlur stdDeviation="8" in="shadowOffsetOuter1" result="shadowBlurOuter1"/><feComposite in="shadowBlurOuter1" in2="SourceAlpha" operator="out" result="shadowBlurOuter1"/><feColorMatrix values="0 0 0 0 0.0705882353 0 0 0 0 0.133333333 0 0 0 0 0.137254902 0 0 0 0.1 0" in="shadowBlurOuter1"/></filter></defs><g id="Pages" stroke="none" stroke-width="1" fill="none" fill-rule="evenodd"><g id="Artboard" transform="translate(-36 -427)"><g id="Brokermint-integration-illustration" transform="translate(36 427)"><rect id="Rectangle" fill="#F2F2F2" x="0" y="0" width="600" height="240" rx="5"/><path d="M103 175.54V192a6 6 0 0 0 6 6h185a6 6 0 0 0 6-6v-31m197-93.54V51a6 6 0 0 0-6-6H306a6 6 0 0 0-6 6v31" id="Shape" stroke="#35BBC2" stroke-width="2" stroke-linecap="round"/><g id="Group" transform="translate(200 80)"><g id="Rectangle"><use fill="#000" filter="url(#filter-2)" xlink:href="#path-1"/><use stroke="#F2F2F2" fill="#FFF" xlink:href="#path-1"/></g><rect id="Rectangle" fill-opacity=".616" fill="#D0D0D0" x="62" y="14" width="106" height="9" rx="4.5"/><g transform="translate(13.667 13.667)" opacity=".364" id="&lt;-&gt;"><use fill="#000" xlink:href="#path-3"/><use fill="#999" xlink:href="#path-3"/></g><g transform="translate(108.667 32)" opacity=".364" id="&lt;-&gt;"><use fill="#000" xlink:href="#path-4"/><use fill="#999" xlink:href="#path-4"/></g><g transform="translate(13.667 56)" opacity=".364" id="&lt;-&gt;"><use fill="#000" xlink:href="#path-5"/><use fill="#999" xlink:href="#path-5"/></g><rect id="Rectangle" fill-opacity=".616" fill="#D0D0D0" x="13" y="32" width="89" height="9" rx="4.5"/><rect id="Rectangle" fill-opacity=".19" fill="#0EA7AE" x="26" y="56" width="20" height="9" rx="4.5"/><rect id="Rectangle" fill-opacity=".19" fill="#0EA7AE" x="121" y="32" width="20" height="9" rx="4.5"/><rect id="Rectangle" fill-opacity=".19" fill="#0EA7AE" x="26" y="13" width="20" height="9" rx="4.5"/></g><g id="Group" transform="translate(43 60)"><g id="Rectangle"><use fill="#000" filter="url(#filter-7)" xlink:href="#path-6"/><use stroke="#F2F2F2" fill="#FFF" xlink:href="#path-6"/></g><g transform="translate(23 55)"><g id="a-link" fill="#0EA7AE" fill-rule="nonzero"><path d="M9.22 23.46c.172-2.617.333-5.23.497-7.847l.453-7.216c.003-.037.013-.074.023-.125.087-.007.169-.017.25-.017 1.389 0 2.777.002 4.167-.002.157 0 .243.025.295.207.863 3.017 1.787 6.013 2.433 9.088.075.362.15.725.23 1.087.004.013.027.023.05.04.294-1.143.55-2.293.884-3.42.67-2.278 1.378-4.547 2.078-6.817.022-.073.127-.175.193-.175 1.464-.01 2.927-.008 4.429-.008l.836 15.483h-3.483l-.388-11.813c-.212.788-.405 1.58-.64 2.358-.909 3.01-1.829 6.017-2.75 9.024-.027.083-.139.196-.21.198-.862.013-1.725.008-2.61.008-.989-3.808-2.159-7.555-2.932-11.416L12.5 23.755h-.487c-.833 0-1.668-.007-2.503.005-.228.002-.307-.05-.29-.302v.002zm21.112.283h3.5V8.28h-3.5v15.463zM38.42 8.517c-.008-.195.05-.267.253-.267 1.219.01 2.439 0 3.659.013.093 0 .228.084.273.167 1.855 3.393 3.923 6.673 5.36 10.292.01.023.03.041.07.06-.325-3.492-.187-6.99-.222-10.527h2.892c.368 0 .37 0 .37.367v11.925c0 .963-.007 1.926.005 2.888.003.242-.048.332-.308.328-1.05-.016-2.1-.006-3.15-.006-.134 0-.24.001-.324-.154-1.603-3.023-3.221-6.041-4.821-9.07-.322-.608-.577-1.251-.864-1.88l.094 11.104h-.525c-.807 0-1.614-.012-2.42.006-.27.005-.345-.073-.344-.348.007-4.7.005-9.4.005-14.1 0-.267.01-.533-.003-.8v.002zm16.082.01c-.004-.212.055-.277.266-.277a3136 3136 0 0 0 11.2 0c.227 0 .287.07.284.292-.01.82-.012 1.64 0 2.458.003.223-.06.293-.285.292-1.174-.012-2.345-.005-3.517-.005h-.34V23.73h-3.532V11.287h-.321c-1.154 0-2.307-.007-3.462.005-.238.003-.298-.074-.293-.307.011-.82.01-1.64 0-2.458zM15.72 31.917h59.25V16.092c0-8.74-6.982-15.827-15.593-15.827H.128v15.827c0 8.74 6.982 15.826 15.592 15.826v-.001z" id="a"/></g><g id="Clipped"><mask id="mask-9" fill="#fff"><use xlink:href="#path-8"/></mask><path id="a-path" fill="#FFF" mask="url(#mask-9)" d="M30.332 23.743h3.5V8.28h-3.5z"/></g></g><g id="c-link" transform="translate(21.667 31.667)" fill="#383737" fill-rule="nonzero"><path d="M70.257 3.898c-.779 0-1.22.065-1.45.109v4.008h1.26c1.6 0 2.545-.82 2.545-2.092 0-1.335-.884-2.003-2.355-2.025zm3.028 5.324v.065c.988.408 1.533 1.378 1.892 2.715.441 1.638.883 3.533 1.156 4.095h-3.28c-.231-.41-.566-1.595-.988-3.384-.378-1.811-.988-2.306-2.292-2.328h-.966v5.712H65.63V1.763c1.032-.171 2.567-.3 4.27-.3 2.102 0 3.573.324 4.583 1.142.84.69 1.304 1.702 1.304 3.038 0 1.854-1.284 3.125-2.502 3.579zm-9.84 4.18v2.695h-9.042V1.57h8.747v2.695h-5.53v3.017h5.215v2.671H57.62v3.45h5.825v-.001zM53.1 16.097h-3.743l-3.47-6.272-1.219 1.53v4.742h-3.175V1.57h3.174v6.423h.063c.315-.56.65-1.078.967-1.595l3.216-4.828h3.934l-4.69 6.185 4.941 8.342h.002zM32.578 3.942c-2.166 0-3.428 2.111-3.428 4.933 0 2.847 1.305 4.85 3.45 4.85 2.165 0 3.405-2.112 3.405-4.933 0-2.61-1.22-4.85-3.427-4.85zm-.146 12.391c-4.207 0-6.667-3.255-6.667-7.391 0-4.354 2.713-7.609 6.897-7.609 4.353 0 6.728 3.34 6.728 7.35 0 4.762-2.817 7.65-6.958 7.65zM18.658 3.898a7.783 7.783 0 0 0-1.45.109v4.008h1.262c1.598 0 2.543-.82 2.543-2.092 0-1.335-.883-2.003-2.355-2.025zm3.029 5.324v.065c.988.408 1.535 1.378 1.891 2.715.442 1.638.884 3.533 1.157 4.095h-3.28c-.23-.41-.567-1.595-.988-3.384-.379-1.811-.989-2.306-2.292-2.328h-.967v5.712h-3.175V1.763c1.03-.171 2.567-.3 4.267-.3 2.105 0 3.577.324 4.585 1.142.842.69 1.303 1.702 1.303 3.038 0 1.854-1.283 3.125-2.5 3.579h-.001zm-16.084.451H4.508v4.095c.317.044.694.044 1.24.044 1.45 0 2.734-.56 2.734-2.09 0-1.467-1.284-2.049-2.88-2.049h.001zm.272-5.818c-.693 0-1.093.043-1.367.087v3.383h1.05c1.684 0 2.589-.712 2.589-1.788 0-1.1-.82-1.684-2.272-1.684v.002zM9.03 8.23v.043c1.617.452 2.817 1.702 2.817 3.577 0 1.315-.589 2.35-1.472 3.083-1.03.84-2.755 1.314-5.572 1.314a24.2 24.2 0 0 1-3.47-.217V1.763c.842-.171 2.545-.3 4.142-.3 1.957 0 3.155.194 4.185.819.988.538 1.703 1.53 1.703 2.845 0 1.293-.736 2.5-2.333 3.103z" id="c"/></g></g><g id="Group" transform="translate(437 60)"><rect id="Rectangle" stroke="#F2F2F2" fill="#FFF" x=".5" y=".5" width="119" height="119" rx="5"/><path d="M36.957 63.192H47.43l-5.15-14.459h-.087l-5.236 14.459zM40.03 45h4.543l12.074 31h-4.544l-3.375-9.333H35.66L32.197 76H28l12.03-31zm23.757 14.85h8.046c2.337.028 4.047-.45 5.129-1.433 1.081-.984 1.621-2.404 1.621-4.255 0-1.854-.54-3.264-1.621-4.234-1.084-.97-2.792-1.455-5.129-1.455h-8.05v11.375l.004.002zM59.675 45H73.22c3.117 0 5.473.803 7.075 2.41 1.6 1.607 2.4 3.857 2.4 6.75 0 2.895-.8 5.153-2.4 6.775-1.6 1.62-3.96 2.417-7.075 2.387h-9.433V76h-4.112V45zm28.213 0H92v31h-4.112V45z" id="Shape" fill="url(#linearGradient-10)" fill-rule="nonzero"/></g><g id="data" transform="translate(437 60)"><g id="Rectangle"><use fill="#000" filter="url(#filter-12)" xlink:href="#path-11"/><use stroke="#F2F2F2" fill="#FFF" xlink:href="#path-11"/></g><path id="Path" fill="#F0F0F1" d="M32 73.732L60.23 87.19l28.227-13.458-28.228-13.46z"/><path id="Path" fill="#E5E6E7" d="M32 78.398l28.23 13.46V87.19L32 73.731z"/><path id="Path" fill="#D0D2D3" d="M60.229 87.19v4.668l28.228-13.46v-4.666z"/><path id="Path" fill="#F0F0F1" d="M32 57.252l28.23 13.459 28.227-13.459-28.228-13.46z"/><path id="Path" fill="#F0F0F1" d="M32 65.492L60.23 78.95l28.227-13.46-28.228-13.459z"/><path id="Path" fill="#E5E6E7" d="M32 70.158l28.23 13.459v-4.666L32 65.49z"/><path id="Path" fill="#D0D2D3" d="M60.229 78.951v4.666L88.457 70.16v-4.667z"/><path id="Path" fill="#E5E6E7" d="M32 61.918l28.23 13.46V70.71L32 57.252z"/><path id="Path" fill="#D0D2D3" d="M60.229 70.71v4.668l28.228-13.46v-4.666z"/><path id="Path" fill="#E5E6E7" d="M60.229 28l-28.23 13.459 28.23 13.46 28.228-13.46z"/><path id="Path" fill="#59D7DD" d="M60.229 28l-28.23 13.459 28.23 13.46 28.228-13.46z"/><path id="Path" fill="#2BC6CE" d="M32 46.126l28.23 13.459v-4.666L32 41.459z"/><path id="Path" fill="#0EA7AE" d="M60.229 54.919v4.666l28.228-13.46V41.46z"/></g></g></g></g></svg>