<svg xmlns="http://www.w3.org/2000/svg" width="51" height="41"><g fill="none" fill-rule="evenodd"><path fill="#0EA7AE" fill-opacity=".86" fill-rule="nonzero" d="M0 0h31c11.046 0 20 8.954 20 20v21H20C8.954 41 0 32.046 0 21V0z"/><path fill="#FFF" d="M38.53 13.76c.313.315.47.697.47 1.146 0 .449-.157.83-.47 1.145L24.105 30.529a1.55 1.55 0 0 1-1.141.471 1.55 1.55 0 0 1-1.14-.471l-8.354-8.384A1.561 1.561 0 0 1 13 21c0-.449.157-.83.47-1.145l2.281-2.29a1.55 1.55 0 0 1 1.14-.47c.448 0 .828.156 1.141.47l4.932 4.967 11.004-11.06a1.55 1.55 0 0 1 1.14-.472c.448 0 .828.157 1.141.471l2.281 2.29z"/></g></svg>