<svg xmlns="http://www.w3.org/2000/svg" width="418" height="337"><defs><filter id="a" width="100%" height="100%" x="0%" y="0%" filterUnits="objectBoundingBox"><feGaussianBlur in="SourceGraphic"/></filter><filter id="b" width="100%" height="100%" x="0%" y="0%" filterUnits="objectBoundingBox"><feGaussianBlur in="SourceGraphic"/></filter><linearGradient id="c" x1="50%" x2="50%" y1="100%" y2="0%"><stop offset="0%" stop-color="#EDEDED"/><stop offset="100%" stop-color="#FFF"/></linearGradient><filter id="d" width="100%" height="100%" x="0%" y="0%" filterUnits="objectBoundingBox"><feGaussianBlur in="SourceGraphic"/></filter><filter id="e" width="100%" height="100%" x="0%" y="0%" filterUnits="objectBoundingBox"><feGaussianBlur in="SourceGraphic"/></filter><filter id="f" width="100%" height="100%" x="0%" y="0%" filterUnits="objectBoundingBox"><feGaussianBlur in="SourceGraphic"/></filter><filter id="g" width="100%" height="100%" x="0%" y="0%" filterUnits="objectBoundingBox"><feGaussianBlur in="SourceGraphic"/></filter><filter id="h" width="100%" height="100%" x="0%" y="0%" filterUnits="objectBoundingBox"><feGaussianBlur in="SourceGraphic"/></filter><filter id="i" width="100%" height="100%" x="0%" y="0%" filterUnits="objectBoundingBox"><feGaussianBlur in="SourceGraphic"/></filter></defs><g fill="none" fill-rule="evenodd"><g transform="translate(16 10)"><rect width="385.25" height="81.697" x=".375" y=".375" fill="#FFF" fill-rule="nonzero" stroke="#F2F2F2" stroke-width=".75" filter="url(#a)" rx="2.249"/><path fill="#F2F2F2" fill-rule="nonzero" d="M281.068 0h102.683A2.249 2.249 0 0 1 386 2.249v77.95a2.249 2.249 0 0 1-2.249 2.248H281.068V0z" filter="url(#b)"/><rect width="37.476" height="8.994" x="331.285" y="16.489" fill="#0EA7AE" fill-rule="nonzero" rx="4.497"/><rect width="69.705" height="7.495" x="28.482" y="17.239" fill="#383737" fill-opacity=".2" fill-rule="nonzero" rx="3.748"/><rect width="41.973" height="7.495" x="191.126" y="50.217" fill="#383737" fill-opacity=".2" fill-rule="nonzero" rx="3.748"/><text fill="#999" font-family="FontAwesome" font-size="8.994" letter-spacing="-.253"><tspan x="15.74" y="24.489"></tspan></text><rect width="130.416" height="25.483" x="16.115" y="40.849" fill="#FFF" fill-rule="nonzero" stroke="#D0D0D0" stroke-width=".75" rx="2.249"/><rect width="130.416" height="25.483" x="243.217" y="40.849" fill="#FFF" fill-rule="nonzero" stroke="#D0D0D0" stroke-width=".75" rx="2.249"/><rect width="67.456" height="8.994" x="24.734" y="49.468" fill="#F2F2F2" fill-rule="nonzero" rx="4.497"/><rect width="67.456" height="8.994" x="251.837" y="49.468" fill="#F2F2F2" fill-rule="nonzero" rx="4.497"/><path fill="url(#c)" fill-rule="nonzero" stroke="#D0D0D0" stroke-width=".75" d="M121.047 40.849v25.483h23.61a1.874 1.874 0 0 0 1.873-1.874V42.722a1.874 1.874 0 0 0-1.874-1.873h-23.61zm227.103 0v25.483h23.61a1.874 1.874 0 0 0 1.873-1.874V42.722a1.874 1.874 0 0 0-1.874-1.873h-23.61z"/><text fill="#727272" font-family="HelveticaNeue, Helvetica Neue" font-size="14.99"><tspan x="126.668" y="58.971">%</tspan></text><text fill="#727272" font-family="HelveticaNeue, Helvetica Neue" font-size="14.99"><tspan x="356.769" y="58.971">$</tspan></text></g><g transform="translate(16 102)"><rect width="319.379" height="67.728" x=".311" y=".311" fill="#FFF" fill-rule="nonzero" stroke="#F2F2F2" stroke-width=".621" filter="url(#d)" rx="1.864"/><path fill="#F2F2F2" fill-rule="nonzero" d="M233.01 0h85.126c1.03 0 1.864.835 1.864 1.864v64.621c0 1.03-.835 1.865-1.864 1.865H233.01V0z" filter="url(#e)"/><rect width="31.068" height="7.456" x="274.641" y="13.67" fill="#0EA7AE" fill-rule="nonzero" rx="3.728"/><rect width="57.786" height="6.214" x="23.612" y="14.291" fill="#383737" fill-opacity=".2" fill-rule="nonzero" rx="3.107"/><rect width="34.796" height="6.214" x="158.447" y="41.631" fill="#383737" fill-opacity=".2" fill-rule="nonzero" rx="3.107"/><text fill="#999" font-family="FontAwesome" font-size="7.456" letter-spacing="-.21"><tspan x="13.049" y="19.67"></tspan></text><rect width="108.117" height="21.126" x="13.359" y="33.864" fill="#FFF" fill-rule="nonzero" stroke="#D0D0D0" stroke-width=".621" rx="1.864"/><rect width="108.117" height="21.126" x="201.631" y="33.864" fill="#FFF" fill-rule="nonzero" stroke="#D0D0D0" stroke-width=".621" rx="1.864"/><rect width="55.922" height="7.456" x="20.505" y="41.01" fill="#F2F2F2" fill-rule="nonzero" rx="3.728"/><rect width="55.922" height="7.456" x="208.777" y="41.01" fill="#F2F2F2" fill-rule="nonzero" rx="3.728"/><path fill="url(#c)" fill-rule="nonzero" stroke="#D0D0D0" stroke-width=".621" d="M100.35 33.864V54.99h19.572c.858 0 1.554-.695 1.554-1.553v-18.02c0-.857-.696-1.553-1.554-1.553H100.35zm188.271 0V54.99h19.573c.858 0 1.554-.695 1.554-1.553v-18.02c0-.857-.696-1.553-1.554-1.553h-19.573z"/><text fill="#727272" font-family="HelveticaNeue, Helvetica Neue" font-size="12.427"><tspan x="105.01" y="49.282">%</tspan></text><text fill="#727272" font-family="HelveticaNeue, Helvetica Neue" font-size="12.427"><tspan x="295.767" y="49.282">$</tspan></text></g><g transform="translate(16 180)"><rect width="319.379" height="67.728" x=".311" y=".311" fill="#FFF" fill-rule="nonzero" stroke="#F2F2F2" stroke-width=".621" filter="url(#f)" rx="1.864"/><path fill="#F2F2F2" fill-rule="nonzero" d="M233.01 0h85.126c1.03 0 1.864.835 1.864 1.864v64.621c0 1.03-.835 1.865-1.864 1.865H233.01V0z" filter="url(#g)"/><rect width="31.068" height="7.456" x="274.641" y="13.67" fill="#0EA7AE" fill-rule="nonzero" rx="3.728"/><rect width="57.786" height="6.214" x="23.612" y="14.291" fill="#383737" fill-opacity=".2" fill-rule="nonzero" rx="3.107"/><rect width="34.796" height="6.214" x="158.447" y="41.631" fill="#383737" fill-opacity=".2" fill-rule="nonzero" rx="3.107"/><text fill="#999" font-family="FontAwesome" font-size="7.456" letter-spacing="-.21"><tspan x="13.049" y="19.67"></tspan></text><rect width="108.117" height="21.126" x="13.359" y="33.864" fill="#FFF" fill-rule="nonzero" stroke="#D0D0D0" stroke-width=".621" rx="1.864"/><rect width="108.117" height="21.126" x="201.631" y="33.864" fill="#FFF" fill-rule="nonzero" stroke="#D0D0D0" stroke-width=".621" rx="1.864"/><rect width="55.922" height="7.456" x="20.505" y="41.01" fill="#F2F2F2" fill-rule="nonzero" rx="3.728"/><rect width="55.922" height="7.456" x="208.777" y="41.01" fill="#F2F2F2" fill-rule="nonzero" rx="3.728"/><path fill="url(#c)" fill-rule="nonzero" stroke="#D0D0D0" stroke-width=".621" d="M100.35 33.864V54.99h19.572c.858 0 1.554-.695 1.554-1.553v-18.02c0-.857-.696-1.553-1.554-1.553H100.35zm188.271 0V54.99h19.573c.858 0 1.554-.695 1.554-1.553v-18.02c0-.857-.696-1.553-1.554-1.553h-19.573z"/><text fill="#727272" font-family="HelveticaNeue, Helvetica Neue" font-size="12.427"><tspan x="105.01" y="49.282">%</tspan></text><text fill="#727272" font-family="HelveticaNeue, Helvetica Neue" font-size="12.427"><tspan x="295.767" y="49.282">$</tspan></text></g><g transform="translate(16 258)"><rect width="319.379" height="67.728" x=".311" y=".311" fill="#FFF" fill-rule="nonzero" stroke="#F2F2F2" stroke-width=".621" filter="url(#h)" rx="1.864"/><path fill="#F2F2F2" fill-rule="nonzero" d="M233.01 0h85.126c1.03 0 1.864.835 1.864 1.864v64.621c0 1.03-.835 1.865-1.864 1.865H233.01V0z" filter="url(#i)"/><rect width="31.068" height="7.456" x="274.641" y="13.67" fill="#0EA7AE" fill-rule="nonzero" rx="3.728"/><rect width="57.786" height="6.214" x="23.612" y="14.291" fill="#383737" fill-opacity=".2" fill-rule="nonzero" rx="3.107"/><rect width="34.796" height="6.214" x="158.447" y="41.631" fill="#383737" fill-opacity=".2" fill-rule="nonzero" rx="3.107"/><text fill="#999" font-family="FontAwesome" font-size="7.456" letter-spacing="-.21"><tspan x="13.049" y="19.67"></tspan></text><rect width="108.117" height="21.126" x="13.359" y="33.864" fill="#FFF" fill-rule="nonzero" stroke="#D0D0D0" stroke-width=".621" rx="1.864"/><rect width="108.117" height="21.126" x="201.631" y="33.864" fill="#FFF" fill-rule="nonzero" stroke="#D0D0D0" stroke-width=".621" rx="1.864"/><rect width="55.922" height="7.456" x="20.505" y="41.01" fill="#F2F2F2" fill-rule="nonzero" rx="3.728"/><rect width="55.922" height="7.456" x="208.777" y="41.01" fill="#F2F2F2" fill-rule="nonzero" rx="3.728"/><path fill="url(#c)" fill-rule="nonzero" stroke="#D0D0D0" stroke-width=".621" d="M100.35 33.864V54.99h19.572c.858 0 1.554-.695 1.554-1.553v-18.02c0-.857-.696-1.553-1.554-1.553H100.35zm188.271 0V54.99h19.573c.858 0 1.554-.695 1.554-1.553v-18.02c0-.857-.696-1.553-1.554-1.553h-19.573z"/><text fill="#727272" font-family="HelveticaNeue, Helvetica Neue" font-size="12.427"><tspan x="105.01" y="49.282">%</tspan></text><text fill="#727272" font-family="HelveticaNeue, Helvetica Neue" font-size="12.427"><tspan x="295.767" y="49.282">$</tspan></text></g></g></svg>