<svg xmlns="http://www.w3.org/2000/svg" xmlns:xlink="http://www.w3.org/1999/xlink" width="233" height="107"><defs><path id="a" d="M3.688 9.242c.069-1.03.133-2.06.199-3.091l.181-2.843c.001-.015.005-.029.01-.05.034-.002.067-.006.1-.006h1.665c.064-.001.098.01.12.08.344 1.189.713 2.37.972 3.581l.092.428c.002.006.011.01.02.016.117-.45.22-.903.354-1.348.268-.897.55-1.79.83-2.684.01-.03.052-.07.079-.07.585-.004 1.17-.003 1.77-.003l.335 6.1H9.022l-.155-4.653c-.085.31-.162.622-.256.928a727.98 727.98 0 0 1-1.1 3.555c-.01.033-.055.078-.084.078-.344.005-.69.004-1.044.004-.395-1.5-.863-2.977-1.172-4.499L5 9.36h-.194c-.334 0-.668-.003-1.002.001-.092.002-.123-.019-.116-.118zm8.445.111h1.4V3.262h-1.4v6.091zm3.235-5.998c-.003-.077.02-.105.101-.105.488.004.976 0 1.463.005a.15.15 0 0 1 .11.066c.742 1.337 1.57 2.629 2.144 4.054.004.01.012.017.028.024-.13-1.376-.075-2.754-.089-4.147h1.157c.148 0 .148 0 .148.145v4.697c0 .38-.003.759.002 1.138.001.095-.019.13-.123.13-.42-.007-.84-.004-1.26-.003-.054 0-.097 0-.13-.06-.641-1.192-1.289-2.38-1.928-3.574-.129-.24-.231-.493-.345-.74l.036 4.374h-.21c-.322 0-.645-.005-.967.002-.108.002-.138-.029-.138-.137.003-1.851.002-3.703.002-5.554 0-.105.004-.21 0-.315zm6.432.004c0-.083.023-.109.108-.109 1.493.003 2.986.003 4.479 0 .09 0 .115.028.114.115a36.06 36.06 0 0 0 0 .969c0 .087-.024.115-.114.114-.47-.004-.938-.002-1.407-.002h-.136v4.902h-1.413V4.446h-.128c-.462 0-.923-.003-1.385.002-.096.001-.119-.029-.118-.12.005-.323.005-.646 0-.97zM6.288 12.574h23.7V6.339A6.236 6.236 0 0 0 23.75.105H.05v6.234a6.236 6.236 0 0 0 6.237 6.235z"/><path id="c" d="M35.57 13.01a3.16 3.16 0 0 0-.581.043v1.58h.505c.639 0 1.017-.322 1.017-.824 0-.526-.353-.79-.942-.798zm1.21 2.099v.026c.396.16.614.543.757 1.07.177.646.354 1.393.463 1.614h-1.312c-.093-.161-.227-.629-.395-1.334-.152-.713-.396-.909-.917-.917h-.387v2.251h-1.27v-5.65a11.147 11.147 0 0 1 1.707-.118c.841 0 1.43.127 1.834.45.336.272.521.671.521 1.198 0 .73-.513 1.232-1 1.41zm-3.936 1.648v1.062h-3.616v-5.726h3.499v1.062h-2.212v1.19H32.6v1.053h-2.085v1.36h2.33zm-4.138 1.062H27.21l-1.387-2.472-.488.603v1.869h-1.27v-5.726h1.27v2.532h.025c.126-.22.26-.425.387-.629l1.287-1.903h1.572l-1.875 2.438 1.976 3.288zm-8.208-4.791c-.866 0-1.371.832-1.371 1.945 0 1.121.521 1.912 1.38 1.912.866 0 1.362-.833 1.362-1.946 0-1.028-.488-1.911-1.371-1.911zm-.059 4.884c-1.682 0-2.666-1.282-2.666-2.913 0-1.716 1.085-2.999 2.759-2.999 1.74 0 2.69 1.317 2.69 2.897 0 1.877-1.126 3.015-2.783 3.015zm-5.509-4.901c-.31 0-.488.025-.58.042v1.58h.505c.639 0 1.017-.322 1.017-.824 0-.526-.353-.79-.942-.798zm1.211 2.098v.026c.396.16.614.543.757 1.07.177.646.353 1.393.463 1.614h-1.312c-.093-.161-.227-.629-.395-1.334-.152-.713-.396-.909-.917-.917h-.387v2.251h-1.27v-5.65a11.147 11.147 0 0 1 1.707-.118c.841 0 1.43.127 1.834.45.336.272.521.671.521 1.198 0 .73-.513 1.232-1 1.41zm-6.434.178H9.27v1.614c.126.018.278.018.496.018.58 0 1.094-.221 1.094-.825 0-.577-.513-.807-1.153-.807zm.11-2.293c-.278 0-.438.017-.547.034v1.333h.42c.673 0 1.035-.28 1.035-.705 0-.433-.328-.662-.908-.662zm1.261 1.724v.017c.648.179 1.127.671 1.127 1.41 0 .519-.235.926-.588 1.215-.413.332-1.102.518-2.23.518-.63 0-1.1-.042-1.387-.085V12.17c.336-.068 1.018-.119 1.657-.119.782 0 1.262.076 1.674.323.395.212.68.603.68 1.121 0 .51-.293.985-.933 1.223z"/><linearGradient id="d" x1="50%" x2="50%" y1="0%" y2="100%"><stop offset="0%" stop-color="#4FD5D8"/><stop offset="100%" stop-color="#0EA7AE"/></linearGradient></defs><g fill="none" fill-rule="evenodd"><rect width="233" height="107" fill="#FFF" fill-rule="nonzero" rx="6"/><rect width="196" height="107" x="37" fill="#F9F9F9" fill-rule="nonzero" rx="6"/><g transform="translate(14 31)"><rect width="45" height="44" x=".5" y=".5" fill="#FFF" fill-rule="nonzero" stroke="#D0D0D0" rx="6"/><g transform="translate(8 21)"><mask id="b" fill="#fff"><use xlink:href="#a"/></mask><use fill="#20A6AC" xlink:href="#a"/><g fill="#0EA7AE" fill-rule="nonzero" mask="url(#b)"><path d="M.052.133h30v12h-30z"/></g></g><use fill="#383737" xlink:href="#c"/></g><path fill="#D8D8D8" fill-rule="nonzero" d="M87 52v-6a1 1 0 0 1 2 0v6h6a1 1 0 0 1 0 2h-6v6a1 1 0 0 1-2 0v-6h-6a1 1 0 0 1 0-2h6z"/><rect width="103" height="50" x="116" y="28" fill="url(#d)" fill-rule="nonzero" rx="6"/><path fill="#FFF" d="M144.63 45.364a1.795 1.795 0 0 0-.252-.693 2.26 2.26 0 0 0-1.155-.924 2.285 2.285 0 0 0-.777-.133c-.495 0-.915.096-1.26.287a2.379 2.379 0 0 0-.84.77 3.374 3.374 0 0 0-.469 1.099 5.47 5.47 0 0 0-.147 1.274c0 .42.049.828.147 1.225.098.397.254.754.469 1.071.215.317.495.572.84.763.345.191.765.287 1.26.287.672 0 1.197-.205 1.575-.616.378-.41.609-.952.693-1.624h2.128c-.056.625-.2 1.19-.434 1.694a4.057 4.057 0 0 1-.924 1.288c-.383.355-.83.625-1.344.812a4.924 4.924 0 0 1-1.694.28c-.765 0-1.454-.133-2.065-.399a4.425 4.425 0 0 1-1.547-1.099 4.865 4.865 0 0 1-.966-1.645 6.037 6.037 0 0 1-.336-2.037c0-.747.112-1.44.336-2.079.224-.64.546-1.197.966-1.673.42-.476.936-.85 1.547-1.12.611-.27 1.3-.406 2.065-.406.55 0 1.071.08 1.561.238.49.159.929.39 1.316.693.387.303.707.679.959 1.127.252.448.41.961.476 1.54h-2.128zm12.194 2.856c0 1.353-.378 2.359-1.134 3.017-.756.658-1.801.987-3.136.987-1.353 0-2.401-.327-3.143-.98s-1.113-1.661-1.113-3.024v-6.216h2.198v6.216c0 .27.023.537.07.798.047.261.145.492.294.693.15.2.357.364.623.49s.623.189 1.071.189c.784 0 1.325-.175 1.624-.525.299-.35.448-.898.448-1.645v-6.216h2.198v6.216zm3.388.462c0 .336.06.62.182.854.121.233.282.422.483.567.2.145.436.252.707.322.27.07.55.105.84.105.196 0 .406-.016.63-.049.224-.033.434-.096.63-.189s.36-.222.49-.385.196-.371.196-.623c0-.27-.086-.49-.259-.658a2.054 2.054 0 0 0-.679-.42 6.777 6.777 0 0 0-.952-.294 26.303 26.303 0 0 1-1.078-.28 9.572 9.572 0 0 1-1.092-.343 3.752 3.752 0 0 1-.952-.525 2.472 2.472 0 0 1-.679-.805c-.173-.322-.259-.712-.259-1.169 0-.513.11-.959.329-1.337.22-.378.506-.693.861-.945a3.752 3.752 0 0 1 1.204-.56 5.122 5.122 0 0 1 1.344-.182 6.36 6.36 0 0 1 1.505.175c.48.117.908.306 1.281.567.373.261.67.595.889 1.001.22.406.329.898.329 1.477h-2.128a1.776 1.776 0 0 0-.189-.742 1.237 1.237 0 0 0-.427-.462 1.805 1.805 0 0 0-.609-.238 3.749 3.749 0 0 0-.749-.07 2.6 2.6 0 0 0-.532.056 1.423 1.423 0 0 0-.483.196c-.145.093-.264.21-.357.35a.94.94 0 0 0-.14.532c0 .196.037.355.112.476.075.121.222.233.441.336.22.103.523.205.91.308.387.103.894.233 1.519.392.187.037.446.105.777.203.331.098.66.254.987.469.327.215.609.502.847.861.238.36.357.819.357 1.379 0 .457-.089.882-.266 1.274-.177.392-.441.73-.791 1.015-.35.285-.784.506-1.302.665-.518.159-1.118.238-1.799.238-.55 0-1.085-.068-1.603-.203a4.032 4.032 0 0 1-1.372-.637 3.147 3.147 0 0 1-.945-1.106c-.233-.448-.345-.98-.336-1.596h2.128zm9.8-4.83h-2.996v-1.848h8.19v1.848h-2.996V52h-2.198v-8.148zm8.106 3.192c0 .42.049.828.147 1.225.098.397.254.754.469 1.071.215.317.495.572.84.763.345.191.765.287 1.26.287s.915-.096 1.26-.287a2.41 2.41 0 0 0 .84-.763 3.31 3.31 0 0 0 .469-1.071 5.09 5.09 0 0 0 .147-1.225 5.47 5.47 0 0 0-.147-1.274 3.374 3.374 0 0 0-.469-1.099 2.379 2.379 0 0 0-.84-.77c-.345-.191-.765-.287-1.26-.287s-.915.096-1.26.287a2.379 2.379 0 0 0-.84.77 3.374 3.374 0 0 0-.469 1.099 5.47 5.47 0 0 0-.147 1.274zm-2.198 0c0-.747.112-1.44.336-2.079.224-.64.546-1.197.966-1.673.42-.476.936-.85 1.547-1.12.611-.27 1.3-.406 2.065-.406.775 0 1.465.135 2.072.406.607.27 1.12.644 1.54 1.12.42.476.742 1.034.966 1.673.224.64.336 1.332.336 2.079 0 .728-.112 1.407-.336 2.037a4.865 4.865 0 0 1-.966 1.645 4.44 4.44 0 0 1-1.54 1.099c-.607.266-1.297.399-2.072.399-.765 0-1.454-.133-2.065-.399a4.425 4.425 0 0 1-1.547-1.099 4.865 4.865 0 0 1-.966-1.645 6.037 6.037 0 0 1-.336-2.037zm11.326-5.04h3.094l2.338 6.874h.028l2.212-6.874h3.094V52h-2.058v-7.084h-.028L193.476 52h-1.694l-2.45-7.014h-.028V52h-2.058v-9.996zm-59.487 16.142h1.727V66h-1.727v-7.854zm3.874 0h1.716l3.278 5.269h.022v-5.269h1.617V66h-1.727l-3.267-5.258h-.022V66h-1.617v-7.854zm10.517 1.452h-2.354v-1.452h6.435v1.452h-2.354V66h-1.727v-6.402zm5.612-1.452h5.874v1.452h-4.147v1.683h3.806v1.342h-3.806v1.925h4.235V66h-5.962v-7.854zm13.432 6.963c-.308.396-.649.673-1.023.83a2.894 2.894 0 0 1-1.133.237 4.027 4.027 0 0 1-1.622-.314A3.477 3.477 0 0 1 156.2 65a3.822 3.822 0 0 1-.759-1.292 4.744 4.744 0 0 1-.264-1.601c0-.587.088-1.131.264-1.634.176-.502.43-.94.76-1.314a3.47 3.47 0 0 1 1.215-.88 3.967 3.967 0 0 1 1.622-.319c.404 0 .794.06 1.172.181a3.32 3.32 0 0 1 1.023.534c.304.235.555.524.753.869.198.345.32.74.363 1.188h-1.65c-.102-.44-.3-.77-.594-.99-.293-.22-.649-.33-1.067-.33-.388 0-.718.075-.99.225a1.87 1.87 0 0 0-.66.605 2.674 2.674 0 0 0-.368.864 4.298 4.298 0 0 0-.116 1.001c0 .33.039.65.116.962.077.312.2.593.368.842.169.25.389.45.66.6.272.15.602.225.99.225.572 0 1.014-.145 1.326-.434.311-.29.493-.71.544-1.26h-1.738v-1.287h3.3V66h-1.1l-.176-.891zm5.029-3.41h1.892c.396 0 .693-.088.89-.264.199-.176.298-.462.298-.858 0-.381-.1-.658-.297-.83-.198-.173-.495-.259-.891-.259h-1.892v2.211zm-1.727-3.553h4.235c.352 0 .669.057.951.17.283.114.525.27.726.468.202.198.356.427.462.688.107.26.16.54.16.841 0 .462-.097.862-.292 1.199-.194.337-.511.594-.951.77v.022a1.332 1.332 0 0 1 .869.698 2 2 0 0 1 .192.545c.04.198.068.396.083.594.007.125.015.271.022.44.007.169.02.341.038.517.019.176.048.343.088.5.04.158.101.292.182.402h-1.727a3.045 3.045 0 0 1-.176-.891 13.3 13.3 0 0 0-.1-.99c-.058-.41-.182-.711-.373-.902-.19-.19-.502-.286-.935-.286h-1.727V66h-1.727v-7.854zm10.55 4.818h2.035l-.99-2.882h-.022l-1.023 2.882zm.165-4.818h1.771L179.92 66h-1.793l-.594-1.749h-2.937L173.98 66h-1.738l2.97-7.854zm6.745 1.452h-2.354v-1.452h6.435v1.452h-2.354V66h-1.727v-6.402zm5.612-1.452h1.727V66h-1.727v-7.854zm5.26 3.96c0 .33.038.65.115.962.077.312.2.593.368.842.169.25.389.45.66.6.271.15.601.225.99.225s.719-.075.99-.225c.271-.15.491-.35.66-.6.169-.25.292-.53.369-.841.077-.312.115-.633.115-.963 0-.345-.038-.678-.115-1.001-.077-.323-.2-.61-.369-.863a1.87 1.87 0 0 0-.66-.605c-.271-.15-.601-.226-.99-.226s-.719.075-.99.225a1.87 1.87 0 0 0-.66.605 2.652 2.652 0 0 0-.368.864 4.298 4.298 0 0 0-.116 1.001zm-1.728 0c0-.587.088-1.131.264-1.634.176-.502.43-.94.76-1.314a3.47 3.47 0 0 1 1.215-.88 3.967 3.967 0 0 1 1.622-.319c.609 0 1.151.106 1.628.319.477.213.88.506 1.21.88.33.374.583.812.76 1.314.175.503.263 1.047.263 1.634a4.74 4.74 0 0 1-.264 1.6A3.822 3.822 0 0 1 197.8 65c-.33.367-.733.654-1.21.864-.477.209-1.02.313-1.628.313a4.027 4.027 0 0 1-1.622-.314 3.477 3.477 0 0 1-1.216-.863 3.822 3.822 0 0 1-.759-1.292 4.744 4.744 0 0 1-.264-1.601zm9.528-3.96h1.716l3.278 5.269h.022v-5.269h1.617V66h-1.727l-3.267-5.258h-.022V66h-1.617v-7.854z"/></g></svg>