<svg version="1.1" id="ci" xmlns="http://www.w3.org/2000/svg" x="0" y="0" viewBox="0 0 233 107" xml:space="preserve"><style>.st0{fill:#fff}</style><path id="Rectangle-Copy-2" class="st0" d="M6 0h221c3.3 0 6 2.7 6 6v95c0 3.3-2.7 6-6 6H6c-3.3 0-6-2.7-6-6V6c0-3.3 2.7-6 6-6z"/><path id="Rectangle" d="M43 0h184c3.3 0 6 2.7 6 6v95c0 3.3-2.7 6-6 6H43c-3.3 0-6-2.7-6-6V6c0-3.3 2.7-6 6-6z" fill="#f9f9f9"/><g id="Group-39" transform="translate(14 31)"><path id="Rectangle-Copy-126" d="M6.5.5h33c3.3 0 6 2.7 6 6v32c0 3.3-2.7 6-6 6h-33c-3.3 0-6-2.7-6-6v-32c0-3.3 2.7-6 6-6z" fill="#fff" stroke="#d0d0d0"/><g id="Mask_1_"><path id="path-3_1_" d="M35.6 13H35v1.6h.5c.6 0 1-.3 1-.8s-.3-.8-.9-.8zm1.2 2.1c.4.2.6.6.8 1.1.2.6.4 1.4.5 1.6h-1.3c-.1-.2-.2-.6-.4-1.3-.2-.7-.4-.9-.9-.9H35v2.3h-1.3v-5.6c.4-.1 1-.1 1.7-.1.8 0 1.4.1 1.8.5.3.3.5.7.5 1.2.1.5-.4 1-.9 1.2zm-4 1.7v1.1h-3.6v-5.7h3.5v1.1h-2.2v1.2h2.1v1.1h-2.1V17h2.3zm-4.1 1h-1.5l-1.4-2.5-.5.7v1.9H24v-5.7h1.3v2.5c.1-.2.3-.4.4-.6l1.3-1.9h1.6l-1.9 2.4 2 3.2zM20.5 13c-.9 0-1.4.8-1.4 1.9 0 1.1.5 1.9 1.4 1.9.9 0 1.4-.8 1.4-1.9 0-1-.5-1.9-1.4-1.9zm-.1 4.9c-1.7 0-2.7-1.3-2.7-2.9 0-1.7 1.1-3 2.8-3 1.7 0 2.7 1.3 2.7 2.9 0 1.9-1.1 3-2.8 3zM14.9 13h-.6v1.6h.5c.6 0 1-.3 1-.8.1-.5-.3-.8-.9-.8zm1.2 2.1c.4.2.6.6.8 1.1.2.6.4 1.4.5 1.6H16c-.1-.2-.2-.6-.4-1.3-.2-.7-.4-.9-.9-.9h-.4v2.3H13v-5.6c.4-.1 1-.1 1.7-.1.8 0 1.4.1 1.8.5.3.3.5.7.5 1.2.1.5-.4 1-.9 1.2zm-6.4.2h-.4v1.6h.5c.6 0 1.1-.2 1.1-.8 0-.6-.6-.8-1.2-.8zm.1-2.3h-.5v1.3h.4c.7 0 1-.3 1-.7 0-.4-.3-.6-.9-.6zm1.3 1.7c.6.2 1.1.7 1.1 1.4 0 .5-.2.9-.6 1.2-.4.3-1.1.5-2.2.5-.6 0-1.1 0-1.4-.1v-5.6c.3-.1 1-.1 1.7-.1.8 0 1.3.1 1.7.3.4.2.7.6.7 1.1-.1.6-.4 1.1-1 1.3z" fill="#383737"/></g></g><path id="Combined-Shape" d="M87 52v-6c0-.6.4-1 1-1s1 .4 1 1v6h6c.6 0 1 .4 1 1s-.4 1-1 1h-6v6c0 .6-.4 1-1 1s-1-.4-1-1v-6h-6c-.6 0-1-.4-1-1s.4-1 1-1h6z" fill="#d8d8d8"/><linearGradient id="Rectangle-Copy-125_1_" gradientUnits="userSpaceOnUse" x1="52.985" y1="117.8" x2="52.985" y2="116.8" gradientTransform="matrix(103 0 0 -50 -5290 5918)"><stop offset="0" stop-color="#4fd5d8"/><stop offset="1" stop-color="#0ea7ae"/></linearGradient><path id="Rectangle-Copy-125" d="M122 28h91c3.3 0 6 2.7 6 6v38c0 3.3-2.7 6-6 6h-91c-3.3 0-6-2.7-6-6V34c0-3.3 2.7-6 6-6z" fill="url(#Rectangle-Copy-125_1_)"/><path id="CUSTOM" class="st0" d="M144.6 45.4c0-.3-.1-.5-.3-.7-.1-.2-.3-.4-.5-.6s-.4-.3-.7-.4c-.2-.1-.5-.1-.8-.1-.5 0-.9.1-1.3.3s-.6.4-.8.8c-.2.3-.4.7-.5 1.1-.1.4-.1.8-.1 1.3 0 .4 0 .8.1 1.2.1.4.3.8.5 1.1.2.3.5.6.8.8s.8.3 1.3.3c.7 0 1.2-.2 1.6-.6.4-.4.6-1 .7-1.6h2.1c-.1.6-.2 1.2-.4 1.7s-.5.9-.9 1.3-.8.6-1.3.8-1.1.3-1.7.3c-.8 0-1.5-.1-2.1-.4-.6-.3-1.1-.6-1.5-1.1-.4-.5-.7-1-1-1.6-.2-.6-.3-1.3-.3-2s.1-1.4.3-2.1.5-1.2 1-1.7.9-.8 1.5-1.1c.6-.3 1.3-.4 2.1-.4.6 0 1.1.1 1.6.2.5.2.9.4 1.3.7.4.3.7.7 1 1.1s.4 1 .5 1.5h-2.2zm12.2 2.8c0 1.4-.4 2.4-1.1 3-.8.7-1.8 1-3.1 1-1.4 0-2.4-.3-3.1-1s-1.1-1.7-1.1-3V42h2.2v6.2c0 .3 0 .5.1.8 0 .3.1.5.3.7.1.2.4.4.6.5s.6.2 1.1.2c.8 0 1.3-.2 1.6-.5.3-.4.4-.9.4-1.6V42h2.2v6.2zm3.4.5c0 .3.1.6.2.9s.3.4.5.6.4.3.7.3c.3.1.6.1.8.1h.6c.2 0 .4-.1.6-.2s.4-.2.5-.4c.1-.2.2-.4.2-.6 0-.3-.1-.5-.3-.7-.2-.2-.4-.3-.7-.4-.3-.1-.6-.2-1-.3-.4-.1-.7-.2-1.1-.3-.4-.1-.7-.2-1.1-.3-.4-.1-.7-.3-1-.5s-.5-.5-.7-.8-.3-.7-.3-1.2.1-1 .3-1.3c.2-.4.5-.7.9-.9.4-.3.8-.4 1.2-.6.4-.1.9-.2 1.3-.2.5 0 1 .1 1.5.2s.9.3 1.3.6.7.6.9 1c.2.4.3.9.3 1.5H164c0-.3-.1-.5-.2-.7-.1-.2-.2-.3-.4-.5-.2-.1-.4-.2-.6-.2-.2 0-.5-.1-.7-.1-.2 0-.4 0-.5.1-.2 0-.3.1-.5.2-.1.1-.3.2-.4.3s-.1.3-.1.5 0 .4.1.5c.1.1.2.2.4.3.2.1.5.2.9.3.4.1.9.2 1.5.4.2 0 .4.1.8.2.3.1.7.3 1 .5.3.2.6.5.8.9.2.4.4.8.4 1.4 0 .5-.1.9-.3 1.3-.2.4-.4.7-.8 1-.3.3-.8.5-1.3.7-.5.2-1.1.2-1.8.2-.6 0-1.1-.1-1.6-.2s-1-.3-1.4-.6c-.4-.3-.7-.7-.9-1.1s-.3-1-.3-1.6h2.1zm9.8-4.8h-3V42h8.2v1.8h-3V52H170v-8.1zm8.1 3.1c0 .4 0 .8.1 1.2.1.4.3.8.5 1.1.2.3.5.6.8.8s.8.3 1.3.3.9-.1 1.3-.3c.3-.2.6-.4.8-.8.2-.3.4-.7.5-1.1.1-.4.1-.8.1-1.2 0-.4 0-.9-.1-1.3s-.3-.8-.5-1.1c-.2-.3-.5-.6-.8-.8-.3-.2-.8-.3-1.3-.3s-.9.1-1.3.3-.6.4-.8.8c-.2.3-.4.7-.5 1.1 0 .5-.1.9-.1 1.3zm-2.2 0c0-.7.1-1.4.3-2.1s.5-1.2 1-1.7.9-.8 1.5-1.1c.6-.3 1.3-.4 2.1-.4s1.5.1 2.1.4c.6.3 1.1.6 1.5 1.1s.7 1 1 1.7.3 1.3.3 2.1c0 .7-.1 1.4-.3 2-.2.6-.5 1.2-1 1.6-.4.5-.9.8-1.5 1.1-.6.3-1.3.4-2.1.4s-1.5-.1-2.1-.4c-.6-.3-1.1-.6-1.5-1.1-.4-.5-.7-1-1-1.6-.2-.5-.3-1.2-.3-2zm11.3-5h3.1l2.3 6.9 2.2-6.9h3.1v10H196v-7.1l-2.4 7.1h-1.7l-2.4-7v7h-2.1V42z"/><path id="INTEGRATION" class="st0" d="M127.8 58.1h1.7V66h-1.7v-7.9zm3.8 0h1.7l3.3 5.3v-5.3h1.6V66h-1.7l-3.3-5.3V66h-1.6v-7.9zm10.6 1.5h-2.4v-1.5h6.4v1.5h-2.4V66h-1.7v-6.4zm5.6-1.5h5.9v1.5h-4.1v1.7h3.8v1.3h-3.8v1.9h4.2V66h-6v-7.9zm13.4 7c-.3.4-.6.7-1 .8-.4.2-.8.2-1.1.2-.6 0-1.1-.1-1.6-.3-.5-.2-.9-.5-1.2-.9s-.6-.8-.8-1.3c-.2-.5-.3-1-.3-1.6 0-.6.1-1.1.3-1.6.2-.5.4-.9.8-1.3.3-.4.7-.7 1.2-.9s1-.3 1.6-.3c.4 0 .8.1 1.2.2.4.1.7.3 1 .5s.6.5.8.9.3.7.4 1.2h-1.7c-.1-.4-.3-.8-.6-1s-.6-.3-1.1-.3c-.4 0-.7.1-1 .2-.3.2-.5.4-.7.6s-.3.5-.4.9c-.1.3-.1.7-.1 1 0 .3 0 .7.1 1 .1.3.2.6.4.8.2.2.4.4.7.6.3.2.6.2 1 .2.6 0 1-.1 1.3-.4.3-.3.5-.7.5-1.3h-1.7v-1.3h3.3V66h-1.1l-.2-.9zm5-3.4h1.9c.4 0 .7-.1.9-.3.2-.2.3-.5.3-.9s-.1-.7-.3-.8c-.2-.2-.5-.3-.9-.3h-1.9v2.3zm-1.7-3.6h4.2c.4 0 .7.1 1 .2.3.1.5.3.7.5.2.2.4.4.5.7.1.3.2.5.2.8 0 .5-.1.9-.3 1.2-.2.3-.5.6-1 .8.2.1.4.1.5.3.1.1.3.3.3.4s.2.3.2.5.1.4.1.6v.9c0 .2 0 .3.1.5 0 .2.1.3.2.4h-1.7c-.1-.2-.2-.5-.2-.9 0-.3-.1-.7-.1-1-.1-.4-.2-.7-.4-.9-.2-.2-.5-.3-.9-.3h-1.7V66h-1.7v-7.9zM175 63h2l-1-2.9-1 2.9zm.2-4.9h1.8l2.9 7.9h-1.8l-.6-1.7h-2.9L174 66h-1.7l2.9-7.9zm6.8 1.5h-2.4v-1.5h6.4v1.5h-2.4V66H182v-6.4zm5.6-1.5h1.7V66h-1.7v-7.9zm5.2 4c0 .3 0 .7.1 1s.2.6.4.8c.2.2.4.4.7.6.3.2.6.2 1 .2s.7-.1 1-.2c.3-.2.5-.4.7-.6.2-.2.3-.5.4-.8s.1-.6.1-1c0-.3 0-.7-.1-1-.1-.3-.2-.6-.4-.9s-.4-.5-.7-.6c-.3-.2-.6-.2-1-.2s-.7.1-1 .2c-.3.2-.5.4-.7.6s-.3.5-.4.9c0 .3-.1.7-.1 1zm-1.7 0c0-.6.1-1.1.3-1.6.2-.5.4-.9.8-1.3.3-.4.7-.7 1.2-.9.5-.2 1-.3 1.6-.3.6 0 1.2.1 1.6.3s.9.5 1.2.9c.3.4.6.8.8 1.3.2.5.3 1 .3 1.6 0 .6-.1 1.1-.3 1.6-.2.5-.4.9-.8 1.3s-.7.7-1.2.9c-.5.2-1 .3-1.6.3-.6 0-1.1-.1-1.6-.3-.5-.2-.9-.5-1.2-.9s-.6-.8-.8-1.3c-.2-.5-.3-1-.3-1.6zm9.5-4h1.7l3.3 5.3v-5.3h1.6V66h-1.7l-3.3-5.3V66h-1.6v-7.9z"/><path d="M45.8 52.1H22.1v6.2c0 3.4 2.8 6.2 6.2 6.2H52v-6.2c0-3.4-2.8-6.2-6.2-6.2zM31 61.4c-.1-1.5-.1-3.1-.2-4.7l-.3.9c-.4 1.2-.7 2.4-1.1 3.6l-.1.1h-1c-.4-1.5-.9-3-1.2-4.5-.1 1.5-.1 3.1-.2 4.6h-1.2c-.1 0-.1 0-.1-.1.1-1 .1-2.1.2-3.1.1-.9.1-1.9.2-2.8h1.8c.1 0 .1 0 .1.1.3 1.2.7 2.4 1 3.6 0 .1.1.3.1.4.1-.5.2-.9.4-1.3.3-.9.6-1.8.8-2.7l.1-.1h1.8c.1 2 .2 4.1.3 6.1H31zm4.5 0h-1.4v-6.1h1.4v6.1zm6.8 0H41c-.1 0-.1 0-.1-.1-.6-1.2-1.3-2.4-1.9-3.6-.1-.2-.2-.5-.3-.7v4.4h-1.2c-.1 0-.1 0-.1-.1v-5.9c0-.1 0-.1.1-.1H39s.1 0 .1.1c.7 1.3 1.6 2.6 2.1 4.1-.1-1.4-.1-2.8-.1-4.1h1.1c.1 0 .1 0 .1.1v5.8c.1 0 .1.1 0 .1zm6.1-5h-1.5v4.9h-1.4v-4.9H44c-.1 0-.1 0-.1-.1v-1c0-.1 0-.1.1-.1h4.5c.1 0 .1 0 .1.1v1c-.1.1-.1.1-.2.1z" fill="#20a6ac"/></svg>