<svg xmlns="http://www.w3.org/2000/svg" xmlns:xlink="http://www.w3.org/1999/xlink" width="600" height="240"><defs><path id="a" d="M9.22 23.46c.172-2.615.333-5.23.497-7.846l.453-7.218c.003-.036.013-.072.023-.125.088-.005.169-.015.25-.015 1.389 0 2.777 0 4.166-.003.157 0 .245.026.297.208.862 3.015 1.785 6.013 2.432 9.087.076.362.152.725.23 1.087.003.014.028.023.05.04.293-1.144.552-2.293.884-3.42.67-2.279 1.378-4.546 2.078-6.816.022-.074.127-.175.194-.176 1.463-.01 2.925-.007 4.428-.007l.836 15.481h-3.483l-.387-11.81c-.212.788-.405 1.58-.64 2.358-.907 3.01-1.828 6.017-2.751 9.024-.026.082-.136.196-.209.197-.862.014-1.724.01-2.61.01-.987-3.81-2.158-7.557-2.93-11.42l-.528 11.66h-.486c-.835 0-1.67-.007-2.504.005-.23.003-.307-.05-.29-.302zm21.112.283h3.499V8.279h-3.499v15.464zM38.42 8.516c-.008-.195.05-.267.253-.265 1.219.009 2.438 0 3.658.012.094 0 .229.083.275.168 1.854 3.393 3.923 6.673 5.36 10.29.008.024.028.043.07.061-.326-3.492-.188-6.99-.223-10.527h2.892c.37 0 .37 0 .37.367v11.925c0 .963-.007 1.926.005 2.889.003.241-.048.33-.308.327-1.05-.016-2.1-.007-3.151-.006-.133 0-.24.002-.322-.153-1.605-3.025-3.223-6.042-4.822-9.07-.322-.609-.577-1.253-.863-1.88l.092 11.102h-.524c-.807 0-1.614-.011-2.42.007-.27.006-.345-.073-.344-.348.008-4.7.006-9.4.006-14.099 0-.267.009-.534-.004-.8zm16.081.01c-.002-.211.055-.276.269-.275 3.732.006 7.465.006 11.197 0 .227-.001.288.07.285.291-.01.82-.011 1.639 0 2.459.003.223-.06.293-.286.29-1.172-.01-2.344-.005-3.517-.005h-.338v12.445h-3.533V11.286h-.322c-1.153 0-2.307-.007-3.46.006-.24.003-.299-.074-.295-.307.013-.82.011-1.64 0-2.459zm-38.78 23.392h59.248V16.092c0-8.74-6.98-15.826-15.592-15.826H.13v15.826c0 8.74 6.98 15.826 15.591 15.826z"/><path id="c" d="M91.923 35.565c-.778 0-1.22.064-1.45.108v4.008h1.261c1.598 0 2.544-.819 2.544-2.09 0-1.337-.883-2.005-2.355-2.026zm3.028 5.323v.065c.988.409 1.535 1.379 1.892 2.715.442 1.638.884 3.534 1.157 4.095h-3.28c-.232-.41-.568-1.595-.988-3.384-.379-1.81-.989-2.306-2.292-2.327h-.968v5.71h-3.175v-14.33c1.03-.173 2.566-.303 4.269-.303 2.103 0 3.574.324 4.584 1.143.84.69 1.303 1.702 1.303 3.038 0 1.854-1.282 3.125-2.502 3.578zm-9.84 4.18v2.695H76.07V33.237h8.748v2.694h-5.53v3.017H84.5v2.672h-5.214v3.449h5.824zm-10.345 2.695h-3.743l-3.469-6.272-1.22 1.53v4.742H63.16V33.237h3.174v6.422h.064c.315-.56.651-1.077.967-1.594l3.217-4.828h3.932l-4.69 6.185 4.942 8.34zM54.245 35.608c-2.166 0-3.428 2.112-3.428 4.935 0 2.845 1.304 4.85 3.449 4.85 2.165 0 3.406-2.113 3.406-4.936 0-2.608-1.22-4.85-3.427-4.85zM54.098 48c-4.206 0-6.666-3.254-6.666-7.392 0-4.354 2.713-7.608 6.897-7.608 4.352 0 6.728 3.34 6.728 7.35 0 4.762-2.817 7.65-6.96 7.65zM40.325 35.565c-.777 0-1.219.064-1.45.108v4.008h1.261c1.598 0 2.545-.819 2.545-2.09 0-1.337-.884-2.005-2.356-2.026zm3.028 5.323v.065c.988.409 1.535 1.379 1.893 2.715.441 1.638.883 3.534 1.156 4.095h-3.28c-.231-.41-.568-1.595-.988-3.384-.379-1.81-.988-2.306-2.292-2.327h-.967v5.71H35.7v-14.33c1.03-.173 2.565-.303 4.268-.303 2.103 0 3.575.324 4.584 1.143.84.69 1.303 1.702 1.303 3.038 0 1.854-1.282 3.125-2.502 3.578zm-16.084.452h-1.094v4.095c.316.043.694.043 1.24.043 1.451 0 2.734-.56 2.734-2.09 0-1.466-1.283-2.048-2.88-2.048zm.273-5.819c-.694 0-1.093.044-1.367.087v3.383h1.051c1.683 0 2.587-.71 2.587-1.788 0-1.1-.82-1.682-2.271-1.682zm3.154 4.375v.043c1.619.453 2.818 1.703 2.818 3.578 0 1.315-.59 2.35-1.472 3.082-1.03.84-2.755 1.315-5.573 1.315-1.576 0-2.754-.108-3.469-.216V33.431c.841-.172 2.544-.302 4.142-.302 1.956 0 3.154.194 4.185.82.988.538 1.703 1.53 1.703 2.844 0 1.293-.736 2.5-2.334 3.103z"/><linearGradient id="d" x1="50%" x2="50%" y1="0%" y2="100%"><stop offset="0%" stop-color="#4FD5D8"/><stop offset="100%" stop-color="#0EA7AE"/></linearGradient></defs><g fill="none" fill-rule="evenodd"><rect width="600" height="240" fill="#F2F2F2" fill-rule="nonzero" rx="5"/><path stroke="#35BBC2" stroke-linecap="round" stroke-width="2" d="M103 175.54V192a6 6 0 0 0 6 6h185a6 6 0 0 0 6-6v-31m197-93.54V51a6 6 0 0 0-6-6H306a6 6 0 0 0-6 6v31"/><g transform="translate(200 80)"><rect width="199" height="79" x=".5" y=".5" fill="#FFF" fill-rule="nonzero" stroke="#F2F2F2" rx="5"/><rect width="106" height="9" x="62" y="14" fill="#D0D0D0" fill-opacity=".616" fill-rule="nonzero" rx="4.5"/><text fill="#999" font-family="HelveticaNeue, Helvetica Neue" font-size="16" opacity=".364"><tspan x="13" y="22">&lt; &gt;</tspan></text><text fill="#999" font-family="HelveticaNeue, Helvetica Neue" font-size="16" opacity=".364"><tspan x="108" y="41">&lt; &gt;</tspan></text><text fill="#999" font-family="HelveticaNeue, Helvetica Neue" font-size="16" opacity=".364"><tspan x="13" y="65">&lt;/ &gt;</tspan></text><rect width="89" height="9" x="13" y="32" fill="#D0D0D0" fill-opacity=".616" fill-rule="nonzero" rx="4.5"/><rect width="20" height="9" x="30" y="56" fill="#0EA7AE" fill-opacity=".19" fill-rule="nonzero" rx="4.5"/><rect width="20" height="9" x="121" y="32" fill="#0EA7AE" fill-opacity=".19" fill-rule="nonzero" rx="4.5"/><rect width="20" height="9" x="26" y="13" fill="#0EA7AE" fill-opacity=".19" fill-rule="nonzero" rx="4.5"/></g><g transform="translate(43 60)"><rect width="119" height="119" x=".5" y=".5" fill="#FFF" fill-rule="nonzero" stroke="#F2F2F2" rx="5"/><g transform="translate(23 55)"><mask id="b" fill="#fff"><use xlink:href="#a"/></mask><use fill="#20A6AC" xlink:href="#a"/><g fill="#0EA7AE" fill-rule="nonzero" mask="url(#b)"><path d="M.129.338h75v31h-75z"/></g></g><use fill="#383737" xlink:href="#c"/></g><g transform="translate(437 60)"><rect width="119" height="119" x=".5" y=".5" fill="#FFF" fill-rule="nonzero" stroke="#F2F2F2" rx="5"/><path fill="url(#d)" d="M8.957 18.192H19.43L14.28 3.734h-.086L8.957 18.192zM12.03 0h4.543l12.073 31h-4.543l-3.375-9.335H7.659L4.197 31H0L12.03 0zm23.756 14.849h8.049c2.337.029 4.046-.449 5.128-1.433 1.082-.984 1.623-2.402 1.623-4.255 0-1.852-.541-3.263-1.623-4.233-1.082-.97-2.791-1.455-5.128-1.455h-8.049V14.85zM31.676 0H45.22c3.115 0 5.474.803 7.075 2.41 1.6 1.606 2.401 3.857 2.401 6.751 0 2.895-.8 5.152-2.401 6.773-1.601 1.621-3.96 2.417-7.075 2.388h-9.434V31h-4.11V0zm28.213 0H64v31h-4.11V0z" transform="translate(28 45)"/></g></g></svg>