<svg xmlns="http://www.w3.org/2000/svg" width="409" height="459"><g fill="none" fill-rule="evenodd"><g fill-rule="nonzero" transform="translate(168 125)"><rect width="233.1" height="323.1" x=".45" y=".45" fill="#FFF" stroke="#F2F2F2" stroke-width=".9" rx="4.5"/><rect width="18" height="14.4" x="198" y="18" fill="#D0D0D0" rx="2.7"/><rect width="30.6" height="5.4" x="160.2" y="18" fill="#383737" fill-opacity=".19" rx="2.7"/><rect width="43.2" height="5.4" x="147.6" y="27" fill="#383737" fill-opacity=".19" rx="2.7"/><rect width="144" height="7.2" x="36" y="72" fill="#383737" fill-opacity=".12" rx="3.6"/><rect width="54" height="7.2" x="27" y="21.6" fill="#383737" fill-opacity=".28" rx="3.6"/><rect width="144" height="7.2" x="36" y="144" fill="#383737" fill-opacity=".12" rx="3.6"/><rect width="96.3" height="7.2" x="27" y="201.6" fill="#383737" fill-opacity=".12" rx="3.6"/><rect width="181.8" height="7.2" x="27" y="86.4" fill="#383737" fill-opacity=".12" rx="3.6"/><rect width="181.8" height="7.2" x="27" y="158.4" fill="#383737" fill-opacity=".12" rx="3.6"/><rect width="183.6" height="7.2" x="27" y="216" fill="#383737" fill-opacity=".12" rx="3.6"/><rect width="181.8" height="7.2" x="27" y="100.8" fill="#383737" fill-opacity=".12" rx="3.6"/><rect width="181.8" height="7.2" x="27" y="172.8" fill="#383737" fill-opacity=".12" rx="3.6"/><rect width="183.6" height="7.2" x="27" y="230.4" fill="#383737" fill-opacity=".12" rx="3.6"/><rect width="144" height="7.2" x="27" y="115.2" fill="#383737" fill-opacity=".12" rx="3.6"/><rect width="60.3" height="7.2" x="27" y="244.8" fill="#383737" fill-opacity=".12" rx="3.6"/><rect width="37.8" height="7.2" x="27" y="289.8" fill="#383737" fill-opacity=".28" rx="3.6"/><rect width="37.8" height="7.2" x="171" y="289.8" fill="#383737" fill-opacity=".28" rx="3.6"/></g><g transform="translate(16 10)"><rect width="259" height="359" x=".5" y=".5" fill="#FFF" fill-rule="nonzero" stroke="#F2F2F2" rx="5"/><rect width="45" height="12" fill="#0EA7AE" fill-rule="nonzero" rx="6" transform="translate(187 28)"/><rect width="82" height="12" x="31" y="28" fill="#383737" fill-opacity=".28" fill-rule="nonzero" rx="6"/><path fill="#F2F2F2" fill-rule="nonzero" d="M63 69h2v201h-2z"/><path fill="#84E0E5" fill-rule="nonzero" d="M63 169h2v151h-2z"/><g fill-rule="nonzero" transform="translate(31 68)"><rect width="16" height="10" y="1" fill="#383737" fill-opacity=".28" rx="1"/><rect width="9" height="9" x="28.5" y="1.5" fill="#0EA7AE" stroke="#F2F2F2" stroke-width="3" rx="4.5"/><rect width="83" height="8" x="50" y="2" fill="#383737" fill-opacity=".26" rx="4"/></g><g fill-rule="nonzero" transform="translate(31 100)"><rect width="16" height="10" y="1" fill="#383737" fill-opacity=".28" rx="1"/><rect width="9" height="9" x="28.5" y="1.5" fill="#0EA7AE" stroke="#F2F2F2" stroke-width="3" rx="4.5"/><rect width="115" height="8" x="50" y="2" fill="#383737" fill-opacity=".26" rx="4"/></g><g fill-rule="nonzero" transform="translate(31 132)"><rect width="16" height="10" y="1" fill="#383737" fill-opacity=".28" rx="1"/><rect width="9" height="9" x="28.5" y="1.5" fill="#0EA7AE" stroke="#F2F2F2" stroke-width="3" rx="4.5"/><rect width="122" height="8" x="50" y="2" fill="#383737" fill-opacity=".26" rx="4"/></g><g fill-rule="nonzero" transform="translate(31 164)"><rect width="16" height="10" y="1" fill="#383737" fill-opacity=".12" rx="1"/><rect width="12" height="12" x="27" fill="#0EA7AE" rx="6"/><rect width="95" height="8" x="50" y="2" fill="#383737" fill-opacity=".12" rx="4"/></g><g fill-rule="nonzero" transform="translate(31 228)"><rect width="16" height="10" y="1" fill="#383737" fill-opacity=".12" rx="1"/><rect width="12" height="12" x="27" fill="#0EA7AE" rx="6"/><rect width="104" height="8" x="50" y="2" fill="#383737" fill-opacity=".12" rx="4"/></g><g fill-rule="nonzero" transform="translate(31 257.304)"><rect width="16" height="10" y="1" fill="#383737" fill-opacity=".12" rx="1"/><rect width="12" height="12" x="27" fill="#0EA7AE" rx="6"/><rect width="107" height="8" x="50" y="2" fill="#383737" fill-opacity=".12" rx="4"/></g><g fill-rule="nonzero" transform="translate(31 286.304)"><rect width="16" height="10" y="1" fill="#383737" fill-opacity=".12" rx="1"/><rect width="12" height="12" x="27" fill="#0EA7AE" rx="6"/><rect width="120" height="8" x="50" y="2" fill="#383737" fill-opacity=".12" rx="4"/></g><g fill-rule="nonzero" transform="translate(31 230.304)"><rect width="16" height="10" y="86" fill="#383737" fill-opacity=".12" rx="1"/><rect width="12" height="12" x="27" y="85" fill="#0EA7AE" rx="6"/><rect width="109" height="8" x="50" y="87" fill="#383737" fill-opacity=".12" rx="4"/><rect width="30" height="8" x="172" y="87" fill="#383737" fill-opacity=".28" rx="4"/><rect width="30" height="8" x="172" fill="#383737" fill-opacity=".28" rx="4"/></g><g fill-rule="nonzero" transform="translate(31 196)"><rect width="16" height="10" y="1" fill="#383737" fill-opacity=".12" rx="1"/><rect width="12" height="12" x="27" fill="#0EA7AE" rx="6"/><rect width="122" height="8" x="50" y="2" fill="#383737" fill-opacity=".12" rx="4"/></g><path fill="#FFF" d="M67.92 232.231a.525.525 0 0 1-.143.36l-4.395 4.564a.486.486 0 0 1-.347.149.486.486 0 0 1-.347-.149l-2.545-2.642a.525.525 0 0 1 0-.722l.695-.722a.486.486 0 0 1 .347-.148c.128 0 .256.053.348.148l1.502 1.566 3.352-3.486a.486.486 0 0 1 .347-.149c.128 0 .256.053.348.149l.695.721a.525.525 0 0 1 .143.361zm0 29a.525.525 0 0 1-.143.36l-4.395 4.564a.486.486 0 0 1-.347.149.486.486 0 0 1-.347-.149l-2.545-2.642a.525.525 0 0 1 0-.722l.695-.722a.486.486 0 0 1 .347-.148c.128 0 .256.053.348.148l1.502 1.566 3.352-3.486a.486.486 0 0 1 .347-.149c.128 0 .256.053.348.149l.695.721a.525.525 0 0 1 .143.361zm0 29.304a.525.525 0 0 1-.143.36l-4.395 4.564a.486.486 0 0 1-.347.148.486.486 0 0 1-.347-.148l-2.545-2.643a.525.525 0 0 1 0-.721l.695-.722a.486.486 0 0 1 .347-.149c.128 0 .256.053.348.149l1.502 1.565 3.352-3.486a.486.486 0 0 1 .347-.148c.128 0 .256.053.348.148l.695.722a.525.525 0 0 1 .143.36zm0 29a.525.525 0 0 1-.143.36l-4.395 4.564a.486.486 0 0 1-.347.148.486.486 0 0 1-.347-.148l-2.545-2.643a.525.525 0 0 1 0-.721l.695-.722a.486.486 0 0 1 .347-.149c.128 0 .256.053.348.149l1.502 1.565 3.352-3.486a.486.486 0 0 1 .347-.148c.128 0 .256.053.348.148l.695.722a.525.525 0 0 1 .143.36zm0-119.304a.525.525 0 0 1-.143.36l-4.395 4.564a.486.486 0 0 1-.347.149.486.486 0 0 1-.347-.149l-2.545-2.642a.525.525 0 0 1 0-.722l.695-.722a.486.486 0 0 1 .347-.148c.128 0 .256.053.348.148l1.502 1.566 3.352-3.486a.486.486 0 0 1 .347-.149c.128 0 .256.053.348.149l.695.721a.525.525 0 0 1 .143.361zm0-32a.525.525 0 0 1-.143.36l-4.395 4.564a.486.486 0 0 1-.347.149.486.486 0 0 1-.347-.149l-2.545-2.642a.525.525 0 0 1 0-.722l.695-.722a.486.486 0 0 1 .347-.148c.128 0 .256.053.348.148l1.502 1.566 3.352-3.486a.486.486 0 0 1 .347-.149c.128 0 .256.053.348.149l.695.721a.525.525 0 0 1 .143.361z"/></g></g></svg>