<svg xmlns="http://www.w3.org/2000/svg" width="418" height="357"><defs><radialGradient id="a" cx="170.278%" cy="15.281%" r="646.47%" fx="170.278%" fy="15.281%" gradientTransform="scale(.36498 1) rotate(30 3.184 5.681)"><stop offset="0%" stop-color="#4387FD"/><stop offset="65%" stop-color="#3078F0"/><stop offset="90.99%" stop-color="#2B72EA"/><stop offset="100%" stop-color="#286EE6"/></radialGradient><radialGradient id="b" cx="186.109%" cy="108.165%" r="345.036%" fx="186.109%" fy="108.165%" gradientTransform="scale(.83778 1) rotate(30 2.041 1.754)"><stop offset="0%" stop-color="#FFD24D"/><stop offset="100%" stop-color="#F6C338"/></radialGradient></defs><g fill="none" fill-rule="evenodd"><g transform="translate(96 59)"><rect width="226.1" height="226.1" x=".95" y=".95" fill="#FFF" fill-rule="nonzero" stroke="#F2F2F2" stroke-width="1.9" rx="9.5"/><path fill="#F0F0F1" d="M60.8 140.09l53.635 25.572 53.633-25.571-53.633-25.573z"/><path fill="#E5E6E7" d="M60.8 148.956l53.635 25.573v-8.866L60.8 140.09z"/><path fill="#D0D2D3" d="M114.435 165.662v8.867l53.634-25.573v-8.865z"/><path fill="#F0F0F1" d="M60.8 108.779l53.635 25.571 53.633-25.571-53.633-25.573z"/><path fill="#F0F0F1" d="M60.8 124.434l53.635 25.573 53.633-25.573-53.633-25.572z"/><path fill="#E5E6E7" d="M60.8 133.301l53.635 25.571v-8.866L60.8 124.434z"/><path fill="#D0D2D3" d="M114.435 150.007v8.866l53.634-25.571v-8.868z"/><path fill="#E5E6E7" d="M60.8 117.644l53.635 25.573v-8.867L60.8 108.779z"/><path fill="#D0D2D3" d="M114.435 134.35v8.868l53.634-25.573v-8.866z"/><path fill="#E5E6E7" d="M114.435 53.2L60.8 78.772l53.635 25.574 53.634-25.574z"/><path fill="#59D7DD" d="M114.435 53.2L60.8 78.772l53.635 25.574 53.634-25.574z"/><path fill="#2BC6CE" d="M60.8 87.64l53.635 25.57v-8.864L60.8 78.772z"/><path fill="#0EA7AE" d="M114.435 104.345v8.866l53.634-25.572v-8.866z"/></g><g fill-rule="nonzero" transform="translate(282 10)"><rect width="119" height="119" x=".5" y=".5" fill="#FFF" stroke="#F2F2F2" rx="5"/><path fill="#007EE5" d="M47.442 32L30 43.34l12.14 9.8 17.44-10.92L47.441 32zM30 62.66l17.442 11.48 12.14-10.22L42.14 53.14 30 62.66zm29.581 1.26l12.28 10.22L89.162 62.8l-12-9.66L59.58 63.92zm29.582-20.58L71.86 32 59.581 42.22l17.582 10.92 12-9.8zM59.72 66.16L47.44 76.38l-5.162-3.5v3.92L59.72 87.3l17.442-10.5v-3.92l-5.303 3.5-12.14-10.22z"/></g><g transform="translate(16 215)"><rect width="119" height="119" x=".5" y=".5" fill="#FFF" fill-rule="nonzero" stroke="#F2F2F2" rx="5"/><path fill="#0DA960" d="M40.446 85.971L30 67.885 49.554 34 60 52.086z"/><path fill="url(#a)" d="M10.446 51.971l10.446-18.086H60L49.554 51.97z" transform="translate(30 34)"/><path fill="url(#b)" d="M60 33.885H39.108L19.554 0h20.892z" transform="translate(30 34)"/><path fill="#2D6FDD" d="M60 67.885h-9.108l4.532-7.9-14.978 25.986z"/><path fill="#E5B93C" d="M69.108 67.885H90l-25.424-7.9z"/><path fill="#0C9B57" d="M55.424 59.986l4.576-7.9L49.554 34z"/></g></g></svg>