<svg xmlns="http://www.w3.org/2000/svg" width="410" height="357"><defs><filter id="a" width="100%" height="100%" x="0%" y="0%" filterUnits="objectBoundingBox"><feGaussianBlur in="SourceGraphic"/></filter><filter id="b" width="100%" height="100%" x="0%" y="0%" filterUnits="objectBoundingBox"><feGaussianBlur in="SourceGraphic"/></filter><filter id="c" width="100%" height="100%" x="0%" y="0%" filterUnits="objectBoundingBox"><feGaussianBlur in="SourceGraphic"/></filter><filter id="d" width="100%" height="100%" x="0%" y="0%" filterUnits="objectBoundingBox"><feGaussianBlur in="SourceGraphic"/></filter></defs><g fill="none" fill-rule="evenodd"><g transform="translate(7 156)"><rect width="385.25" height="39.724" x=".375" y=".375" fill="#FFF" fill-rule="nonzero" stroke="#F2F2F2" stroke-width=".75" filter="url(#a)" rx="2.249"/><rect width="67.456" height="8.994" x="151.777" y="14.99" fill="#F2F2F2" fill-rule="nonzero" rx="4.497"/><rect width="33.728" height="8.994" x="236.847" y="14.99" fill="#F2F2F2" fill-rule="nonzero" rx="4.497"/><rect width="33.728" height="8.994" x="293.435" y="14.99" fill="#F2F2F2" fill-rule="nonzero" rx="4.497"/><rect width="16.489" height="8.994" x="350.023" y="14.99" fill="#F2F2F2" fill-rule="nonzero" rx="4.497"/><rect width="83.196" height="8.994" x="39.724" y="14.99" fill="#0EA7AE" fill-opacity=".28" fill-rule="nonzero" rx="4.497"/><text fill="#0EA7AE" font-family="FontAwesome" font-size="17.239"><tspan x="11.243" y="25.493"></tspan></text></g><g transform="translate(7 206)"><rect width="385.25" height="39.724" x=".375" y=".375" fill="#FFF" fill-rule="nonzero" stroke="#F2F2F2" stroke-width=".75" filter="url(#b)" rx="2.249"/><rect width="67.456" height="8.994" x="151.777" y="14.99" fill="#F2F2F2" fill-rule="nonzero" rx="4.497"/><rect width="33.728" height="8.994" x="236.847" y="14.99" fill="#F2F2F2" fill-rule="nonzero" rx="4.497"/><rect width="33.728" height="8.994" x="293.435" y="14.99" fill="#F2F2F2" fill-rule="nonzero" rx="4.497"/><rect width="16.489" height="8.994" x="350.023" y="14.99" fill="#F2F2F2" fill-rule="nonzero" rx="4.497"/><rect width="83.196" height="8.994" x="39.724" y="14.99" fill="#0EA7AE" fill-opacity=".28" fill-rule="nonzero" rx="4.497"/><text fill="#0EA7AE" font-family="FontAwesome" font-size="17.239"><tspan x="11.243" y="25.493"></tspan></text></g><g transform="translate(7 256)"><rect width="385.25" height="39.724" x=".375" y=".375" fill="#FFF" fill-rule="nonzero" stroke="#F2F2F2" stroke-width=".75" filter="url(#c)" rx="2.249"/><rect width="67.456" height="8.994" x="151.777" y="14.99" fill="#F2F2F2" fill-rule="nonzero" rx="4.497"/><rect width="33.728" height="8.994" x="236.847" y="14.99" fill="#F2F2F2" fill-rule="nonzero" rx="4.497"/><rect width="33.728" height="8.994" x="293.435" y="14.99" fill="#F2F2F2" fill-rule="nonzero" rx="4.497"/><rect width="16.489" height="8.994" x="350.023" y="14.99" fill="#F2F2F2" fill-rule="nonzero" rx="4.497"/><rect width="83.196" height="8.994" x="39.724" y="14.99" fill="#0EA7AE" fill-opacity=".28" fill-rule="nonzero" rx="4.497"/><text fill="#0EA7AE" font-family="FontAwesome" font-size="17.239"><tspan x="11.243" y="25.493"></tspan></text></g><g transform="translate(7 306)"><rect width="385.25" height="39.724" x=".375" y=".375" fill="#FFF" fill-rule="nonzero" stroke="#F2F2F2" stroke-width=".75" filter="url(#d)" rx="2.249"/><rect width="67.456" height="8.994" x="151.777" y="14.99" fill="#F2F2F2" fill-rule="nonzero" rx="4.497"/><rect width="33.728" height="8.994" x="236.847" y="14.99" fill="#F2F2F2" fill-rule="nonzero" rx="4.497"/><rect width="33.728" height="8.994" x="293.435" y="14.99" fill="#F2F2F2" fill-rule="nonzero" rx="4.497"/><rect width="16.489" height="8.994" x="350.023" y="14.99" fill="#F2F2F2" fill-rule="nonzero" rx="4.497"/><rect width="83.196" height="8.994" x="39.724" y="14.99" fill="#0EA7AE" fill-opacity=".28" fill-rule="nonzero" rx="4.497"/><text fill="#0EA7AE" font-family="FontAwesome" font-size="17.239"><tspan x="11.243" y="25.493"></tspan></text></g><g transform="translate(115 11)"><path fill="#FFF" stroke="#F2F2F2" d="M149.196 124.676l-8.763 8.743a2 2 0 0 1-2.825 0l-8.762-8.743H6a6 6 0 0 1-6-6V6a6 6 0 0 1 6-6h266a6 6 0 0 1 6 6v112.676a6 6 0 0 1-6 6H149.196z"/><rect width="147" height="16" x="67" y="82" fill="#F2F2F2" fill-rule="nonzero" rx="8"/><rect width="117" height="16" x="67" y="58" fill="#F2F2F2" fill-rule="nonzero" rx="8"/><rect width="179" height="16" x="67" y="24" fill="#0EA7AE" fill-rule="nonzero" opacity=".155" rx="8"/><rect width="34" height="34" x="18" y="16" fill="#0EA7AE" fill-opacity=".19" fill-rule="nonzero" rx="17"/><text fill="#0EA7AE" font-family="HelveticaNeue-Bold, Helvetica Neue" font-size="19" font-weight="bold" letter-spacing="-.534"><tspan x="30" y="40">$</tspan></text></g></g></svg>