<svg xmlns="http://www.w3.org/2000/svg" xmlns:xlink="http://www.w3.org/1999/xlink" width="420" height="260"><defs><rect id="c" width="360" height="200" rx="3"/><filter id="a" width="103.3%" height="106%" x="-1.7%" y="-2%" filterUnits="objectBoundingBox"><feGaussianBlur in="SourceGraphic"/></filter><filter id="b" width="105.6%" height="110%" x="-2.8%" y="-4%" filterUnits="objectBoundingBox"><feOffset dy="2" in="SourceAlpha" result="shadowOffsetOuter1"/><feGaussianBlur in="shadowOffsetOuter1" result="shadowBlurOuter1" stdDeviation="3"/><feColorMatrix in="shadowBlurOuter1" values="0 0 0 0 0 0 0 0 0 0 0 0 0 0 0 0 0 0 0.1 0"/></filter></defs><g fill="none" fill-rule="evenodd"><path fill="#FFF" fill-rule="nonzero" d="M0 0h420v260H0z"/><rect width="260" height="260" x="160" fill="#F2F2F2" fill-rule="nonzero" rx="6"/><g transform="translate(30 31)"><g fill-rule="nonzero" filter="url(#a)"><use fill="#000" filter="url(#b)" xlink:href="#c"/><use fill="#FFF" xlink:href="#c"/></g><g fill-rule="nonzero" transform="translate(177 36)"><rect width="61" height="4" x="16" y="1" fill="#35BBC2" fill-opacity=".38" rx="2"/><rect width="27" height="3" x="16" y="7" fill="#D0D0D0" rx="1.5"/><rect width="27" height="3" x="146" y="2" fill="#D0D0D0" rx="1.5"/><rect width="16" height="3" x="157" y="7" fill="#E7E7E7" rx="1.5"/><rect width="12" height="12" fill="#F2F2F2" rx="2"/></g><g fill-rule="nonzero" transform="translate(177 56)"><rect width="85" height="4" x="16" y="1" fill="#35BBC2" fill-opacity=".38" rx="2"/><rect width="27" height="3" x="16" y="7" fill="#D0D0D0" rx="1.5"/><rect width="27" height="3" x="146" y="2" fill="#D0D0D0" rx="1.5"/><rect width="16" height="3" x="157" y="7" fill="#E7E7E7" rx="1.5"/><rect width="12" height="12" fill="#F2F2F2" rx="2"/></g><g fill-rule="nonzero" transform="translate(177 76)"><rect width="83" height="4" x="16" y="1" fill="#35BBC2" fill-opacity=".38" rx="2"/><rect width="27" height="3" x="16" y="7" fill="#D0D0D0" rx="1.5"/><rect width="27" height="3" x="146" y="2" fill="#D0D0D0" rx="1.5"/><rect width="16" height="3" x="157" y="7" fill="#E7E7E7" rx="1.5"/><rect width="12" height="12" fill="#F2F2F2" rx="2"/></g><g fill-rule="nonzero" transform="translate(177 96)"><rect width="66" height="4" x="16" y="1" fill="#35BBC2" fill-opacity=".38" rx="2"/><rect width="27" height="3" x="16" y="7" fill="#D0D0D0" rx="1.5"/><rect width="27" height="3" x="146" y="2" fill="#D0D0D0" rx="1.5"/><rect width="16" height="3" x="157" y="7" fill="#E7E7E7" rx="1.5"/><rect width="12" height="12" fill="#F2F2F2" rx="2"/></g><g fill-rule="nonzero" transform="translate(177 116)"><rect width="106" height="4" x="16" y="1" fill="#35BBC2" fill-opacity=".38" rx="2"/><rect width="27" height="3" x="16" y="7" fill="#D0D0D0" rx="1.5"/><rect width="27" height="3" x="146" y="2" fill="#D0D0D0" rx="1.5"/><rect width="16" height="3" x="157" y="7" fill="#E7E7E7" rx="1.5"/><rect width="12" height="12" fill="#F2F2F2" rx="2"/></g><g fill-rule="nonzero" transform="translate(177 136)"><rect width="84" height="4" x="16" y="1" fill="#35BBC2" fill-opacity=".38" rx="2"/><rect width="27" height="3" x="16" y="7" fill="#D0D0D0" rx="1.5"/><rect width="27" height="3" x="146" y="2" fill="#D0D0D0" rx="1.5"/><rect width="16" height="3" x="157" y="7" fill="#E7E7E7" rx="1.5"/><rect width="12" height="12" fill="#F2F2F2" rx="2"/></g><g fill-rule="nonzero" transform="translate(177 156)"><rect width="67" height="4" x="16" y="1" fill="#35BBC2" fill-opacity=".38" rx="2"/><rect width="27" height="3" x="16" y="7" fill="#D0D0D0" rx="1.5"/><rect width="27" height="3" x="146" y="2" fill="#D0D0D0" rx="1.5"/><rect width="16" height="3" x="157" y="7" fill="#E7E7E7" rx="1.5"/><rect width="12" height="12" fill="#F2F2F2" rx="2"/></g><g fill-rule="nonzero" transform="translate(177 176)"><rect width="102" height="4" x="16" y="1" fill="#35BBC2" fill-opacity=".38" rx="2"/><rect width="27" height="3" x="16" y="7" fill="#D0D0D0" rx="1.5"/><rect width="27" height="3" x="146" y="2" fill="#D0D0D0" rx="1.5"/><rect width="16" height="3" x="157" y="7" fill="#E7E7E7" rx="1.5"/><rect width="12" height="12" fill="#F2F2F2" rx="2"/></g><path fill="#252525" fill-rule="nonzero" d="M3 0h56v200H3a3 3 0 0 1-3-3V3a3 3 0 0 1 3-3z"/><path fill="#141414" fill-rule="nonzero" d="M0 35h59v46H0z"/><path fill="#20A6AC" d="M21.236 25.469h23.7v-6.235A6.236 6.236 0 0 0 38.699 13H15v6.234a6.236 6.236 0 0 0 6.236 6.235z"/><path fill="#35BBC2" fill-rule="nonzero" d="M59 0h105v200H59z"/><rect width="72" height="6" x="177" y="13" fill="#727272" fill-rule="nonzero" rx="3"/><rect width="40" height="10" x="310" y="11" fill="#0EA7AE" fill-rule="nonzero" rx="2"/><rect width="35" height="4" x="9" y="88" fill="#35BBC2" fill-rule="nonzero" rx="2"/><rect width="37" height="4" x="9" y="128" fill="#35BBC2" fill-rule="nonzero" rx="2"/><rect width="21" height="4" x="14" y="97" fill="#999" fill-rule="nonzero" rx="2"/><rect width="21" height="4" x="14" y="137" fill="#999" fill-rule="nonzero" rx="2"/><rect width="30" height="4" x="14" y="105" fill="#999" fill-rule="nonzero" rx="2"/><rect width="23" height="4" x="14" y="145" fill="#999" fill-rule="nonzero" rx="2"/><rect width="26" height="4" x="14" y="113" fill="#999" fill-rule="nonzero" rx="2"/><rect width="26" height="4" x="14" y="153" fill="#999" fill-rule="nonzero" rx="2"/><rect width="25" height="4" x="9" y="168" fill="#35BBC2" fill-rule="nonzero" rx="2"/><rect width="21" height="4" x="14" y="177" fill="#999" fill-rule="nonzero" rx="2"/><rect width="11" height="4" x="14" y="185" fill="#999" fill-rule="nonzero" rx="2"/><rect width="36" height="5" x="11" y="43" fill="#383737" fill-rule="nonzero" rx="2.5"/><rect width="21" height="5" x="11" y="53" fill="#383737" fill-rule="nonzero" rx="2.5"/><rect width="31" height="5" x="11" y="67.531" fill="#383737" fill-rule="nonzero" rx="2.5"/><g fill-rule="nonzero"><path fill="#122223" fill-opacity=".11" d="M67 0l25.73 121.8v78.129H126V121.5L151.73 0H67z"/><path fill="#122223" fill-opacity=".11" d="M84.5 82.5H164v-45H74.927z"/><path fill="#FFF" d="M164 54.343L169.657 60 164 65.657 158.343 60z"/><path stroke="#FFF" stroke-dasharray="2,2" stroke-linecap="round" d="M67 0l25.73 121.8v78.129M151.73 0L126 121.8v78.129M93 121.5h33.5m-41.25-39h49m-59-45h69M93 142h33.5M93 163h33.5M93 184h33.5"/></g><rect width="34" height="6" x="93" y="45" fill="#59E4EB" fill-rule="nonzero" rx="3"/><rect width="18" height="6" x="101" y="90" fill="#59E4EB" fill-rule="nonzero" rx="3"/><rect width="34" height="6" x="93" y="13" fill="#59E4EB" fill-rule="nonzero" rx="3"/></g></g></svg>