<svg xmlns="http://www.w3.org/2000/svg" width="409" height="459"><g fill="none" fill-rule="evenodd"><g transform="translate(7 125)"><rect width="233.1" height="323.1" x=".45" y=".45" fill="#FFF" fill-rule="nonzero" stroke="#F2F2F2" stroke-width=".9" rx="4.5"/><path fill="#0EA7AE" fill-opacity=".1" fill-rule="nonzero" d="M72 32.4h139.5v17.1H72z"/><path stroke="#383737" stroke-linecap="square" stroke-width=".9" d="M22.5 90.45h189" opacity=".349"/><path stroke="#383737" stroke-linecap="square" stroke-width=".9" d="M22.5 111.15h189" opacity=".153"/><rect width="30.6" height="5.4" x="126" y="78.3" fill="#383737" fill-opacity=".19" fill-rule="nonzero" rx="2.7"/><rect width="36" height="5.4" x="174.6" y="78.3" fill="#383737" fill-opacity=".19" fill-rule="nonzero" rx="2.7"/><rect width="36" height="5.4" x="22.5" y="294.3" fill="#383737" fill-opacity=".19" fill-rule="nonzero" rx="2.7"/><rect width="43.2" height="5.4" x="73.8" y="78.3" fill="#383737" fill-opacity=".19" fill-rule="nonzero" rx="2.7"/><rect width="41.4" height="7.2" x="22.5" y="97.2" fill="#383737" fill-opacity=".12" fill-rule="nonzero" rx="3.6"/><rect width="41.4" height="7.2" x="22.5" y="117.9" fill="#383737" fill-opacity=".12" fill-rule="nonzero" rx="3.6"/><rect width="21.6" height="7.2" x="73.8" y="97.2" fill="#383737" fill-opacity=".12" fill-rule="nonzero" rx="3.6"/><rect width="21.6" height="7.2" x="73.8" y="117.9" fill="#383737" fill-opacity=".12" fill-rule="nonzero" rx="3.6"/><rect width="14.4" height="7.2" x="126" y="97.2" fill="#383737" fill-opacity=".12" fill-rule="nonzero" rx="3.6"/><rect width="14.4" height="7.2" x="126" y="117.9" fill="#383737" fill-opacity=".12" fill-rule="nonzero" rx="3.6"/><rect width="14.4" height="7.2" x="174.6" y="97.2" fill="#383737" fill-opacity=".12" fill-rule="nonzero" rx="3.6"/><rect width="14.4" height="7.2" x="174.6" y="117.9" fill="#383737" fill-opacity=".12" fill-rule="nonzero" rx="3.6"/><path stroke="#383737" stroke-linecap="square" stroke-width=".9" d="M22.5 131.85h189" opacity=".153"/><rect width="41.4" height="7.2" x="22.5" y="138.6" fill="#383737" fill-opacity=".12" fill-rule="nonzero" rx="3.6"/><rect width="21.6" height="7.2" x="73.8" y="138.6" fill="#383737" fill-opacity=".12" fill-rule="nonzero" rx="3.6"/><rect width="14.4" height="7.2" x="126" y="138.6" fill="#383737" fill-opacity=".12" fill-rule="nonzero" rx="3.6"/><rect width="14.4" height="7.2" x="174.6" y="138.6" fill="#383737" fill-opacity=".12" fill-rule="nonzero" rx="3.6"/><path stroke="#383737" stroke-linecap="square" stroke-width=".9" d="M22.5 152.55h189" opacity=".153"/><rect width="41.4" height="7.2" x="22.5" y="159.3" fill="#383737" fill-opacity=".12" fill-rule="nonzero" rx="3.6"/><rect width="21.6" height="7.2" x="73.8" y="159.3" fill="#383737" fill-opacity=".12" fill-rule="nonzero" rx="3.6"/><rect width="14.4" height="7.2" x="126" y="159.3" fill="#383737" fill-opacity=".12" fill-rule="nonzero" rx="3.6"/><rect width="14.4" height="7.2" x="174.6" y="159.3" fill="#383737" fill-opacity=".12" fill-rule="nonzero" rx="3.6"/><path stroke="#383737" stroke-linecap="square" stroke-width=".9" d="M22.5 173.25h189" opacity=".153"/><rect width="41.4" height="7.2" x="22.5" y="180" fill="#383737" fill-opacity=".12" fill-rule="nonzero" rx="3.6"/><rect width="21.6" height="7.2" x="73.8" y="180" fill="#383737" fill-opacity=".12" fill-rule="nonzero" rx="3.6"/><rect width="14.4" height="7.2" x="126" y="180" fill="#383737" fill-opacity=".12" fill-rule="nonzero" rx="3.6"/><rect width="14.4" height="7.2" x="174.6" y="180" fill="#383737" fill-opacity=".12" fill-rule="nonzero" rx="3.6"/><path stroke="#383737" stroke-linecap="square" stroke-width=".9" d="M22.5 193.95h189" opacity=".153"/><rect width="41.4" height="7.2" x="22.5" y="200.7" fill="#383737" fill-opacity=".12" fill-rule="nonzero" rx="3.6"/><rect width="21.6" height="7.2" x="73.8" y="200.7" fill="#383737" fill-opacity=".12" fill-rule="nonzero" rx="3.6"/><rect width="14.4" height="7.2" x="126" y="200.7" fill="#383737" fill-opacity=".12" fill-rule="nonzero" rx="3.6"/><rect width="14.4" height="7.2" x="174.6" y="200.7" fill="#383737" fill-opacity=".12" fill-rule="nonzero" rx="3.6"/><path stroke="#383737" stroke-linecap="square" stroke-width=".9" d="M22.5 214.65h189" opacity=".153"/><rect width="41.4" height="7.2" x="22.5" y="221.4" fill="#383737" fill-opacity=".12" fill-rule="nonzero" rx="3.6"/><rect width="21.6" height="7.2" x="73.8" y="221.4" fill="#383737" fill-opacity=".12" fill-rule="nonzero" rx="3.6"/><rect width="14.4" height="7.2" x="126" y="221.4" fill="#383737" fill-opacity=".12" fill-rule="nonzero" rx="3.6"/><rect width="14.4" height="7.2" x="174.6" y="221.4" fill="#383737" fill-opacity=".12" fill-rule="nonzero" rx="3.6"/><path stroke="#383737" stroke-linecap="square" stroke-width=".9" d="M22.5 235.35h189m-189 21.15h189" opacity=".153"/><rect width="41.4" height="7.2" x="22.5" y="242.1" fill="#383737" fill-opacity=".12" fill-rule="nonzero" rx="3.6"/><rect width="21.6" height="7.2" x="73.8" y="242.1" fill="#383737" fill-opacity=".12" fill-rule="nonzero" rx="3.6"/><rect width="14.4" height="7.2" x="126" y="242.1" fill="#383737" fill-opacity=".12" fill-rule="nonzero" rx="3.6"/><rect width="14.4" height="7.2" x="174.6" y="242.1" fill="#383737" fill-opacity=".12" fill-rule="nonzero" rx="3.6"/><rect width="30.6" height="7.2" x="22.5" y="77.4" fill="#383737" fill-opacity=".28" fill-rule="nonzero" rx="3.6"/><rect width="30.6" height="7.2" x="22.5" y="282.6" fill="#383737" fill-opacity=".28" fill-rule="nonzero" rx="3.6"/><rect width="56.7" height="7.2" x="156.6" y="282.6" fill="#383737" fill-opacity=".28" fill-rule="nonzero" rx="3.6"/><text fill="#0EA7AE" font-family="HelveticaNeue-Bold, Helvetica Neue" font-size="21.6" font-weight="bold"><tspan x="22.5" y="48.9">CSV</tspan></text></g><g transform="translate(133 10)"><rect width="259" height="359" x=".5" y=".5" fill="#FFF" fill-rule="nonzero" stroke="#F2F2F2" rx="5"/><path stroke="#383737" stroke-linecap="square" d="M25 100.5h210" opacity=".349"/><path stroke="#383737" stroke-linecap="square" d="M25 123.5h210" opacity=".153"/><rect width="34" height="6" x="140" y="87" fill="#383737" fill-opacity=".19" fill-rule="nonzero" rx="3"/><rect width="40" height="6" x="194" y="87" fill="#383737" fill-opacity=".19" fill-rule="nonzero" rx="3"/><rect width="40" height="6" x="25" y="327" fill="#383737" fill-opacity=".19" fill-rule="nonzero" rx="3"/><rect width="48" height="6" x="82" y="87" fill="#383737" fill-opacity=".19" fill-rule="nonzero" rx="3"/><rect width="46" height="8" x="25" y="108" fill="#383737" fill-opacity=".12" fill-rule="nonzero" rx="4"/><rect width="46" height="8" x="25" y="131" fill="#383737" fill-opacity=".12" fill-rule="nonzero" rx="4"/><rect width="24" height="8" x="82" y="108" fill="#383737" fill-opacity=".12" fill-rule="nonzero" rx="4"/><rect width="24" height="8" x="82" y="131" fill="#383737" fill-opacity=".12" fill-rule="nonzero" rx="4"/><rect width="16" height="8" x="140" y="108" fill="#383737" fill-opacity=".12" fill-rule="nonzero" rx="4"/><rect width="16" height="8" x="140" y="131" fill="#383737" fill-opacity=".12" fill-rule="nonzero" rx="4"/><rect width="16" height="8" x="194" y="108" fill="#383737" fill-opacity=".12" fill-rule="nonzero" rx="4"/><rect width="16" height="8" x="194" y="131" fill="#383737" fill-opacity=".12" fill-rule="nonzero" rx="4"/><path stroke="#383737" stroke-linecap="square" d="M25 146.5h210" opacity=".153"/><rect width="46" height="8" x="25" y="154" fill="#383737" fill-opacity=".12" fill-rule="nonzero" rx="4"/><rect width="24" height="8" x="82" y="154" fill="#383737" fill-opacity=".12" fill-rule="nonzero" rx="4"/><rect width="16" height="8" x="140" y="154" fill="#383737" fill-opacity=".12" fill-rule="nonzero" rx="4"/><rect width="16" height="8" x="194" y="154" fill="#383737" fill-opacity=".12" fill-rule="nonzero" rx="4"/><path stroke="#383737" stroke-linecap="square" d="M25 169.5h210" opacity=".153"/><rect width="46" height="8" x="25" y="177" fill="#383737" fill-opacity=".12" fill-rule="nonzero" rx="4"/><rect width="24" height="8" x="82" y="177" fill="#383737" fill-opacity=".12" fill-rule="nonzero" rx="4"/><rect width="16" height="8" x="140" y="177" fill="#383737" fill-opacity=".12" fill-rule="nonzero" rx="4"/><rect width="16" height="8" x="194" y="177" fill="#383737" fill-opacity=".12" fill-rule="nonzero" rx="4"/><path stroke="#383737" stroke-linecap="square" d="M25 192.5h210" opacity=".153"/><rect width="46" height="8" x="25" y="200" fill="#383737" fill-opacity=".12" fill-rule="nonzero" rx="4"/><rect width="24" height="8" x="82" y="200" fill="#383737" fill-opacity=".12" fill-rule="nonzero" rx="4"/><rect width="16" height="8" x="140" y="200" fill="#383737" fill-opacity=".12" fill-rule="nonzero" rx="4"/><rect width="16" height="8" x="194" y="200" fill="#383737" fill-opacity=".12" fill-rule="nonzero" rx="4"/><path stroke="#383737" stroke-linecap="square" d="M25 215.5h210" opacity=".153"/><rect width="46" height="8" x="25" y="223" fill="#383737" fill-opacity=".12" fill-rule="nonzero" rx="4"/><rect width="24" height="8" x="82" y="223" fill="#383737" fill-opacity=".12" fill-rule="nonzero" rx="4"/><rect width="16" height="8" x="140" y="223" fill="#383737" fill-opacity=".12" fill-rule="nonzero" rx="4"/><rect width="16" height="8" x="194" y="223" fill="#383737" fill-opacity=".12" fill-rule="nonzero" rx="4"/><path stroke="#383737" stroke-linecap="square" d="M25 238.5h210" opacity=".153"/><rect width="46" height="8" x="25" y="246" fill="#383737" fill-opacity=".12" fill-rule="nonzero" rx="4"/><rect width="24" height="8" x="82" y="246" fill="#383737" fill-opacity=".12" fill-rule="nonzero" rx="4"/><rect width="16" height="8" x="140" y="246" fill="#383737" fill-opacity=".12" fill-rule="nonzero" rx="4"/><rect width="16" height="8" x="194" y="246" fill="#383737" fill-opacity=".12" fill-rule="nonzero" rx="4"/><path stroke="#383737" stroke-linecap="square" d="M25 261.5h210M25 285h210" opacity=".153"/><rect width="46" height="8" x="25" y="269" fill="#383737" fill-opacity=".12" fill-rule="nonzero" rx="4"/><rect width="24" height="8" x="82" y="269" fill="#383737" fill-opacity=".12" fill-rule="nonzero" rx="4"/><rect width="16" height="8" x="140" y="269" fill="#383737" fill-opacity=".12" fill-rule="nonzero" rx="4"/><rect width="16" height="8" x="194" y="269" fill="#383737" fill-opacity=".12" fill-rule="nonzero" rx="4"/><rect width="34" height="8" x="25" y="86" fill="#383737" fill-opacity=".28" fill-rule="nonzero" rx="4"/><rect width="34" height="8" x="25" y="314" fill="#383737" fill-opacity=".28" fill-rule="nonzero" rx="4"/><rect width="63" height="8" x="174" y="314" fill="#383737" fill-opacity=".28" fill-rule="nonzero" rx="4"/><path fill="#FFF" d="M38.746 61.587l-10.324-1.813V31.466l10.16-1.765c5.587-.97 10.362-1.803 10.611-1.849l.453-.084.002 1.444c.001.794.073 1.553.159 1.687.134.21 1.31.256 8.382.326 7.614.075 8.248.103 8.52.372.277.274.294 1.059.294 14.023 0 12.963-.017 13.748-.294 14.023-.272.268-.906.296-8.52.371-7.072.07-8.248.116-8.382.326-.086.134-.157.884-.159 1.667-.002 1.252-.037 1.421-.29 1.408-.159-.008-4.934-.83-10.612-1.828z"/><path fill="#1D6F42" fill-rule="nonzero" d="M38.746 62.541l-11.229-1.974v-29.61l11.147-1.936c6.13-1.064 11.276-1.968 11.434-2.009.262-.067.288.097.288 1.816v1.89h8.054c5.552 0 8.178.055 8.455.18.22.1.483.359.583.577.13.28.183 4.453.183 14.288 0 9.834-.053 14.007-.183 14.288-.1.218-.363.477-.583.577-.277.124-2.903.18-8.455.18h-8.054v1.87c0 1.398-.052 1.867-.206 1.854-.113-.009-5.258-.905-11.434-1.99zm27.599-16.778V32.018H50.386v2.602h5.429v3.417h-5.429v1.3h5.429v3.417h-5.429v1.3h5.429v3.417h-5.429v1.3h5.429v3.417h-5.429v1.3h5.429v3.254h-5.429v2.765h15.959V45.763zm-9.214 9.352V53.49h6.417v3.253H57.13v-1.627zm0-4.635v-1.708h6.417v3.415H57.13V50.48zm0-4.717v-1.708h6.417v3.416H57.13v-1.708zm0-4.717v-1.708h6.417v3.416H57.13v-1.708zm0-4.717V34.62h6.417v3.416H57.13v-1.708zM41.496 49.232c-.902-1.805-1.64-3.369-1.64-3.475 0-.107.711-1.636 1.58-3.398.87-1.763 1.554-3.219 1.522-3.237-.032-.017-.654-.007-1.384.022l-1.325.054-.864 2.005c-.475 1.103-.925 2.214-.999 2.47-.121.419-.146.432-.256.138a652.71 652.71 0 0 0-.883-2.318l-.762-1.992-1.152.002c-.634.001-1.242.059-1.352.128-.144.09.19.963 1.205 3.146l1.405 3.02-1.576 3.114-1.577 3.114.947.002c.521.002 1.114.047 1.318.1.33.088.431-.032.922-1.1.304-.659.76-1.726 1.016-2.372l.463-1.174.45 1.093c.246.6.698 1.678 1.004 2.394l.555 1.301.736.098c.404.053 1.084.108 1.51.122l.776.024-1.64-3.281z"/><path fill="#0EA7AE" fill-opacity=".1" fill-rule="nonzero" d="M80 36h155v19H80z"/></g></g></svg>