<svg xmlns="http://www.w3.org/2000/svg" xmlns:xlink="http://www.w3.org/1999/xlink" width="422" height="347"><defs><filter id="a" width="102.8%" height="105.6%" x="-1.4%" y="-2.8%" filterUnits="objectBoundingBox"><feOffset dy="3" in="SourceAlpha" result="shadowOffsetOuter1"/><feGaussianBlur in="shadowOffsetOuter1" result="shadowBlurOuter1" stdDeviation="3.5"/><feColorMatrix in="shadowBlurOuter1" result="shadowMatrixOuter1" values="0 0 0 0 0 0 0 0 0 0 0 0 0 0 0 0 0 0 0.14 0"/><feMerge><feMergeNode in="shadowMatrixOuter1"/><feMergeNode in="SourceGraphic"/></feMerge></filter><filter id="b" width="100%" height="100%" x="0%" y="0%" filterUnits="objectBoundingBox"><feGaussianBlur in="SourceGraphic"/></filter><path id="c" d="M19.256 44.682c6.195-15.587 21.416-26.606 39.21-26.606h5.762c23.294 0 42.177 18.883 42.177 42.177v6.151c0 23.294-18.883 42.177-42.177 42.177h-5.762a42.76 42.76 0 0 1-3.325-.129l5.24-55.318-41.125-8.452z"/><path id="e" d="M64.105 59.016l32.643 65.064H31.462z"/><rect id="f" width="23.316" height="9.295" x="52.447" y="96.196" rx="4.647"/><rect id="g" width="23.316" height="9.295" x="52.447" y="59.016" rx="4.647"/><rect id="h" width="32.643" height="6.971" x="47.783" y="72.959" rx="3.486"/><linearGradient id="i" x1="50%" x2="50%" y1="100%" y2="50%"><stop offset="0%" stop-color="#FFF" stop-opacity=".07"/><stop offset="100%" stop-color="#0EA7AE" stop-opacity=".07"/></linearGradient><filter id="j" width="100%" height="100%" x="0%" y="0%" filterUnits="objectBoundingBox"><feGaussianBlur in="SourceGraphic"/></filter><filter id="k" width="100%" height="100%" x="0%" y="0%" filterUnits="objectBoundingBox"><feGaussianBlur in="SourceGraphic"/></filter><filter id="l" width="100%" height="100%" x="0%" y="0%" filterUnits="objectBoundingBox"><feGaussianBlur in="SourceGraphic"/></filter></defs><g fill="none" fill-rule="evenodd" filter="url(#a)" transform="translate(-886 -157)"><g transform="translate(904 297)"><rect width="385.25" height="39.724" x=".375" y=".375" fill="#FFF" fill-rule="nonzero" stroke="#F2F2F2" stroke-width=".75" filter="url(#b)" rx="2.249"/><rect width="67.456" height="8.994" x="151.777" y="14.99" fill="#F2F2F2" fill-rule="nonzero" rx="4.497"/><rect width="33.728" height="8.994" x="236.847" y="14.99" fill="#F2F2F2" fill-rule="nonzero" rx="4.497"/><rect width="33.728" height="8.994" x="293.435" y="14.99" fill="#F2F2F2" fill-rule="nonzero" rx="4.497"/><rect width="16.489" height="8.994" x="350.023" y="14.99" fill="#F2F2F2" fill-rule="nonzero" rx="4.497"/><rect width="83.196" height="8.994" x="39.724" y="14.99" fill="#0EA7AE" fill-opacity=".28" fill-rule="nonzero" rx="4.497"/><text fill="#0EA7AE" font-family="FontAwesome" font-size="17.239"><tspan x="11.243" y="25.493"></tspan></text></g><g transform="translate(1170 167)"><rect width="119" height="119" x=".5" y=".5" fill="#FFF" fill-rule="nonzero" stroke="#F2F2F2" rx="5"/><g transform="translate(-3 -7)"><rect width="69.88" height="69.595" x="29.165" y="33.514" stroke="#F2F2F2" stroke-width="14.059" rx="34.797"/><mask id="d" fill="#fff"><use xlink:href="#c"/></mask><rect width="69.903" height="69.634" x="29.153" y="33.494" stroke="#35BBC2" stroke-width="9.373" mask="url(#d)" rx="34.817"/><rect width="75.761" height="75.492" x="26.224" y="30.565" stroke="#0EA7AE" stroke-width="3.515" mask="url(#d)" rx="37.746"/><use fill="#FFF" fill-rule="nonzero" xlink:href="#e"/><use fill="#D0D0D0" fill-rule="nonzero" xlink:href="#f"/><use fill="#999" fill-rule="nonzero" xlink:href="#g"/><use fill="#D0D0D0" fill-rule="nonzero" xlink:href="#h"/></g></g><g fill-rule="nonzero" transform="translate(904 167)"><rect width="255" height="119" x=".5" y=".5" fill="#FFF" stroke="#F2F2F2" rx="5"/><path fill="url(#i)" d="M29 85.924C42.91 73.721 56.531 70.08 69.865 75c20 7.38 25-17.298 40-21.399 15-4.101 24.32 14.899 40 12.399s18.5-22.772 40-22.772 32.5-18.228 40-24.228c-.103.082-.057 27.249.136 81.5H29V85.924z"/><path stroke="#0EA7AE" d="M29 85.924C42.91 73.721 56.531 70.08 69.865 75c20 7.38 25-17.298 40-21.399 15-4.101 24.32 14.899 40 12.399s18.5-22.772 40-22.772 32.5-18.228 40-24.228"/><path stroke="#D0D0D0" stroke-linecap="square" d="M236.5 100.5H19.467"/><rect width="56" height="7" x="20" y="20" fill="#D0D0D0" rx="3.5"/></g><g transform="translate(904 347)"><rect width="385.25" height="39.724" x=".375" y=".375" fill="#FFF" fill-rule="nonzero" stroke="#F2F2F2" stroke-width=".75" filter="url(#j)" rx="2.249"/><rect width="67.456" height="8.994" x="151.777" y="14.99" fill="#F2F2F2" fill-rule="nonzero" rx="4.497"/><rect width="33.728" height="8.994" x="236.847" y="14.99" fill="#F2F2F2" fill-rule="nonzero" rx="4.497"/><rect width="33.728" height="8.994" x="293.435" y="14.99" fill="#F2F2F2" fill-rule="nonzero" rx="4.497"/><rect width="16.489" height="8.994" x="350.023" y="14.99" fill="#F2F2F2" fill-rule="nonzero" rx="4.497"/><rect width="83.196" height="8.994" x="39.724" y="14.99" fill="#0EA7AE" fill-opacity=".28" fill-rule="nonzero" rx="4.497"/><text fill="#0EA7AE" font-family="FontAwesome" font-size="17.239"><tspan x="11.243" y="25.493"></tspan></text></g><g transform="translate(904 397)"><rect width="385.25" height="39.724" x=".375" y=".375" fill="#FFF" fill-rule="nonzero" stroke="#F2F2F2" stroke-width=".75" filter="url(#k)" rx="2.249"/><rect width="67.456" height="8.994" x="151.777" y="14.99" fill="#F2F2F2" fill-rule="nonzero" rx="4.497"/><rect width="33.728" height="8.994" x="236.847" y="14.99" fill="#F2F2F2" fill-rule="nonzero" rx="4.497"/><rect width="33.728" height="8.994" x="293.435" y="14.99" fill="#F2F2F2" fill-rule="nonzero" rx="4.497"/><rect width="16.489" height="8.994" x="350.023" y="14.99" fill="#F2F2F2" fill-rule="nonzero" rx="4.497"/><rect width="83.196" height="8.994" x="39.724" y="14.99" fill="#0EA7AE" fill-opacity=".28" fill-rule="nonzero" rx="4.497"/><text fill="#0EA7AE" font-family="FontAwesome" font-size="17.239"><tspan x="11.243" y="25.493"></tspan></text></g><g transform="translate(904 447)"><rect width="385.25" height="39.724" x=".375" y=".375" fill="#FFF" fill-rule="nonzero" stroke="#F2F2F2" stroke-width=".75" filter="url(#l)" rx="2.249"/><rect width="67.456" height="8.994" x="151.777" y="14.99" fill="#F2F2F2" fill-rule="nonzero" rx="4.497"/><rect width="33.728" height="8.994" x="236.847" y="14.99" fill="#F2F2F2" fill-rule="nonzero" rx="4.497"/><rect width="33.728" height="8.994" x="293.435" y="14.99" fill="#F2F2F2" fill-rule="nonzero" rx="4.497"/><rect width="16.489" height="8.994" x="350.023" y="14.99" fill="#F2F2F2" fill-rule="nonzero" rx="4.497"/><rect width="83.196" height="8.994" x="39.724" y="14.99" fill="#0EA7AE" fill-opacity=".28" fill-rule="nonzero" rx="4.497"/><text fill="#0EA7AE" font-family="FontAwesome" font-size="17.239"><tspan x="11.243" y="25.493"></tspan></text></g></g></svg>