<svg xmlns="http://www.w3.org/2000/svg" width="768" height="180"><defs><linearGradient id="a" x1="49.995%" x2="50.365%" y1="93.965%" y2="11.015%"><stop offset="0%" stop-color="#FFF" stop-opacity=".38"/><stop offset="100%" stop-color="#0EA7AE" stop-opacity=".07"/></linearGradient><linearGradient id="b" x1="50%" x2="50%" y1="99.995%" y2=".405%"><stop offset="0%" stop-color="#FFF" stop-opacity=".2"/><stop offset="100%" stop-color="#0EA7AE" stop-opacity=".4"/></linearGradient><linearGradient id="c" x1="50%" x2="50%" y1="100.001%" y2=".001%"><stop offset="0%" stop-color="#FFF" stop-opacity=".2"/><stop offset="99.6%" stop-color="#0EA7AE" stop-opacity=".4"/></linearGradient><linearGradient id="d" x1="50%" x2="50%" y1="99.997%" y2="-.003%"><stop offset="0%" stop-color="#FFF" stop-opacity=".2"/><stop offset="99.6%" stop-color="#0EA7AE" stop-opacity=".4"/></linearGradient><linearGradient id="e" x1="50%" x2="50%" y1="100.001%" y2=".001%"><stop offset="0%" stop-color="#FFF" stop-opacity=".2"/><stop offset="99.6%" stop-color="#0EA7AE" stop-opacity=".4"/></linearGradient><linearGradient id="f" x1="50%" x2="50%" y1="100%" y2="0%"><stop offset="0%" stop-color="#FFF" stop-opacity=".2"/><stop offset="99.6%" stop-color="#0EA7AE" stop-opacity=".4"/></linearGradient></defs><g fill="none" fill-rule="evenodd"><path fill="url(#a)" d="M0 195.986c33.871-31.849 78.68-41.576 133.756-28.736 82.586 19.287 120.53-85.21 268.683-42.577C550.59 167.305 542.22 21.9 670.006 58.64 797.79 95.38 830.602 0 921 0v224H0v-28.014z" transform="translate(-28 -44)"/><path stroke="#0EA7AE" stroke-linecap="round" stroke-width="2" d="M-28 152c33.871-31.851 78.68-41.58 133.756-28.739 82.586 19.29 120.53-85.214 268.683-42.58C522.59 123.318 514.22-22.098 642.006 14.645 769.79 51.387 802.602-44 893-44"/><path fill="url(#b)" d="M628 52h1v165h-1z" transform="translate(-28 -44)"/><path fill="url(#c)" d="M778 57h1v160h-1z" transform="translate(-28 -44)"/><path fill="url(#d)" d="M478 128h1v89h-1z" transform="translate(-28 -44)"/><path fill="url(#e)" d="M329 113h1v104h-1z" transform="translate(-28 -44)"/><path fill="url(#f)" d="M179 166h1v51h-1z" transform="translate(-28 -44)"/><path fill="#0EA7AE" d="M152 120c1.086 0 2 .914 2 2 0 1.086-.914 2-2 2-1.086 0-2-.914-2-2 0-1.086.914-2 2-2zm149-52c1.086 0 2 .914 2 2 0 1.086-.914 2-2 2-1.086 0-2-.914-2-2 0-1.086.914-2 2-2zm150 15c1.086 0 2 .914 2 2 0 1.086-.914 2-2 2-1.086 0-2-.914-2-2 0-1.086.914-2 2-2zm299-72c1.086 0 2 .914 2 2 0 1.086-.914 2-2 2-1.086 0-2-.914-2-2 0-1.086.914-2 2-2zM600.5 2c3.617 0 6.5 2.883 6.5 6.5s-2.883 6.5-6.5 6.5a6.465 6.465 0 0 1-6.5-6.5c0-3.617 2.883-6.5 6.5-6.5z"/><path fill="#FFF" fill-rule="nonzero" d="M601 16c-4.414 0-8-3.586-8-8s3.586-8 8-8 8 3.586 8 8-3.586 8-8 8zm0-12.69A4.686 4.686 0 0 0 596.31 8a4.686 4.686 0 0 0 4.69 4.69A4.686 4.686 0 0 0 605.69 8 4.686 4.686 0 0 0 601 3.31z"/></g></svg>