<svg xmlns="http://www.w3.org/2000/svg" xmlns:xlink="http://www.w3.org/1999/xlink" width="1990" height="466" viewBox="0 0 1340 366"><defs><path id="a" d="M0 0h1440v389H0z"/><linearGradient id="c" x1="50%" x2="50%" y1="0%" y2="100%"><stop offset="0%" stop-color="#FFF" stop-opacity="0"/><stop offset="100%" stop-color="#FFF"/></linearGradient><linearGradient id="d" x1="50%" x2="50%" y1="93.975%" y2="61.035%"><stop offset="0%" stop-color="#FFF" stop-opacity=".07"/><stop offset="100%" stop-color="#0EA7AE" stop-opacity=".07"/></linearGradient><linearGradient id="g" x1="50%" x2="50%" y1="100%" y2="50%"><stop offset="0%" stop-color="#FFF" stop-opacity=".07"/><stop offset="100%" stop-color="#0EA7AE" stop-opacity=".07"/></linearGradient><path id="f" d="M0 353c60.667-57.418 140.333-74.522 239-51.313 148 34.813 216-153.684 481.5-76.842S971 39.48 1200 105.78C1429 172.08 1487 0 1649 0c1.056 86.243 1.056 216.385 0 390.427H0V353z"/><filter id="e" width="105.6%" height="127.7%" x="-2.8%" y="-7%" filterUnits="objectBoundingBox"><feMorphology in="SourceAlpha" operator="dilate" radius="1" result="shadowSpreadOuter1"/><feOffset dy="34" in="shadowSpreadOuter1" result="shadowOffsetOuter1"/><feGaussianBlur in="shadowOffsetOuter1" result="shadowBlurOuter1" stdDeviation="9.5"/><feComposite in="shadowBlurOuter1" in2="SourceAlpha" operator="out" result="shadowBlurOuter1"/><feColorMatrix in="shadowBlurOuter1" values="0 0 0 0 0.117647059 0 0 0 0 0.505882353 0 0 0 0 0.525490196 0 0 0 0.5 0"/></filter><rect id="i" width="17" height="17" x="1011" y="86" rx="8.5"/><filter id="h" width="335.3%" height="335.3%" x="-117.6%" y="-94.1%" filterUnits="objectBoundingBox"><feMorphology in="SourceAlpha" operator="dilate" radius="6" result="shadowSpreadOuter1"/><feOffset dy="4" in="shadowSpreadOuter1" result="shadowOffsetOuter1"/><feGaussianBlur in="shadowOffsetOuter1" result="shadowBlurOuter1" stdDeviation="4"/><feComposite in="shadowBlurOuter1" in2="SourceAlpha" operator="out" result="shadowBlurOuter1"/><feColorMatrix in="shadowBlurOuter1" values="0 0 0 0 0 0 0 0 0 0 0 0 0 0 0 0 0 0 0.15 0"/></filter></defs><g fill="none" fill-rule="evenodd" transform="translate(0 -23)"><mask id="b" fill="#fff"><use xlink:href="#a"/></mask><path fill="#0EA7AE" fill-opacity=".2" fill-rule="nonzero" d="M1019 95h1v298h-1zm268 9h1v289h-1zM750 234h1v161h-1zm-268-27h1v188h-1zm-268 93h1v94h-1z" mask="url(#b)"/><path fill="url(#c)" fill-rule="nonzero" d="M0 228h1440v161H0z" mask="url(#b)"/><g fill-rule="nonzero" mask="url(#b)"><path fill="url(#d)" d="M0 353c60.667-57.418 140.333-74.522 239-51.313 148 34.813 216-153.684 481.5-76.842S971 39.48 1200 105.78C1429 172.08 1487 0 1649 0c1.056 86.243 1.056 216.385 0 390.427H0V353z" transform="translate(-105)"/><g transform="translate(-105)"><use fill="#000" filter="url(#e)" xlink:href="#f"/><use fill="url(#g)" stroke="#0EA7AE" stroke-width="2" xlink:href="#f"/></g></g><rect width="7" height="7" x="211" y="296" fill="#0EA7AE" fill-rule="nonzero" mask="url(#b)" rx="3.5"/><rect width="7" height="7" x="479" y="203" fill="#0EA7AE" fill-rule="nonzero" mask="url(#b)" rx="3.5"/><rect width="7" height="7" x="747" y="230" fill="#0EA7AE" fill-rule="nonzero" mask="url(#b)" rx="3.5"/><rect width="7" height="7" x="1284" y="100" fill="#0EA7AE" fill-rule="nonzero" mask="url(#b)" rx="3.5"/><g fill-rule="nonzero"><use fill="#000" filter="url(#h)" xlink:href="#i"/><rect width="23" height="23" x="1008" y="83" fill="#0EA7AE" fill-rule="evenodd" stroke="#FFF" stroke-width="6" rx="11.5"/></g></g></svg>