<svg xmlns="http://www.w3.org/2000/svg" viewBox="0 0 1650.5 404"><style>.st7{fill:#0ea7ae}</style><linearGradient id="ph1" gradientUnits="userSpaceOnUse" x1="2247.793" y1="266.091" x2="2247.796" y2="266.949" gradientTransform="matrix(1649.792 0 0 -389.4289 -3707565.25 104003.086)"><stop offset="0" stop-color="#FFF" stop-opacity=".38"/><stop offset="1" stop-color="#0EA7AE" stop-opacity=".07"/></linearGradient><path id="Path-Copy" fill="url(#ph1)" class="st0" d="M0 353.6c60.7-57.3 141-74.8 239.7-51.7 148 34.7 216-153.3 481.5-76.6s250.5-184.9 479.5-118.8S1488.5 1 1650.5 1v403H0v-50.4z"/><path id="path-2_1_" class="st1" fill="none" stroke="#0EA7AE" stroke-width="2" stroke-linecap="round" d="M0 353.6c60.7-57.3 141-74.8 239.7-51.7 148 34.7 216-153.3 481.5-76.6s250.5-184.9 479.5-118.8S1488.5 1 1650.5 1"/><linearGradient id="Rectangle_2_" gradientUnits="userSpaceOnUse" x1="-49.8" y1="266.399" x2="-49.8" y2="267.395" gradientTransform="matrix(1 0 0 -296 1177 79245)"><stop offset="0" stop-color="#fff" stop-opacity=".2"/><stop offset="1" stop-color="#0ea7ae" stop-opacity=".4"/></linearGradient><path id="Rectangle" class="st2" fill="url(#Rectangle_2_)" d="M1126.7 95h1v296h-1z"/><linearGradient id="Rectangle-Copy_1_" gradientUnits="userSpaceOnUse" x1="-49.8" y1="266.442" x2="-49.8" y2="267.442" gradientTransform="matrix(1 0 0 -287 1445 76860)"><stop offset="0" stop-color="#fff" stop-opacity=".2"/><stop offset=".996" stop-color="#0ea7ae" stop-opacity=".4"/></linearGradient><path id="Rectangle-Copy" fill="url(#Rectangle-Copy_1_)" d="M1394.7 104h1v287h-1z"/><linearGradient id="Rectangle-Copy-21_1_" gradientUnits="userSpaceOnUse" x1="-49.8" y1="267.604" x2="-49.8" y2="268.604" gradientTransform="matrix(1 0 0 -159 908 42940)"><stop offset="0" stop-color="#fff" stop-opacity=".2"/><stop offset=".996" stop-color="#0ea7ae" stop-opacity=".4"/></linearGradient><path id="Rectangle-Copy-21" fill="url(#Rectangle-Copy-21_1_)" d="M857.7 232h1v159h-1z"/><linearGradient id="Rectangle-Copy-22_1_" gradientUnits="userSpaceOnUse" x1="-49.8" y1="267.226" x2="-49.8" y2="268.226" gradientTransform="matrix(1 0 0 -186 640 50095)"><stop offset="0" stop-color="#fff" stop-opacity=".2"/><stop offset=".996" stop-color="#0ea7ae" stop-opacity=".4"/></linearGradient><path id="Rectangle-Copy-22" fill="url(#Rectangle-Copy-22_1_)" d="M589.7 205h1v186h-1z"/><linearGradient id="Rectangle-Copy-23_1_" gradientUnits="userSpaceOnUse" x1="-49.8" y1="269.5" x2="-49.8" y2="270.5" gradientTransform="matrix(1 0 0 -92 372 25184)"><stop offset="0" stop-color="#fff" stop-opacity=".2"/><stop offset=".996" stop-color="#0ea7ae" stop-opacity=".4"/></linearGradient><path id="Rectangle-Copy-23" fill="url(#Rectangle-Copy-23_1_)" d="M321.7 298h1v92h-1z"/><path id="Rectangle_1_" class="st7" d="M322.2 296c1.9 0 3.5 1.6 3.5 3.5s-1.6 3.5-3.5 3.5-3.5-1.6-3.5-3.5 1.6-3.5 3.5-3.5z"/><path id="Rectangle-Copy-8" class="st7" d="M590.2 203c1.9 0 3.5 1.6 3.5 3.5s-1.6 3.5-3.5 3.5-3.5-1.6-3.5-3.5 1.6-3.5 3.5-3.5z"/><path id="Rectangle-Copy-18" class="st7" d="M858.2 230c1.9 0 3.5 1.6 3.5 3.5s-1.6 3.5-3.5 3.5-3.5-1.6-3.5-3.5 1.6-3.5 3.5-3.5z"/><path id="Rectangle-Copy-20" class="st7" d="M1395.2 100c1.9 0 3.5 1.6 3.5 3.5s-1.6 3.5-3.5 3.5-3.5-1.6-3.5-3.5 1.6-3.5 3.5-3.5z"/><path class="st7" d="M1127.2 83c6.4 0 11.5 5.1 11.5 11.5s-5.1 11.5-11.5 11.5-11.5-5.1-11.5-11.5 5.1-11.5 11.5-11.5z"/><path d="M1127.2 109c-8 0-14.5-6.5-14.5-14.5s6.5-14.5 14.5-14.5 14.5 6.5 14.5 14.5-6.5 14.5-14.5 14.5zm0-23c-4.7 0-8.5 3.8-8.5 8.5s3.8 8.5 8.5 8.5 8.5-3.8 8.5-8.5-3.8-8.5-8.5-8.5z" fill="#fff"/></svg>