<svg version="1.1" id="graph-line-mobile" xmlns="http://www.w3.org/2000/svg" x="0" y="0" viewBox="0 0 640 234.2" xml:space="preserve"><style>.st3{fill:#0ea7ae}</style><linearGradient id="SVGID_1_" gradientUnits="userSpaceOnUse" x1="2502.904" y1="-110.382" x2="2502.906" y2="-110.912" gradientTransform="matrix(1649.792 0 0 389.4289 -4128951 43205.14)"><stop offset="0" stop-color="#fff" stop-opacity=".38"/><stop offset="1" stop-color="#0ea7ae" stop-opacity=".07"/></linearGradient><path d="M373.9 63.3C195.4 11.8 207.1 215.7.2 155.9v78.3h639.6V2c-73.7 35.4-133.1 99.7-265.9 61.3z" fill="url(#SVGID_1_)"/><path id="path-2_3_" d="M.2 154.9c206.9 59.8 195.2-144.1 373.7-92.6C506.7 100.7 566.1 36.4 639.8 1" fill="none" stroke="#0ea7ae" stroke-width="2" stroke-linecap="round"/><linearGradient id="Rectangle-Copy-22_2_" gradientUnits="userSpaceOnUse" x1="-483.928" y1="-112.153" x2="-483.928" y2="-112.527" gradientTransform="matrix(1 0 0 186 640 21071.26)"><stop offset="0" stop-color="#fff" stop-opacity=".2"/><stop offset=".996" stop-color="#0ea7ae" stop-opacity=".4"/></linearGradient><path id="Rectangle-Copy-22" fill="url(#Rectangle-Copy-22_2_)" d="M155.6 141.2h1v69.7h-1z"/><path id="Rectangle-Copy-8" class="st3" d="M156.1 139.2c1.9 0 3.5 1.6 3.5 3.5s-1.6 3.5-3.5 3.5-3.5-1.6-3.5-3.5 1.6-3.5 3.5-3.5z"/><linearGradient id="Rectangle-Copy-22_3_" gradientUnits="userSpaceOnUse" x1="-156.428" y1="-112.531" x2="-156.428" y2="-112.905" gradientTransform="matrix(1 0 0 186 640 21071.26)"><stop offset="0" stop-color="#fff" stop-opacity=".2"/><stop offset=".996" stop-color="#0ea7ae" stop-opacity=".4"/></linearGradient><path id="Rectangle-Copy-22_1_" fill="url(#Rectangle-Copy-22_3_)" d="M483.1 70.9h1v69.7h-1z"/><path id="Rectangle-Copy-8_1_" class="st3" d="M483.6 68.9c1.9 0 3.5 1.6 3.5 3.5s-1.6 3.5-3.5 3.5-3.5-1.6-3.5-3.5 1.6-3.5 3.5-3.5z"/><linearGradient id="Rectangle_1_" gradientUnits="userSpaceOnUse" x1="-857.178" y1="-110.831" x2="-857.178" y2="-111.434" gradientTransform="matrix(1 0 0 296 1177 33040.012)"><stop offset="0" stop-color="#fff" stop-opacity=".2"/><stop offset="1" stop-color="#0ea7ae" stop-opacity=".4"/></linearGradient><path id="Rectangle" fill="url(#Rectangle_1_)" d="M319.3 54.9h1v179.3h-1z"/><path class="st3" d="M319.8 42.9c6.4 0 11.5 5.1 11.5 11.5s-5.1 11.5-11.5 11.5-11.5-5.1-11.5-11.5 5.1-11.5 11.5-11.5z"/><path d="M319.8 68.9c-8 0-14.5-6.5-14.5-14.5s6.5-14.5 14.5-14.5 14.5 6.5 14.5 14.5-6.5 14.5-14.5 14.5zm0-23c-4.7 0-8.5 3.8-8.5 8.5s3.8 8.5 8.5 8.5 8.5-3.8 8.5-8.5-3.8-8.5-8.5-8.5z" fill="#fff"/></svg>