<svg width="662" height="103" xmlns="http://www.w3.org/2000/svg"><defs><linearGradient x1="50%" y1="100%" x2="50%" y2="0%" id="linearGradient-1"><stop stop-color="#FFF" offset="0%"/><stop stop-color="#0EA7AE" offset="100%"/></linearGradient></defs><g id="Pages" stroke="none" stroke-width="1" fill="none" fill-rule="evenodd" stroke-linecap="round"><g id="Brokermint-homepage" transform="translate(-389 -4230)" fill-rule="nonzero" stroke="url(#linearGradient-1)"><g id="Group" transform="translate(390 4231)"><path d="M330 1v33.253c0 5.522-4.477 10-10 10H10c-5.523 0-10 4.477-10 10V101" id="Path-2"/><path d="M330 1v33.253c0 5.522-4.477 10-10 10H143c-5.523 0-10 4.477-10 10V101" id="Path-2-Copy-3"/><path d="M330 1v33.253c0 5.522-4.477 10-10 10h-45c-5.523 0-10 4.477-10 10V101" id="Path-2-Copy-4"/><path d="M660 0v33.253c0 5.522-4.477 10-10 10H340c-5.523 0-10 4.477-10 10V100" id="Path-2-Copy-7" transform="matrix(-1 0 0 1 990 0)"/><path d="M527 0v33.253c0 5.522-4.477 10-10 10H340c-5.523 0-10 4.477-10 10V100" id="Path-2-Copy-6" transform="matrix(-1 0 0 1 857 0)"/><path d="M395 0v33.253c0 5.522-4.477 10-10 10h-45c-5.523 0-10 4.477-10 10V100" id="Path-2-Copy-5" transform="matrix(-1 0 0 1 725 0)"/></g></g></g></svg>