<svg xmlns="http://www.w3.org/2000/svg" width="226" height="103"><defs><linearGradient id="a" x1="50%" x2="50%" y1="100%" y2="0%"><stop offset="0%" stop-color="#FFF"/><stop offset="100%" stop-color="#0EA7AE"/></linearGradient></defs><g fill="none" stroke="url(#a)" stroke-linecap="round" transform="translate(-47 -3870)"><path d="M160 3872v33.253c0 5.522-4.477 10-10 10H58c-5.523 0-10 4.477-10 10V3972"/><path d="M160 3872v33.253c0 5.522-4.477 10-10 10h-17c-5.523 0-10 4.477-10 10V3972m37-101v33.253c0 5.522 4.477 10 10 10h92c5.523 0 10 4.477 10 10V3971"/><path d="M160 3871v33.253c0 5.522 4.477 10 10 10h17c5.523 0 10 4.477 10 10V3971"/></g></svg>