<svg xmlns="http://www.w3.org/2000/svg" viewBox="0 0 196 36.4"><path d="M97 10.7c-1.1 0-1.7.1-2 .2v5.6h1.8c2.2 0 3.6-1.1 3.6-2.9-.1-1.9-1.4-2.9-3.4-2.9zm4.2 7.5c1.4.7 2.2 2 2.7 3.9.6 2.3 1.2 5 1.6 5.7h-4.6c-.3-.6-.8-2.2-1.4-4.7-.5-2.5-1.4-3.2-3.2-3.3h-1.4v8h-4.5V7.7c1.4-.2 3.6-.4 6-.4 3 0 5 .5 6.4 1.6 1.2 1 1.8 2.4 1.8 4.3.1 2.5-1.7 4.3-3.4 5zM87.4 24v3.8H74.7V7.4H87v3.8h-7.8v4.2h7.3v3.7h-7.3V24h8.2zm-14.6 3.8h-5.3L62.7 19 61 21.1v6.6h-4.5V7.4H61v9h.1c.4-.8.9-1.5 1.4-2.2L67 7.4h5.5l-6.6 8.7 6.9 11.7zM44 10.8c-3 0-4.8 3-4.8 6.9 0 4 1.8 6.8 4.9 6.8 3 0 4.8-3 4.8-6.9-.1-3.7-1.8-6.8-4.9-6.8zm-.3 17.3c-5.9 0-9.4-4.6-9.4-10.4C34.3 11.6 38.1 7 44 7c6.1 0 9.5 4.7 9.5 10.3 0 6.8-3.9 10.8-9.8 10.8zM24.4 10.7c-1.1 0-1.7.1-2 .2v5.6h1.8c2.2 0 3.6-1.1 3.6-2.9-.1-1.9-1.4-2.9-3.4-2.9zm4.2 7.5c1.4.7 2.2 2 2.7 3.9.6 2.3 1.2 5 1.6 5.7h-4.6c-.3-.6-.8-2.2-1.4-4.7-.5-2.5-1.4-3.2-3.2-3.3h-1.4v8h-4.5V7.7c1.4-.2 3.6-.4 6-.4 3 0 5 .5 6.4 1.6 1.2 1 1.8 2.4 1.8 4.3.2 2.5-1.7 4.3-3.4 5zM6 18.8H4.5v5.7c.4.1 1 .1 1.7.1 2 0 3.8-.8 3.8-2.9.1-2.1-1.7-2.9-4-2.9zm.4-8.2c-1 0-1.5.1-1.9.1v4.7H6c2.4 0 3.6-1 3.6-2.5s-1.2-2.3-3.2-2.3zm4.4 6.2c2.3.7 4 2.4 4 5.1 0 1.8-.8 3.3-2.1 4.3-1.4 1.1-3.9 1.8-7.8 1.8-2.2 0-3.9-.1-4.9-.3v-20c1.2-.2 3.6-.4 5.8-.4 2.8 0 4.4.3 5.9 1.1 1.4.8 2.4 2.1 2.4 4 0 1.8-1 3.5-3.3 4.4z" fill="#383737"/><path d="M178 0h-68.4v18.2c0 10.1 8.1 18.2 18 18.2H196V18.2c0-10-8.1-18.2-18-18.2z" fill="#20a6ac"/><path d="M135.4 27c-.1-4.5-.3-9.1-.4-13.6-.2.9-.5 1.8-.7 2.7-1 3.5-2.1 6.9-3.2 10.4 0 .1-.2.2-.2.2h-3c-1.1-4.4-2.5-8.7-3.4-13.1-.2 4.5-.4 8.9-.6 13.4h-3.5c-.3 0-.4-.1-.3-.3l.6-9c.2-2.8.3-5.5.5-8.3v-.1h5.1c.2 0 .3 0 .3.2 1 3.5 2.1 6.9 2.8 10.5.1.4.2.8.3 1.3h.1c.3-1.3.6-2.6 1-3.9l2.4-7.8c0-.1.1-.2.2-.2h5.1c.3 5.9.6 11.9 1 17.8h-4.1zm9-17.8h4V27h-4zM168 27h-3.6c-.2 0-.3 0-.4-.2-1.9-3.5-3.7-7-5.6-10.4-.4-.7-.7-1.4-1-2.2 0 4.3.1 8.5.1 12.8h-3.4c-.3 0-.4-.1-.4-.4V9.5c0-.2.1-.3.3-.3h4.2c.1 0 .3.1.3.2 2.1 3.9 4.5 7.7 6.2 11.8l.1.1c-.4-4-.2-8-.3-12.1h3.4c.4 0 .4 0 .4.4v17c.1.3 0 .4-.3.4zm17.6-14.3h-4.5V27H177V12.7h-4.4c-.3 0-.3-.1-.3-.4V9.5c0-.2.1-.3.3-.3h12.9c.3 0 .3.1.3.3v2.8c.1.3 0 .4-.2.4z" fill="#fff"/></svg>