<svg xmlns="http://www.w3.org/2000/svg" xmlns:xlink="http://www.w3.org/1999/xlink" width="176" height="33"><defs><path id="a" d="M9.564 24.077c.179-2.684.345-5.368.515-8.052l.471-7.408c.002-.037.013-.074.023-.128.091-.006.176-.015.26-.016 1.44 0 2.88.001 4.32-.003.165 0 .255.026.309.213.894 3.095 1.852 6.171 2.523 9.327.079.372.158.744.239 1.116.003.014.028.023.052.041.303-1.174.572-2.354.916-3.511.695-2.338 1.43-4.665 2.156-6.995.023-.076.132-.18.202-.18 1.517-.01 3.034-.008 4.593-.008l.867 15.89h-3.613l-.401-12.122c-.22.809-.42 1.62-.664 2.42-.942 3.09-1.897 6.176-2.854 9.261-.027.085-.142.201-.217.203-.894.014-1.788.009-2.707.009-1.025-3.91-2.239-7.755-3.04-11.719l-.547 11.966h-.505c-.866 0-1.731-.007-2.597.005-.238.003-.319-.05-.301-.31zm21.9.29h3.63V8.497h-3.63v15.87zm8.39-15.627c-.009-.2.051-.273.262-.272 1.265.009 2.53 0 3.795.012a.391.391 0 0 1 .285.173c1.924 3.482 4.07 6.848 5.56 10.561.01.024.03.044.072.063-.337-3.585-.194-7.175-.23-10.804h3c.383 0 .383 0 .383.376v12.24c0 .987-.007 1.975.006 2.963.003.248-.05.34-.32.336-1.089-.016-2.18-.007-3.269-.006-.137 0-.248.002-.333-.157-1.665-3.104-3.344-6.201-5.003-9.309-.333-.624-.598-1.286-.895-1.93l.096 11.395h-.544c-.837 0-1.674-.011-2.51.007-.28.006-.358-.075-.357-.357.008-4.823.006-9.646.006-14.47 0-.273.01-.548-.003-.821zm16.682.01c-.003-.216.057-.283.278-.282 3.872.006 7.744.006 11.616 0 .235-.001.298.072.295.299-.011.84-.012 1.682 0 2.523.003.229-.063.3-.296.299-1.217-.012-2.433-.006-3.649-.006h-.35v12.772h-3.665V11.583h-.334c-1.197 0-2.393-.007-3.59.006-.249.003-.31-.076-.306-.315a86.22 86.22 0 0 0 0-2.523zm-40.23 24.008h61.461V16.515c0-8.97-7.24-16.242-16.173-16.242H.134v16.242c0 8.97 7.24 16.243 16.173 16.243z"/><path id="c" d="M87.066 3.207c-.982 0-1.54.081-1.832.135v5.013h1.593c2.019 0 3.214-1.024 3.214-2.615 0-1.67-1.116-2.506-2.975-2.533zm3.825 6.657v.08c1.248.513 1.939 1.726 2.39 3.396.558 2.049 1.116 4.42 1.462 5.121h-4.144c-.292-.512-.717-1.994-1.248-4.231-.478-2.264-1.249-2.884-2.896-2.91h-1.221v7.141h-4.011V.54c1.301-.216 3.24-.377 5.392-.377 2.656 0 4.515.404 5.79 1.428 1.063.863 1.647 2.129 1.647 3.8 0 2.318-1.62 3.908-3.161 4.474zm-12.43 5.228v3.37H67.039V.295h11.05v3.37h-6.986v3.773h6.587v3.341h-6.587v4.312h7.358zm-13.068 3.37h-4.728l-4.383-7.843-1.54 1.913v5.93h-4.01V.295h4.01v8.032h.08c.398-.7.823-1.348 1.221-1.995L60.107.296h4.967L59.15 8.031l6.242 10.43zm-25.924-15.2c-2.735 0-4.33 2.64-4.33 6.17 0 3.558 1.648 6.065 4.357 6.065 2.736 0 4.303-2.642 4.303-6.172 0-3.261-1.54-6.064-4.33-6.064zm-.186 15.496c-5.312 0-8.42-4.07-8.42-9.244C30.863 4.07 34.29 0 39.576 0c5.498 0 8.5 4.177 8.5 9.19 0 5.956-3.56 9.568-8.793 9.568zM21.886 3.208c-.982 0-1.54.08-1.832.134v5.013h1.593c2.019 0 3.214-1.024 3.214-2.615 0-1.67-1.115-2.506-2.975-2.533zm3.825 6.656v.08c1.248.513 1.94 1.726 2.39 3.396.558 2.049 1.116 4.42 1.461 5.121H25.42c-.292-.512-.718-1.994-1.249-4.231-.478-2.264-1.248-2.884-2.895-2.91h-1.221v7.141h-4.011V.54c1.301-.216 3.24-.377 5.392-.377 2.656 0 4.515.404 5.79 1.428 1.063.863 1.647 2.129 1.647 3.8 0 2.318-1.62 3.908-3.16 4.474zm-20.319.566h-1.38v5.12c.398.055.876.055 1.566.055 1.833 0 3.453-.701 3.453-2.615 0-1.832-1.62-2.56-3.639-2.56zm.346-7.277c-.877 0-1.382.054-1.727.108v4.231H5.34c2.125 0 3.267-.889 3.267-2.237 0-1.374-1.036-2.102-2.868-2.102zm3.984 5.471v.054c2.045.566 3.559 2.13 3.559 4.474 0 1.644-.744 2.938-1.86 3.854-1.3 1.051-3.479 1.644-7.038 1.644-1.992 0-3.48-.135-4.383-.27V.54C1.063.322 3.214.161 5.233.161c2.47 0 3.984.242 5.285 1.024 1.249.674 2.152 1.913 2.152 3.557 0 1.617-.93 3.127-2.948 3.881z"/></defs><g fill="none" fill-rule="evenodd"><g transform="translate(98.2)"><mask id="b" fill="#fff"><use xlink:href="#a"/></mask><use fill="#20A6AC" xlink:href="#a"/><g fill="#FFF" fill-rule="nonzero" mask="url(#b)"><path d="M.134 0h78v33h-78z"/></g></g><g transform="translate(0 6.6)"><mask id="d" fill="#fff"><use xlink:href="#c"/></mask><use fill="#383737" xlink:href="#c"/><g fill="#FFF" fill-rule="nonzero" mask="url(#d)"><path d="M0 0h95v19H0z"/></g></g></g></svg>