<svg xmlns="http://www.w3.org/2000/svg" width="421" height="318"><g fill="none" fill-rule="evenodd"><g transform="translate(17 11)"><rect width="385.053" height="59.332" x=".605" y=".605" fill="#FFF" fill-rule="nonzero" stroke="#F2F2F2" stroke-width="1.211" rx="6.054"/><rect width="92.025" height="12.109" x="39.958" y="24.217" fill="#383737" fill-opacity=".2" fill-rule="nonzero" rx="6.054"/><rect width="67.808" height="12.109" x="165.888" y="24.217" fill="#383737" fill-opacity=".12" fill-rule="nonzero" rx="6.054"/><path fill="#999" d="M155.378 31.947c.019.65.22 1.163.603 1.54.382.378.864.616 1.445.713v-3.851a9.927 9.927 0 0 1-1.33-.414 3.404 3.404 0 0 1-.93-.538 1.862 1.862 0 0 1-.544-.763c-.116-.3-.174-.663-.174-1.09a2.967 2.967 0 0 1 .865-2.143c.266-.266.58-.477.944-.632a3.596 3.596 0 0 1 1.17-.276v-.959h.798v.974c.785.097 1.41.387 1.875.872.465.484.794 1.152.988 2.005h-1.235c-.194-.96-.736-1.521-1.628-1.686v3.575l.872.232c.194.049.422.133.683.255.262.12.514.288.756.5.242.214.448.48.617.8.17.32.255.702.255 1.148 0 .475-.08.896-.24 1.264-.16.368-.38.685-.661.952a3.13 3.13 0 0 1-1.003.632 4.412 4.412 0 0 1-1.279.29v1.192h-.799v-1.192c-.968-.096-1.739-.433-2.31-1.01-.572-.576-.896-1.373-.974-2.39h1.236zm2.847 2.253a2.98 2.98 0 0 0 .749-.146c.227-.077.426-.191.596-.341.169-.15.3-.34.392-.567.092-.228.138-.496.138-.806 0-.281-.049-.516-.145-.705a1.527 1.527 0 0 0-.393-.487 2.207 2.207 0 0 0-.595-.341 8.829 8.829 0 0 0-.742-.255V34.2zm-.799-8.544a2.06 2.06 0 0 0-1.184.501c-.324.286-.487.705-.487 1.257 0 .252.041.467.124.646.082.18.198.33.349.45a2.2 2.2 0 0 0 .53.313c.203.087.426.165.668.233v-3.4zM30.79 34.053c0 .648-.197 1.16-.591 1.536-.395.376-.92.564-1.574.564H21.54c-.654 0-1.179-.188-1.573-.564-.395-.375-.592-.888-.592-1.536 0-.287.01-.567.028-.84.02-.272.057-.567.114-.883a6.63 6.63 0 0 1 .215-.88c.086-.27.202-.534.348-.79a2.85 2.85 0 0 1 .503-.657c.19-.182.42-.326.693-.434a2.44 2.44 0 0 1 .904-.162c.049 0 .162.058.34.174l.605.39c.224.142.516.272.876.388a3.5 3.5 0 0 0 1.082.175 3.5 3.5 0 0 0 1.083-.175 3.85 3.85 0 0 0 .875-.389c.225-.143.426-.273.604-.39.179-.115.292-.173.34-.173.33 0 .632.054.905.162.273.108.504.252.693.434.19.18.357.4.503.656.146.257.262.52.349.79.086.271.158.564.215.88.056.317.094.612.113.885.019.272.028.552.028.839zm-3.51-9.438a2.98 2.98 0 0 1 .916 2.197 3 3 0 0 1-.912 2.201 3 3 0 0 1-2.202.913 3 3 0 0 1-2.201-.913 3 3 0 0 1-.913-2.201 3 3 0 0 1 .913-2.202 3 3 0 0 1 2.201-.912c.86 0 1.592.306 2.197.917z"/><rect width="29.061" height="24.217" x="307.558" y="18.163" fill="#0EA7AE" fill-rule="nonzero" rx="3.633"/><rect width="29.061" height="24.217" x="341.462" y="18.163" fill="#F2F2F2" fill-rule="nonzero" rx="3.633"/><path fill="#FFF" d="M328.146 26.698a.75.75 0 0 1 .227.552.75.75 0 0 1-.227.551l-6.974 6.973a.75.75 0 0 1-.551.227.75.75 0 0 1-.551-.227l-4.038-4.038a.75.75 0 0 1-.227-.551c0-.216.075-.4.227-.551l1.102-1.103a.75.75 0 0 1 .552-.227c.216 0 .4.076.551.227l2.384 2.392 5.32-5.327a.75.75 0 0 1 .55-.227c.217 0 .4.075.552.227l1.103 1.102z"/><path fill="#D0D0D0" d="M360.786 32.828a.75.75 0 0 1 .227.552.75.75 0 0 1-.227.551l-1.102 1.103a.75.75 0 0 1-.552.227.75.75 0 0 1-.551-.227l-2.384-2.384-2.384 2.384a.75.75 0 0 1-.551.227.75.75 0 0 1-.552-.227l-1.102-1.103a.75.75 0 0 1-.227-.551c0-.217.075-.4.227-.552l2.384-2.384-2.384-2.383a.75.75 0 0 1-.227-.552c0-.216.075-.4.227-.551l1.102-1.103a.75.75 0 0 1 .552-.227c.216 0 .4.076.551.227l2.384 2.384 2.384-2.384a.75.75 0 0 1 .551-.227c.217 0 .4.076.552.227l1.102 1.103a.75.75 0 0 1 .227.551.75.75 0 0 1-.227.552l-2.383 2.383 2.383 2.384z"/></g><g transform="translate(82 82)"><rect width="310.902" height="47.906" x=".489" y=".489" fill="#FFF" fill-rule="nonzero" stroke="#F2F2F2" stroke-width=".978" rx="4.888"/><rect width="23.464" height="19.554" x="248.331" y="14.665" fill="#0EA7AE" fill-rule="nonzero" rx="2.933"/><rect width="23.464" height="19.554" x="275.706" y="14.665" fill="#F2F2F2" fill-rule="nonzero" rx="2.933"/><path fill="#FFF" d="M264.954 21.557c.122.122.183.27.183.445a.606.606 0 0 1-.183.445l-5.63 5.63a.606.606 0 0 1-.446.184.606.606 0 0 1-.445-.183l-3.26-3.26a.606.606 0 0 1-.184-.446c0-.174.061-.323.183-.445l.89-.89a.606.606 0 0 1 .446-.184c.175 0 .323.061.445.184l1.925 1.93 4.295-4.3a.606.606 0 0 1 .445-.184c.175 0 .323.061.445.184l.89.89z"/><path fill="#D0D0D0" d="M291.309 26.506a.61.61 0 0 1 .183.446.606.606 0 0 1-.183.445l-.89.89a.606.606 0 0 1-.446.184.606.606 0 0 1-.445-.184l-1.925-1.925-1.925 1.925a.606.606 0 0 1-.445.184.606.606 0 0 1-.445-.184l-.89-.89a.606.606 0 0 1-.184-.445.61.61 0 0 1 .183-.446l1.925-1.924-1.925-1.925a.606.606 0 0 1-.183-.445.61.61 0 0 1 .183-.446l.89-.89a.606.606 0 0 1 .446-.183c.175 0 .323.06.445.183l1.925 1.925 1.925-1.925a.606.606 0 0 1 .445-.183c.175 0 .323.06.445.183l.89.89a.606.606 0 0 1 .184.446.606.606 0 0 1-.183.445l-1.925 1.925 1.925 1.924z"/><rect width="57.683" height="9.777" x="32.263" y="19.554" fill="#383737" fill-opacity=".2" fill-rule="nonzero" rx="4.888"/><rect width="70.393" height="9.777" x="133.942" y="19.554" fill="#383737" fill-opacity=".12" fill-rule="nonzero" rx="4.888"/><path fill="#999" d="M125.456 25.795c.016.524.178.939.487 1.244.309.305.698.496 1.167.575v-3.11a8.015 8.015 0 0 1-1.073-.334 2.748 2.748 0 0 1-.751-.434 1.503 1.503 0 0 1-.44-.616 2.442 2.442 0 0 1-.14-.88 2.395 2.395 0 0 1 .698-1.73c.214-.215.468-.385.762-.51.293-.126.608-.2.944-.223v-.775h.645v.786c.634.078 1.138.313 1.514.704.375.391.641.93.798 1.62h-.998c-.156-.775-.594-1.229-1.314-1.362v2.886l.704.188c.157.04.34.108.552.205.211.098.414.233.61.405.195.172.362.387.498.645.137.259.206.568.206.927 0 .384-.065.724-.194 1.021a2.315 2.315 0 0 1-.534.768 2.525 2.525 0 0 1-.81.51 3.562 3.562 0 0 1-1.032.235v.962h-.645v-.962c-.782-.078-1.404-.35-1.865-.815-.462-.465-.724-1.109-.786-1.93h.997zm2.3 1.819a2.4 2.4 0 0 0 .604-.118c.183-.062.344-.154.48-.275.138-.122.243-.274.317-.458.075-.184.112-.4.112-.651 0-.227-.04-.417-.117-.57a1.233 1.233 0 0 0-.317-.392 1.782 1.782 0 0 0-.481-.276 7.128 7.128 0 0 0-.599-.205v2.945zm-.646-6.899a1.67 1.67 0 0 0-.956.405c-.262.23-.393.569-.393 1.015 0 .203.033.377.1.522.066.144.16.266.281.363.121.098.264.182.428.253.165.07.345.133.54.187v-2.745zm-102.249 6.78c0 .524-.16.937-.478 1.24-.319.304-.742.456-1.27.456h-5.722c-.528 0-.952-.152-1.27-.455-.319-.304-.478-.717-.478-1.24 0-.232.008-.458.023-.679a6.668 6.668 0 0 1 .265-1.424c.07-.218.164-.43.281-.638.118-.207.254-.384.406-.53.153-.146.34-.263.56-.35.22-.088.464-.131.73-.131.04 0 .131.047.275.14l.488.315c.181.115.417.22.707.314a2.821 2.821 0 0 0 1.748 0c.29-.094.526-.199.707-.314.181-.116.344-.22.488-.315.144-.093.235-.14.275-.14.266 0 .51.043.73.13.22.088.407.205.56.35.152.147.288.324.405.531.118.207.212.42.282.638a6.668 6.668 0 0 1 .265 1.424c.015.22.023.447.023.678zm-2.835-7.62c.493.488.74 1.08.74 1.774s-.246 1.286-.737 1.777a2.422 2.422 0 0 1-1.777.737 2.422 2.422 0 0 1-1.778-.737 2.422 2.422 0 0 1-.736-1.777c0-.694.245-1.287.736-1.778a2.422 2.422 0 0 1 1.778-.736c.694 0 1.285.246 1.774.74z"/></g><g transform="translate(82 259)"><rect width="310.902" height="47.906" x=".489" y=".489" fill="#FFF" fill-rule="nonzero" stroke="#F2F2F2" stroke-width=".978" rx="4.888"/><rect width="23.464" height="19.554" x="248.331" y="14.665" fill="#0EA7AE" fill-rule="nonzero" rx="2.933"/><rect width="23.464" height="19.554" x="275.706" y="14.665" fill="#F2F2F2" fill-rule="nonzero" rx="2.933"/><path fill="#FFF" d="M264.954 21.557c.122.122.183.27.183.445a.606.606 0 0 1-.183.445l-5.63 5.63a.606.606 0 0 1-.446.184.606.606 0 0 1-.445-.183l-3.26-3.26a.606.606 0 0 1-.184-.446c0-.174.061-.323.183-.445l.89-.89a.606.606 0 0 1 .446-.184c.175 0 .323.061.445.184l1.925 1.93 4.295-4.3a.606.606 0 0 1 .445-.184c.175 0 .323.061.445.184l.89.89z"/><path fill="#D0D0D0" d="M291.309 26.506a.61.61 0 0 1 .183.446.606.606 0 0 1-.183.445l-.89.89a.606.606 0 0 1-.446.184.606.606 0 0 1-.445-.184l-1.925-1.925-1.925 1.925a.606.606 0 0 1-.445.184.606.606 0 0 1-.445-.184l-.89-.89a.606.606 0 0 1-.184-.445.61.61 0 0 1 .183-.446l1.925-1.924-1.925-1.925a.606.606 0 0 1-.183-.445.61.61 0 0 1 .183-.446l.89-.89a.606.606 0 0 1 .446-.183c.175 0 .323.06.445.183l1.925 1.925 1.925-1.925a.606.606 0 0 1 .445-.183c.175 0 .323.06.445.183l.89.89a.606.606 0 0 1 .184.446.606.606 0 0 1-.183.445l-1.925 1.925 1.925 1.924z"/><rect width="57.683" height="9.777" x="32.263" y="19.554" fill="#383737" fill-opacity=".2" fill-rule="nonzero" rx="4.888"/><rect width="70.393" height="9.777" x="133.942" y="19.554" fill="#383737" fill-opacity=".12" fill-rule="nonzero" rx="4.888"/><path fill="#999" d="M125.456 25.795c.016.524.178.939.487 1.244.309.305.698.496 1.167.575v-3.11a8.015 8.015 0 0 1-1.073-.334 2.748 2.748 0 0 1-.751-.434 1.503 1.503 0 0 1-.44-.616 2.442 2.442 0 0 1-.14-.88 2.395 2.395 0 0 1 .698-1.73c.214-.215.468-.385.762-.51.293-.126.608-.2.944-.223v-.775h.645v.786c.634.078 1.138.313 1.514.704.375.391.641.93.798 1.62h-.998c-.156-.775-.594-1.229-1.314-1.362v2.886l.704.188c.157.04.34.108.552.205.211.098.414.233.61.405.195.172.362.387.498.645.137.259.206.568.206.927 0 .384-.065.724-.194 1.021a2.315 2.315 0 0 1-.534.768 2.525 2.525 0 0 1-.81.51 3.562 3.562 0 0 1-1.032.235v.962h-.645v-.962c-.782-.078-1.404-.35-1.865-.815-.462-.465-.724-1.109-.786-1.93h.997zm2.3 1.819a2.4 2.4 0 0 0 .604-.118c.183-.062.344-.154.48-.275.138-.122.243-.274.317-.458.075-.184.112-.4.112-.651 0-.227-.04-.417-.117-.57a1.233 1.233 0 0 0-.317-.392 1.782 1.782 0 0 0-.481-.276 7.128 7.128 0 0 0-.599-.205v2.945zm-.646-6.899a1.67 1.67 0 0 0-.956.405c-.262.23-.393.569-.393 1.015 0 .203.033.377.1.522.066.144.16.266.281.363.121.098.264.182.428.253.165.07.345.133.54.187v-2.745zm-102.249 6.78c0 .524-.16.937-.478 1.24-.319.304-.742.456-1.27.456h-5.722c-.528 0-.952-.152-1.27-.455-.319-.304-.478-.717-.478-1.24 0-.232.008-.458.023-.679a6.668 6.668 0 0 1 .265-1.424c.07-.218.164-.43.281-.638.118-.207.254-.384.406-.53.153-.146.34-.263.56-.35.22-.088.464-.131.73-.131.04 0 .131.047.275.14l.488.315c.181.115.417.22.707.314a2.821 2.821 0 0 0 1.748 0c.29-.094.526-.199.707-.314.181-.116.344-.22.488-.315.144-.093.235-.14.275-.14.266 0 .51.043.73.13.22.088.407.205.56.35.152.147.288.324.405.531.118.207.212.42.282.638a6.668 6.668 0 0 1 .265 1.424c.015.22.023.447.023.678zm-2.835-7.62c.493.488.74 1.08.74 1.774s-.246 1.286-.737 1.777a2.422 2.422 0 0 1-1.777.737 2.422 2.422 0 0 1-1.778-.737 2.422 2.422 0 0 1-.736-1.777c0-.694.245-1.287.736-1.778a2.422 2.422 0 0 1 1.778-.736c.694 0 1.285.246 1.774.74z"/></g><g transform="translate(82 141)"><rect width="310.902" height="47.906" x=".489" y=".489" fill="#FFF" fill-rule="nonzero" stroke="#F2F2F2" stroke-width=".978" rx="4.888"/><rect width="23.464" height="19.554" x="248.331" y="14.665" fill="#0EA7AE" fill-rule="nonzero" rx="2.933"/><rect width="23.464" height="19.554" x="275.706" y="14.665" fill="#F2F2F2" fill-rule="nonzero" rx="2.933"/><path fill="#FFF" d="M264.954 21.557c.122.122.183.27.183.445a.606.606 0 0 1-.183.445l-5.63 5.63a.606.606 0 0 1-.446.184.606.606 0 0 1-.445-.183l-3.26-3.26a.606.606 0 0 1-.184-.446c0-.174.061-.323.183-.445l.89-.89a.606.606 0 0 1 .446-.184c.175 0 .323.061.445.184l1.925 1.93 4.295-4.3a.606.606 0 0 1 .445-.184c.175 0 .323.061.445.184l.89.89z"/><path fill="#D0D0D0" d="M291.309 26.506a.61.61 0 0 1 .183.446.606.606 0 0 1-.183.445l-.89.89a.606.606 0 0 1-.446.184.606.606 0 0 1-.445-.184l-1.925-1.925-1.925 1.925a.606.606 0 0 1-.445.184.606.606 0 0 1-.445-.184l-.89-.89a.606.606 0 0 1-.184-.445.61.61 0 0 1 .183-.446l1.925-1.924-1.925-1.925a.606.606 0 0 1-.183-.445.61.61 0 0 1 .183-.446l.89-.89a.606.606 0 0 1 .446-.183c.175 0 .323.06.445.183l1.925 1.925 1.925-1.925a.606.606 0 0 1 .445-.183c.175 0 .323.06.445.183l.89.89a.606.606 0 0 1 .184.446.606.606 0 0 1-.183.445l-1.925 1.925 1.925 1.924z"/><rect width="82.125" height="9.777" x="32.263" y="19.554" fill="#383737" fill-opacity=".2" fill-rule="nonzero" rx="4.888"/><rect width="50.839" height="9.777" x="133.942" y="19.554" fill="#383737" fill-opacity=".12" fill-rule="nonzero" rx="4.888"/><path fill="#999" d="M125.456 25.795c.016.524.178.939.487 1.244.309.305.698.496 1.167.575v-3.11a8.015 8.015 0 0 1-1.073-.334 2.748 2.748 0 0 1-.751-.434 1.503 1.503 0 0 1-.44-.616 2.442 2.442 0 0 1-.14-.88 2.395 2.395 0 0 1 .698-1.73c.214-.215.468-.385.762-.51.293-.126.608-.2.944-.223v-.775h.645v.786c.634.078 1.138.313 1.514.704.375.391.641.93.798 1.62h-.998c-.156-.775-.594-1.229-1.314-1.362v2.886l.704.188c.157.04.34.108.552.205.211.098.414.233.61.405.195.172.362.387.498.645.137.259.206.568.206.927 0 .384-.065.724-.194 1.021a2.315 2.315 0 0 1-.534.768 2.525 2.525 0 0 1-.81.51 3.562 3.562 0 0 1-1.032.235v.962h-.645v-.962c-.782-.078-1.404-.35-1.865-.815-.462-.465-.724-1.109-.786-1.93h.997zm2.3 1.819a2.4 2.4 0 0 0 .604-.118c.183-.062.344-.154.48-.275.138-.122.243-.274.317-.458.075-.184.112-.4.112-.651 0-.227-.04-.417-.117-.57a1.233 1.233 0 0 0-.317-.392 1.782 1.782 0 0 0-.481-.276 7.128 7.128 0 0 0-.599-.205v2.945zm-.646-6.899a1.67 1.67 0 0 0-.956.405c-.262.23-.393.569-.393 1.015 0 .203.033.377.1.522.066.144.16.266.281.363.121.098.264.182.428.253.165.07.345.133.54.187v-2.745zm-102.249 6.78c0 .524-.16.937-.478 1.24-.319.304-.742.456-1.27.456h-5.722c-.528 0-.952-.152-1.27-.455-.319-.304-.478-.717-.478-1.24 0-.232.008-.458.023-.679a6.668 6.668 0 0 1 .265-1.424c.07-.218.164-.43.281-.638.118-.207.254-.384.406-.53.153-.146.34-.263.56-.35.22-.088.464-.131.73-.131.04 0 .131.047.275.14l.488.315c.181.115.417.22.707.314a2.821 2.821 0 0 0 1.748 0c.29-.094.526-.199.707-.314.181-.116.344-.22.488-.315.144-.093.235-.14.275-.14.266 0 .51.043.73.13.22.088.407.205.56.35.152.147.288.324.405.531.118.207.212.42.282.638a6.668 6.668 0 0 1 .265 1.424c.015.22.023.447.023.678zm-2.835-7.62c.493.488.74 1.08.74 1.774s-.246 1.286-.737 1.777a2.422 2.422 0 0 1-1.777.737 2.422 2.422 0 0 1-1.778-.737 2.422 2.422 0 0 1-.736-1.777c0-.694.245-1.287.736-1.778a2.422 2.422 0 0 1 1.778-.736c.694 0 1.285.246 1.774.74z"/></g><g transform="translate(82 200)"><rect width="310.902" height="47.906" x=".489" y=".489" fill="#FFF" fill-rule="nonzero" stroke="#F2F2F2" stroke-width=".978" rx="4.888"/><rect width="23.464" height="19.554" x="248.331" y="14.665" fill="#0EA7AE" fill-rule="nonzero" rx="2.933"/><rect width="23.464" height="19.554" x="275.706" y="14.665" fill="#F2F2F2" fill-rule="nonzero" rx="2.933"/><path fill="#FFF" d="M264.954 21.557c.122.122.183.27.183.445a.606.606 0 0 1-.183.445l-5.63 5.63a.606.606 0 0 1-.446.184.606.606 0 0 1-.445-.183l-3.26-3.26a.606.606 0 0 1-.184-.446c0-.174.061-.323.183-.445l.89-.89a.606.606 0 0 1 .446-.184c.175 0 .323.061.445.184l1.925 1.93 4.295-4.3a.606.606 0 0 1 .445-.184c.175 0 .323.061.445.184l.89.89z"/><path fill="#D0D0D0" d="M291.309 26.506a.61.61 0 0 1 .183.446.606.606 0 0 1-.183.445l-.89.89a.606.606 0 0 1-.446.184.606.606 0 0 1-.445-.184l-1.925-1.925-1.925 1.925a.606.606 0 0 1-.445.184.606.606 0 0 1-.445-.184l-.89-.89a.606.606 0 0 1-.184-.445.61.61 0 0 1 .183-.446l1.925-1.924-1.925-1.925a.606.606 0 0 1-.183-.445.61.61 0 0 1 .183-.446l.89-.89a.606.606 0 0 1 .446-.183c.175 0 .323.06.445.183l1.925 1.925 1.925-1.925a.606.606 0 0 1 .445-.183c.175 0 .323.06.445.183l.89.89a.606.606 0 0 1 .184.446.606.606 0 0 1-.183.445l-1.925 1.925 1.925 1.924z"/><rect width="76.259" height="9.777" x="32.263" y="19.554" fill="#383737" fill-opacity=".2" fill-rule="nonzero" rx="4.888"/><rect width="58.661" height="9.777" x="133.942" y="19.554" fill="#383737" fill-opacity=".12" fill-rule="nonzero" rx="4.888"/><path fill="#999" d="M125.456 25.795c.016.524.178.939.487 1.244.309.305.698.496 1.167.575v-3.11a8.015 8.015 0 0 1-1.073-.334 2.748 2.748 0 0 1-.751-.434 1.503 1.503 0 0 1-.44-.616 2.442 2.442 0 0 1-.14-.88 2.395 2.395 0 0 1 .698-1.73c.214-.215.468-.385.762-.51.293-.126.608-.2.944-.223v-.775h.645v.786c.634.078 1.138.313 1.514.704.375.391.641.93.798 1.62h-.998c-.156-.775-.594-1.229-1.314-1.362v2.886l.704.188c.157.04.34.108.552.205.211.098.414.233.61.405.195.172.362.387.498.645.137.259.206.568.206.927 0 .384-.065.724-.194 1.021a2.315 2.315 0 0 1-.534.768 2.525 2.525 0 0 1-.81.51 3.562 3.562 0 0 1-1.032.235v.962h-.645v-.962c-.782-.078-1.404-.35-1.865-.815-.462-.465-.724-1.109-.786-1.93h.997zm2.3 1.819a2.4 2.4 0 0 0 .604-.118c.183-.062.344-.154.48-.275.138-.122.243-.274.317-.458.075-.184.112-.4.112-.651 0-.227-.04-.417-.117-.57a1.233 1.233 0 0 0-.317-.392 1.782 1.782 0 0 0-.481-.276 7.128 7.128 0 0 0-.599-.205v2.945zm-.646-6.899a1.67 1.67 0 0 0-.956.405c-.262.23-.393.569-.393 1.015 0 .203.033.377.1.522.066.144.16.266.281.363.121.098.264.182.428.253.165.07.345.133.54.187v-2.745zm-102.249 6.78c0 .524-.16.937-.478 1.24-.319.304-.742.456-1.27.456h-5.722c-.528 0-.952-.152-1.27-.455-.319-.304-.478-.717-.478-1.24 0-.232.008-.458.023-.679a6.668 6.668 0 0 1 .265-1.424c.07-.218.164-.43.281-.638.118-.207.254-.384.406-.53.153-.146.34-.263.56-.35.22-.088.464-.131.73-.131.04 0 .131.047.275.14l.488.315c.181.115.417.22.707.314a2.821 2.821 0 0 0 1.748 0c.29-.094.526-.199.707-.314.181-.116.344-.22.488-.315.144-.093.235-.14.275-.14.266 0 .51.043.73.13.22.088.407.205.56.35.152.147.288.324.405.531.118.207.212.42.282.638a6.668 6.668 0 0 1 .265 1.424c.015.22.023.447.023.678zm-2.835-7.62c.493.488.74 1.08.74 1.774s-.246 1.286-.737 1.777a2.422 2.422 0 0 1-1.777.737 2.422 2.422 0 0 1-1.778-.737 2.422 2.422 0 0 1-.736-1.777c0-.694.245-1.287.736-1.778a2.422 2.422 0 0 1 1.778-.736c.694 0 1.285.246 1.774.74z"/></g></g></svg>