<svg xmlns="http://www.w3.org/2000/svg" xmlns:xlink="http://www.w3.org/1999/xlink" width="410" height="320"><defs><rect id="b" width="59.815" height="50.05" rx="3.738"/><filter id="a" width="166.9%" height="179.9%" x="-33.4%" y="-20%" filterUnits="objectBoundingBox"><feOffset dy="10" in="SourceAlpha" result="shadowOffsetOuter1"/><feGaussianBlur in="shadowOffsetOuter1" result="shadowBlurOuter1" stdDeviation="5"/><feComposite in="shadowBlurOuter1" in2="SourceAlpha" operator="out" result="shadowBlurOuter1"/><feColorMatrix in="shadowBlurOuter1" values="0 0 0 0 0.0549019608 0 0 0 0 0.654901961 0 0 0 0 0.682352941 0 0 0 0.42 0"/></filter></defs><g fill="none" fill-rule="evenodd"><g fill-rule="nonzero" transform="translate(7 63)"><rect width="322.754" height="245.248" x=".623" y=".623" fill="#FFF" stroke="#F2F2F2" stroke-width="1.246" rx="6.231"/><rect width="87.231" height="15.015" x="13.708" y="16.266" fill="#383737" fill-opacity=".12" rx="7.477"/><rect width="56.077" height="10.01" x="249.231" y="18.769" fill="#383737" fill-opacity=".22" rx="5.005"/><path stroke="#F2F2F2" stroke-width="1.246" d="M0 50.675h324"/><g transform="translate(0 51.3)"><path fill="#FFF" stroke="#F2F2F2" stroke-width="1.246" d="M.623.623h46.108v38.794H.623zm46.108 0h46.108v38.794H46.731z"/><path fill="#FFF" stroke="#F2F2F2" stroke-width="1.246" d="M92.838.623h46.108v38.794H92.838zm46.108 0h46.108v38.794h-46.108zm46.108 0h46.108v38.794h-46.108z"/><path fill="#FFF" stroke="#F2F2F2" stroke-width="1.246" d="M231.162.623h46.286v38.794h-46.286z"/><path fill="#FFF" stroke="#F2F2F2" stroke-width="1.246" d="M277.269.623h46.286v38.794h-46.286z"/><rect width="17.446" height="6.256" x="145.8" y="6.256" fill="#383737" fill-opacity=".12" rx="3.115"/><rect width="17.446" height="6.256" x="191.908" y="6.256" fill="#383737" fill-opacity=".12" rx="3.115"/><rect width="17.446" height="6.256" x="238.015" y="6.256" fill="#383737" fill-opacity=".12" rx="3.115"/><rect width="17.446" height="6.256" x="284.123" y="6.256" fill="#383737" fill-opacity=".09" rx="3.115"/></g><g transform="translate(0 70.07)"><path fill="#FFF" stroke="#F2F2F2" stroke-width="1.246" d="M.623 20.643h46.108v38.794H.623zm46.108 0h46.108v38.794H46.731zm92.215 0h46.108v38.794h-46.108zm46.108 0h46.108v38.794h-46.108z"/><rect width="32.4" height="5.005" x="191.908" y="36.286" fill="#F2F2F2" rx="2.492"/><rect width="32.4" height="5.005" x="147.046" fill="#F2F2F2" rx="2.492"/><path fill="#FFF" stroke="#F2F2F2" stroke-width="1.246" d="M231.162 20.643h46.286v38.794h-46.286z"/><path fill="#FFF" stroke="#F2F2F2" stroke-width="1.246" d="M277.269 20.643h46.286v38.794h-46.286z"/><rect width="17.446" height="6.256" x="6.231" y="26.276" fill="#383737" fill-opacity=".12" rx="3.115"/><rect width="17.446" height="6.256" x="52.338" y="26.276" fill="#383737" fill-opacity=".12" rx="3.115"/><rect width="17.446" height="6.256" x="145.8" y="26.276" fill="#383737" fill-opacity=".12" rx="3.115"/><rect width="17.446" height="6.256" x="97.2" y="26.276" fill="#383737" fill-opacity=".12" rx="3.115"/><rect width="17.446" height="6.256" x="191.908" y="26.276" fill="#383737" fill-opacity=".12" rx="3.115"/><rect width="17.446" height="6.256" x="238.015" y="26.276" fill="#383737" fill-opacity=".12" rx="3.115"/><rect width="17.446" height="6.256" x="284.123" y="26.276" fill="#383737" fill-opacity=".09" rx="3.115"/></g><g transform="translate(0 128.878)"><path fill="#FFF" stroke="#F2F2F2" stroke-width="1.246" d="M.623.623h46.108v38.794H.623zm46.108 0h46.108v38.794H46.731z"/><path fill="#FFF" stroke="#F2F2F2" stroke-width="1.246" d="M92.838.623h46.108v38.794H92.838zm46.108 0h46.108v38.794h-46.108zm46.108 0h46.108v38.794h-46.108z"/><path fill="#FFF" stroke="#F2F2F2" stroke-width="1.246" d="M231.162.623h46.286v38.794h-46.286z"/><path fill="#FFF" stroke="#F2F2F2" stroke-width="1.246" d="M277.269.623h46.286v38.794h-46.286z"/><rect width="17.446" height="6.256" x="6.231" y="6.256" fill="#383737" fill-opacity=".12" rx="3.115"/><rect width="17.446" height="6.256" x="52.338" y="6.256" fill="#383737" fill-opacity=".12" rx="3.115"/><rect width="17.446" height="6.256" x="99.692" y="6.256" fill="#383737" fill-opacity=".12" rx="3.115"/><rect width="17.446" height="6.256" x="145.8" y="6.256" fill="#383737" fill-opacity=".12" rx="3.115"/><rect width="17.446" height="6.256" x="191.908" y="6.256" fill="#383737" fill-opacity=".12" rx="3.115"/><rect width="17.446" height="6.256" x="238.015" y="6.256" fill="#383737" fill-opacity=".12" rx="3.115"/><rect width="17.446" height="6.256" x="284.123" y="6.256" fill="#383737" fill-opacity=".09" rx="3.115"/></g><g transform="translate(0 167.666)"><path fill="#FFF" stroke="#F2F2F2" stroke-width="1.246" d="M.623.623h46.108v38.794H.623zm46.108 0h46.108v38.794H46.731z"/><path fill="#FFF" stroke="#F2F2F2" stroke-width="1.246" d="M92.838.623h46.108v38.794H92.838zm46.108 0h46.108v38.794h-46.108zm46.108 0h46.108v38.794h-46.108z"/><path fill="#FFF" stroke="#F2F2F2" stroke-width="1.246" d="M231.162.623h46.286v38.794h-46.286z"/><path fill="#FFF" stroke="#F2F2F2" stroke-width="1.246" d="M277.269.623h46.286v38.794h-46.286z"/><rect width="17.446" height="6.256" x="6.231" y="6.256" fill="#383737" fill-opacity=".12" rx="3.115"/><rect width="17.446" height="6.256" x="52.338" y="6.256" fill="#383737" fill-opacity=".12" rx="3.115"/><rect width="17.446" height="6.256" x="99.692" y="6.256" fill="#383737" fill-opacity=".12" rx="3.115"/><rect width="17.446" height="6.256" x="145.8" y="6.256" fill="#383737" fill-opacity=".12" rx="3.115"/><rect width="17.446" height="6.256" x="191.908" y="6.256" fill="#383737" fill-opacity=".12" rx="3.115"/><rect width="17.446" height="6.256" x="238.015" y="6.256" fill="#383737" fill-opacity=".12" rx="3.115"/><rect width="17.446" height="6.256" x="284.123" y="6.256" fill="#383737" fill-opacity=".09" rx="3.115"/></g><g transform="translate(0 206.455)"><path fill="#FFF" stroke="#F2F2F2" stroke-width="1.246" d="M.623.623V33.81a5.608 5.608 0 0 0 5.608 5.608h40.5V.623H.623zm46.108 0h46.108v38.794H46.731z"/><path fill="#FFF" stroke="#F2F2F2" stroke-width="1.246" d="M92.838.623h46.108v38.794H92.838zm46.108 0h46.108v38.794h-46.108zm46.108 0h46.108v38.794h-46.108z"/><path fill="#FFF" stroke="#F2F2F2" stroke-width="1.246" d="M231.162.623h46.286v38.794h-46.286z"/><path fill="#FFF" stroke="#F2F2F2" stroke-width="1.246" d="M277.27.623v38.794h40.677a5.608 5.608 0 0 0 5.608-5.608V.623h-46.286z"/><rect width="17.446" height="6.256" x="6.231" y="6.256" fill="#383737" fill-opacity=".12" rx="3.115"/><rect width="17.446" height="6.256" x="52.338" y="6.256" fill="#383737" fill-opacity=".12" rx="3.115"/><rect width="17.446" height="6.256" x="99.692" y="6.256" fill="#383737" fill-opacity=".12" rx="3.115"/><rect width="17.446" height="6.256" x="145.8" y="6.256" fill="#383737" fill-opacity=".12" rx="3.115"/><rect width="17.446" height="6.256" x="191.908" y="6.256" fill="#383737" fill-opacity=".12" rx="3.115"/><rect width="17.446" height="6.256" x="238.015" y="6.256" fill="#383737" fill-opacity=".12" rx="3.115"/><rect width="17.446" height="6.256" x="284.123" y="6.256" fill="#383737" fill-opacity=".09" rx="3.115"/></g><g transform="translate(85.985 85.084)"><use fill="#000" filter="url(#a)" xlink:href="#b"/><rect width="58.569" height="48.803" x=".623" y=".623" fill="#FFF" fill-rule="evenodd" stroke="#0EA7AE" stroke-linejoin="square" stroke-width="1.246" rx="3.738"/><rect width="17.446" height="6.256" x="6.231" y="6.256" fill="#0EA7AE" rx="3.115"/><rect width="47.354" height="5.005" x="6.231" y="18.769" fill="#35BBC2" fill-opacity=".51" rx="2.492"/><rect width="38.631" height="5.005" x="6.231" y="26.276" fill="#FFBA2D" rx="2.492"/></g><rect width="32.4" height="5.005" x="147.046" y="145.144" fill="#F2F2F2" rx="2.492"/><rect width="32.4" height="5.005" x="6.231" y="106.355" fill="#F2F2F2" rx="2.492"/><rect width="32.4" height="5.005" x="238.015" y="106.355" fill="#F2F2F2" rx="2.492"/><rect width="24.923" height="5.005" x="191.908" y="145.144" fill="#F2F2F2" rx="2.492"/><rect width="24.923" height="5.005" x="191.908" y="152.651" fill="#F2F2F2" rx="2.492"/><rect width="24.923" height="5.005" x="145.8" y="183.932" fill="#F2F2F2" rx="2.492"/><rect width="24.923" height="5.005" x="191.908" y="183.932" fill="#F2F2F2" rx="2.492"/><rect width="32.4" height="5.005" x="53.585" y="183.932" fill="#F2F2F2" rx="2.492"/><rect width="32.4" height="5.005" x="6.231" y="222.721" fill="#F2F2F2" rx="2.492"/><rect width="32.4" height="5.005" x="6.231" y="145.144" fill="#F2F2F2" rx="2.492"/><rect width="22.431" height="5.005" x="6.231" y="152.651" fill="#F2F2F2" rx="2.492"/><rect width="22.431" height="5.005" x="99.692" y="222.721" fill="#F2F2F2" rx="2.492"/><rect width="22.431" height="5.005" x="191.908" y="222.721" fill="#F2F2F2" rx="2.492"/><rect width="29.908" height="5.005" x="191.908" y="230.228" fill="#F2F2F2" rx="2.492"/></g><g transform="translate(122 10)"><rect width="270.741" height="82.581" x=".523" y=".523" fill="#FFF" fill-rule="nonzero" stroke="#F2F2F2" stroke-width="1.045" rx="5.227"/><rect width="43.904" height="8.363" x="80.491" y="20.907" fill="#0EA7AE" fill-rule="nonzero" rx="4.181"/><rect width="135.893" height="8.363" x="80.491" y="41.813" fill="#383737" fill-opacity=".12" fill-rule="nonzero" rx="4.181"/><rect width="81.536" height="8.363" x="80.491" y="55.403" fill="#383737" fill-opacity=".12" fill-rule="nonzero" rx="4.181"/><g fill="#0EA7AE" transform="translate(19.861 19.861)"><rect width="43.904" height="43.904" fill-opacity=".15" fill-rule="nonzero" rx="21.952"/><path d="M21.952 31.323c.124 0 .187-.063.187-.187s-.063-.187-.187-.187c-.459 0-.854-.165-1.184-.496a1.616 1.616 0 0 1-.496-1.184c0-.124-.062-.186-.187-.186-.124 0-.186.062-.186.186 0 .568.2 1.052.6 1.453.401.4.885.6 1.453.6zm-7.583-3.547h15.166c-2.069-2.333-3.103-5.569-3.103-9.707 0-.396-.093-.805-.28-1.225a4.457 4.457 0 0 0-.805-1.201c-.35-.381-.822-.694-1.418-.94a5.147 5.147 0 0 0-1.977-.367c-.723 0-1.382.122-1.978.367-.595.246-1.067.559-1.417.94-.35.38-.618.781-.805 1.201-.187.42-.28.829-.28 1.225 0 4.138-1.034 7.374-3.103 9.707zm17.29 0c0 .404-.148.754-.444 1.05a1.435 1.435 0 0 1-1.05.443H24.94c0 .825-.292 1.529-.875 2.112a2.878 2.878 0 0 1-2.112.875 2.878 2.878 0 0 1-2.112-.875 2.878 2.878 0 0 1-.875-2.112H13.74c-.405 0-.755-.147-1.05-.443a1.435 1.435 0 0 1-.444-1.05c.39-.327.743-.669 1.062-1.027.319-.357.65-.822.992-1.394a10.48 10.48 0 0 0 .869-1.849c.237-.661.431-1.462.583-2.403.152-.941.228-1.953.228-3.034 0-1.182.455-2.28 1.365-3.296.91-1.015 2.104-1.63 3.581-1.849a1.162 1.162 0 0 1-.093-.455c0-.31.109-.575.327-.793a1.08 1.08 0 0 1 .793-.327c.311 0 .576.11.793.327.218.218.327.482.327.793 0 .156-.031.308-.093.455 1.477.218 2.671.834 3.581 1.85.91 1.015 1.365 2.113 1.365 3.295 0 1.081.076 2.093.228 3.034.151.94.346 1.742.583 2.403s.527 1.277.87 1.85c.342.57.672 1.036.991 1.393.319.358.673.7 1.062 1.027z"/></g><path fill="#D0D0D0" d="M259.77 17.887c.13.131.196.29.196.476a.648.648 0 0 1-.196.476l-.952.952a.648.648 0 0 1-.476.196.648.648 0 0 1-.476-.196l-2.058-2.058-2.058 2.058a.648.648 0 0 1-.476.196.648.648 0 0 1-.476-.196l-.952-.952a.648.648 0 0 1-.196-.476c0-.186.065-.345.196-.476l2.058-2.058-2.058-2.058a.648.648 0 0 1-.196-.476c0-.186.065-.345.196-.476l.952-.952a.65.65 0 0 1 .476-.196.65.65 0 0 1 .476.196l2.058 2.058 2.058-2.058a.65.65 0 0 1 .476-.196.65.65 0 0 1 .476.196l.952.952c.13.131.196.29.196.476a.648.648 0 0 1-.196.476l-2.058 2.058 2.058 2.058z"/></g></g></svg>