<svg xmlns="http://www.w3.org/2000/svg" width="407" height="319"><g fill="none" fill-rule="evenodd"><g transform="translate(81 4)"><rect width="318" height="49" x=".5" y=".5" fill="#FFF" fill-rule="nonzero" stroke="#F2F2F2" rx="5"/><rect width="61" height="8" x="224" y="22" fill="#0EA7AE" fill-opacity=".2" fill-rule="nonzero" rx="4"/><rect width="67" height="12" x="40" y="20" fill="#D0D0D0" fill-rule="nonzero" rx="6"/><text fill="#D0D0D0" font-family="FontAwesome" font-size="16"><tspan x="15" y="31"></tspan></text></g><g transform="translate(14 69)"><rect width="346.311" height="54.371" x=".545" y=".545" fill="#FFF" fill-rule="nonzero" stroke="#F2F2F2" stroke-width="1.089" rx="5.445"/><rect width="49.006" height="8.874" x="261.367" y="24.402" fill="#0EA7AE" fill-opacity=".2" fill-rule="nonzero" rx="4.437"/><rect width="90.389" height="13.31" x="43.561" y="22.184" fill="#D0D0D0" fill-rule="nonzero" rx="6.534"/><text fill="#D0D0D0" font-family="FontAwesome" font-size="17.424"><tspan x="16.335" y="34.023"></tspan></text></g><g transform="translate(81 139)"><rect width="318" height="49" x=".5" y=".5" fill="#FFF" fill-rule="nonzero" stroke="#F2F2F2" rx="5"/><rect width="61" height="8" x="224" y="22" fill="#0EA7AE" fill-opacity=".2" fill-rule="nonzero" rx="4"/><rect width="67" height="12" x="40" y="20" fill="#D0D0D0" fill-rule="nonzero" rx="6"/><text fill="#D0D0D0" font-family="FontAwesome" font-size="16"><tspan x="15" y="31"></tspan></text></g><g transform="translate(81 199)"><rect width="318" height="49" x=".5" y=".5" fill="#FFF" fill-rule="nonzero" stroke="#F2F2F2" rx="5"/><rect width="61" height="8" x="224" y="22" fill="#0EA7AE" fill-opacity=".2" fill-rule="nonzero" rx="4"/><rect width="67" height="12" x="40" y="20" fill="#D0D0D0" fill-rule="nonzero" rx="6"/><text fill="#D0D0D0" font-family="FontAwesome" font-size="16"><tspan x="15" y="31"></tspan></text></g><g transform="translate(81 259)"><rect width="318" height="49" x=".5" y=".5" fill="#FFF" fill-rule="nonzero" stroke="#F2F2F2" rx="5"/><rect width="61" height="8" x="224" y="22" fill="#0EA7AE" fill-opacity=".2" fill-rule="nonzero" rx="4"/><rect width="67" height="12" x="40" y="20" fill="#D0D0D0" fill-rule="nonzero" rx="6"/><text fill="#D0D0D0" font-family="FontAwesome" font-size="16"><tspan x="15" y="31"></tspan></text></g></g></svg>