<svg xmlns="http://www.w3.org/2000/svg" xmlns:xlink="http://www.w3.org/1999/xlink" width="600" height="339"><defs><linearGradient id="a" x1="50%" x2="50%" y1="0%" y2="100%"><stop offset="0%" stop-color="#4FD5D8"/><stop offset="100%" stop-color="#0EA7AE"/></linearGradient><rect id="d" width="380" height="260" rx="3"/><filter id="b" width="103.2%" height="104.6%" x="-1.6%" y="-1.5%" filterUnits="objectBoundingBox"><feGaussianBlur in="SourceGraphic"/></filter><filter id="c" width="105.3%" height="107.7%" x="-2.6%" y="-3.1%" filterUnits="objectBoundingBox"><feOffset dy="2" in="SourceAlpha" result="shadowOffsetOuter1"/><feGaussianBlur in="shadowOffsetOuter1" result="shadowBlurOuter1" stdDeviation="3"/><feComposite in="shadowBlurOuter1" in2="SourceAlpha" operator="out" result="shadowBlurOuter1"/><feColorMatrix in="shadowBlurOuter1" values="0 0 0 0 0 0 0 0 0 0 0 0 0 0 0 0 0 0 0.1 0"/></filter><rect id="g" width="127" height="150" rx="3"/><filter id="e" width="109.4%" height="108%" x="-4.7%" y="-2.7%" filterUnits="objectBoundingBox"><feGaussianBlur in="SourceGraphic"/></filter><filter id="f" width="115.7%" height="113.3%" x="-7.9%" y="-5.3%" filterUnits="objectBoundingBox"><feOffset dy="2" in="SourceAlpha" result="shadowOffsetOuter1"/><feGaussianBlur in="shadowOffsetOuter1" result="shadowBlurOuter1" stdDeviation="3"/><feComposite in="shadowBlurOuter1" in2="SourceAlpha" operator="out" result="shadowBlurOuter1"/><feColorMatrix in="shadowBlurOuter1" values="0 0 0 0 0 0 0 0 0 0 0 0 0 0 0 0 0 0 0.1 0"/></filter><path id="h" d="M18.937 43.976C25.022 28.637 39.995 17.791 57.5 17.791h5.73c22.905 0 41.473 18.568 41.473 41.472v6.136c0 22.905-18.568 41.472-41.472 41.472H57.5c-1.092 0-2.173-.042-3.243-.124l5.157-54.45-40.478-8.32z"/><path id="j" d="M63.08 58.087l32.12 64.04H30.959z"/><rect id="k" width="22.943" height="9.148" x="51.608" y="94.681" rx="4.574"/><rect id="l" width="22.943" height="9.148" x="51.608" y="58.087" rx="4.574"/><rect id="m" width="32.121" height="6.861" x="47.019" y="71.81" rx="3.431"/><rect id="p" width="127" height="102" rx="3"/><filter id="n" width="109.4%" height="111.8%" x="-4.7%" y="-3.9%" filterUnits="objectBoundingBox"><feGaussianBlur in="SourceGraphic"/></filter><filter id="o" width="115.7%" height="119.6%" x="-7.9%" y="-7.8%" filterUnits="objectBoundingBox"><feOffset dy="2" in="SourceAlpha" result="shadowOffsetOuter1"/><feGaussianBlur in="shadowOffsetOuter1" result="shadowBlurOuter1" stdDeviation="3"/><feComposite in="shadowBlurOuter1" in2="SourceAlpha" operator="out" result="shadowBlurOuter1"/><feColorMatrix in="shadowBlurOuter1" values="0 0 0 0 0 0 0 0 0 0 0 0 0 0 0 0 0 0 0.1 0"/></filter><linearGradient id="q" x1="50%" x2="50%" y1="31.86%" y2="98.553%"><stop offset="0%" stop-color="#8DEDEF"/><stop offset="100%" stop-color="#FFF"/></linearGradient></defs><g fill="none" fill-rule="evenodd"><rect width="460" height="339" fill="#FFF" fill-rule="nonzero" rx="6"/><rect width="292" height="338" x="308" y="1" fill="url(#a)" fill-rule="nonzero" rx="6"/><g fill-rule="nonzero"><g filter="url(#b)" transform="translate(47 39)"><use fill="#000" filter="url(#c)" xlink:href="#d"/><rect width="379" height="259" x=".5" y=".5" fill="#FFF" fill-rule="evenodd" stroke="#F2F2F2" stroke-linejoin="square" rx="3"/></g><g transform="translate(47 58)"><path stroke="#F2F2F2" d="M0 47h380M0 79h380"/><rect width="54" height="8" x="146" y="59" fill="#F2F2F2" rx="4"/><rect width="54" height="8" x="18" y="30" fill="#E3E3E3" rx="4"/><rect width="27" height="8" x="146" y="30" fill="#E3E3E3" rx="4"/><rect width="27" height="8" x="223" y="30" fill="#E3E3E3" rx="4"/><rect width="27" height="8" x="300" y="30" fill="#E3E3E3" rx="4"/><rect width="54" height="8" x="223" y="59" fill="#F2F2F2" rx="4"/><rect width="54" height="8" x="300" y="59" fill="#F2F2F2" rx="4"/><rect width="72" height="8" x="18" y="59" fill="#0EA7AE" fill-opacity=".28" rx="4"/><rect width="82" height="12" x="18" fill="#D3D3D3" rx="6"/><rect width="53" height="12" x="307" fill="#0EA7AE" rx="6"/></g><g transform="translate(47 149)"><path stroke="#F2F2F2" d="M0 20h380"/><rect width="54" height="8" x="146" fill="#F2F2F2" rx="4"/><rect width="54" height="8" x="223" fill="#F2F2F2" rx="4"/><rect width="40" height="8" x="300" fill="#F2F2F2" rx="4"/><rect width="108" height="8" x="18" fill="#0EA7AE" fill-opacity=".28" rx="4"/></g><g transform="translate(47 181)"><path stroke="#F2F2F2" d="M0 20h380"/><rect width="54" height="8" x="146" fill="#F2F2F2" rx="4"/><rect width="54" height="8" x="223" fill="#F2F2F2" rx="4"/><rect width="54" height="8" x="300" fill="#F2F2F2" rx="4"/><rect width="101" height="8" x="18" fill="#0EA7AE" fill-opacity=".28" rx="4"/></g><g transform="translate(47 213)"><path stroke="#F2F2F2" d="M0 20h380"/><rect width="54" height="8" x="146" fill="#F2F2F2" rx="4"/><rect width="54" height="8" x="223" fill="#F2F2F2" rx="4"/><rect width="35" height="8" x="300" fill="#F2F2F2" rx="4"/><rect width="111" height="8" x="18" fill="#0EA7AE" fill-opacity=".28" rx="4"/></g><g transform="translate(65 245)"><rect width="54" height="8" x="128" fill="#F2F2F2" rx="4"/><rect width="54" height="8" x="205" fill="#F2F2F2" rx="4"/><rect width="62" height="8" x="282" fill="#F2F2F2" rx="4"/><rect width="68" height="8" fill="#0EA7AE" fill-opacity=".28" rx="4"/></g><g transform="translate(47 264)"><path stroke="#F2F2F2" d="M0 1h380"/><rect width="54" height="8" x="146" y="13" fill="#F2F2F2" rx="4"/><rect width="54" height="8" x="223" y="13" fill="#F2F2F2" rx="4"/><rect width="40" height="8" x="300" y="13" fill="#F2F2F2" rx="4"/><rect width="88" height="8" x="18" y="13" fill="#0EA7AE" fill-opacity=".28" rx="4"/></g></g><g transform="translate(435 39)"><g fill-rule="nonzero" filter="url(#e)"><use fill="#000" filter="url(#f)" xlink:href="#g"/><rect width="126" height="149" x=".5" y=".5" fill="#FFF" fill-rule="evenodd" stroke="#F2F2F2" stroke-linejoin="square" rx="3"/></g><rect width="68.772" height="68.512" x="28.693" y="32.979" stroke="#F2F2F2" stroke-width="13.824" rx="34.256"/><mask id="i" fill="#fff"><use xlink:href="#h"/></mask><rect width="68.791" height="68.546" x="28.684" y="32.962" stroke="#35BBC2" stroke-width="9.216" mask="url(#i)" rx="34.273"/><rect width="74.551" height="74.306" x="25.804" y="30.082" stroke="#0EA7AE" stroke-width="3.456" mask="url(#i)" rx="37.153"/><use fill="#FFF" fill-rule="nonzero" xlink:href="#j"/><use fill="#D0D0D0" fill-rule="nonzero" xlink:href="#k"/><use fill="#999" fill-rule="nonzero" xlink:href="#l"/><use fill="#D0D0D0" fill-rule="nonzero" xlink:href="#m"/><rect width="56" height="5" x="36" y="127" fill="#EAEAEA" fill-rule="nonzero" rx="2.5"/><rect width="78" height="5" x="25" y="118" fill="#EAEAEA" fill-rule="nonzero" rx="2.5"/></g><g fill-rule="nonzero"><g filter="url(#n)" transform="translate(435 197)"><use fill="#000" filter="url(#o)" xlink:href="#p"/><rect width="126" height="101" x=".5" y=".5" fill="#FFF" fill-rule="evenodd" stroke="#F2F2F2" stroke-linejoin="square" rx="3"/></g><g transform="translate(449 211)"><path fill="url(#q)" fill-opacity=".22" d="M0 31.821c10.526-18.857 26.974-24.75 49.342-17.678C71.711 21.214 88.158 16.5 98.684 0v39H0v-7.179z"/><path stroke="#35BBC2" stroke-linecap="round" d="M0 31.821c10.526-18.857 26.974-24.75 49.342-17.678C71.711 21.214 88.158 16.5 98.684 0"/><rect width="99" height="2" y="39" fill="#F2F2F2" rx="1"/><rect width="78" height="5" y="59" fill="#EAEAEA" rx="2.5"/><rect width="49" height="5" y="50" fill="#EAEAEA" rx="2.5"/><rect width="49" height="5" y="68" fill="#EAEAEA" rx="2.5"/></g></g></g></svg>