<svg xmlns="http://www.w3.org/2000/svg" width="401" height="392"><g fill="none" fill-rule="evenodd"><g transform="translate(170 35)"><rect width="223" height="309" x=".5" y=".5" fill="#FFF" fill-rule="nonzero" stroke="#F2F2F2" rx="5"/><rect width="223" height="309" x=".5" y=".5" fill="#FFF" fill-rule="nonzero" stroke="#F2F2F2" rx="5"/><rect width="173.169" height="6.889" x="22.4" y="133.472" fill="#383737" fill-opacity=".12" fill-rule="nonzero" rx="3.444"/><rect width="93.908" height="6.889" x="22.4" y="119.694" fill="#383737" fill-opacity=".12" fill-rule="nonzero" rx="3.444"/><rect width="145.6" height="6.889" x="22.4" y="147.25" fill="#383737" fill-opacity=".12" fill-rule="nonzero" rx="3.444"/><path stroke="#383737" stroke-linecap="square" d="M0 43.486h224" opacity=".153"/><rect width="60.308" height="10.333" x="23.262" y="22.389" fill="#383737" fill-opacity=".12" fill-rule="nonzero" rx="5.167"/><g fill-rule="nonzero" transform="translate(22.4 179.111)"><rect width="151.631" height="6.889" x="13.785" fill="#383737" fill-opacity=".12" rx="3.444"/><rect width="72.369" height="6.889" y="55.111" fill="#383737" fill-opacity=".12" rx="3.444"/><rect width="48.246" height="6.889" x=".862" y="13.778" fill="#383737" fill-opacity=".12" rx="3.444"/><rect width="79.262" height="5.167" x="54.277" y="14.639" fill="#383737" fill-opacity=".4" rx="2.583"/><rect width="100.8" height="5.167" x="54.277" y="28.417" fill="#383737" fill-opacity=".4" rx="2.583"/><rect width="125.785" height="5.167" x=".862" y="41.333" fill="#383737" fill-opacity=".4" rx="2.583"/><rect width="48.246" height="6.889" x=".862" y="27.556" fill="#383737" fill-opacity=".12" rx="3.444"/><path stroke="#122223" stroke-linecap="square" d="M53.846 22.389h123.84M53.846 36.167h123.84M2.253 48.222h175.432" opacity=".298"/></g><rect width="156.8" height="6.889" x="22.4" y="60.278" fill="#383737" fill-opacity=".12" fill-rule="nonzero" rx="3.444"/><g transform="translate(22.4 72.333)"><rect width="67.2" height="6.889" x="13.785" y="18.083" fill="#383737" fill-opacity=".12" fill-rule="nonzero" rx="3.444"/><rect width="96.492" height="6.889" x="13.785" y="2.583" fill="#383737" fill-opacity=".12" fill-rule="nonzero" rx="3.444"/><path fill="#0EA7AE" d="M9.477 6.257v2.139c0 .534-.19.99-.569 1.369a1.867 1.867 0 0 1-1.37.568h-5.6c-.534 0-.99-.19-1.37-.568A1.866 1.866 0 0 1 0 8.395V2.8c0-.534.19-.99.569-1.37a1.87 1.87 0 0 1 1.37-.568h5.6c.282 0 .545.056.787.168a.204.204 0 0 1 .121.155.21.21 0 0 1-.06.195l-.33.33a.213.213 0 0 1-.155.067.214.214 0 0 1-.06-.013 1.198 1.198 0 0 0-.304-.04h-5.6c-.296 0-.55.105-.76.315a1.037 1.037 0 0 0-.316.76v5.598c0 .296.105.55.316.76.21.21.464.316.76.316h5.6c.297 0 .55-.105.761-.316.21-.21.316-.464.316-.76v-1.71a.2.2 0 0 1 .061-.148l.43-.43a.213.213 0 0 1 .156-.068.18.18 0 0 1 .08.02c.09.036.135.101.135.196zm1.555-3.29l-5.48 5.476a.524.524 0 0 1-.383.161.524.524 0 0 1-.383-.161L1.89 5.55a.524.524 0 0 1-.161-.383c0-.148.054-.276.161-.384l.74-.74a.524.524 0 0 1 .384-.161c.148 0 .276.054.384.161l1.77 1.77L9.524 1.46a.524.524 0 0 1 .384-.162c.148 0 .276.054.383.162l.74.74a.524.524 0 0 1 .162.383.524.524 0 0 1-.161.384z"/><path fill="#999" d="M7.538 17.222h-5.6c-.296 0-.55.106-.76.316a1.037 1.037 0 0 0-.316.76v5.598c0 .296.105.55.316.76.21.21.464.316.76.316h5.6c.297 0 .55-.105.761-.316.21-.21.316-.464.316-.76v-5.597c0-.296-.105-.55-.316-.76a1.037 1.037 0 0 0-.76-.317zM9.477 18.3v5.597c0 .534-.19.99-.569 1.369a1.867 1.867 0 0 1-1.37.568h-5.6c-.534 0-.99-.19-1.37-.568A1.866 1.866 0 0 1 0 23.895V18.3c0-.534.19-.99.569-1.37a1.87 1.87 0 0 1 1.37-.568h5.6c.533 0 .99.19 1.37.569.378.379.568.835.568 1.369z"/></g><rect width="79.262" height="5.167" x="97.354" y="24.972" fill="#383737" fill-opacity=".4" fill-rule="nonzero" rx="2.583"/><rect width="60.391" height="5.167" x="23.262" y="278.139" fill="#383737" fill-opacity=".4" fill-rule="nonzero" rx="2.583"/><rect width="48.246" height="6.889" x="23.262" y="266.083" fill="#383737" fill-opacity=".12" fill-rule="nonzero" rx="3.444"/><path stroke="#122223" stroke-linecap="square" d="M97.785 32.722h102.3M24.381 285.889h74.194" opacity=".298"/><path fill="#0EA7AE" d="M139.842 273.5a2.595 2.595 0 0 0-.757-.837 4.404 4.404 0 0 0-1.136-.6 7.345 7.345 0 0 0-1.318-.339 10.69 10.69 0 0 1-3.806-1.322c-.101-.053-.209-.168-.323-.343a.926.926 0 0 1-.172-.504c0-.592.1-1.186.298-1.781.199-.596.453-1.062.762-1.398.498-.558 1.395-1.046 2.691-1.463 1.296-.417 2.755-.626 4.377-.626.969 0 1.718.074 2.246.222.528.148.793.377.793.686 0 .505-.07.895-.207 1.17-.138.277-.286.46-.445.55-.158.092-.435.214-.833.37a8.434 8.434 0 0 0-1.908.928c-.222.148-.36.222-.414.222-.067 0-.1-.027-.1-.081 0-.115.119-.288.358-.52.239-.232.533-.435.883-.61.37-.195.556-.32.556-.374 0-.087-.206-.13-.616-.13-1.246 0-2.396.11-3.453.332-1.057.222-1.89.515-2.499.878-.61.363-.914.733-.914 1.11 0 .236.126.402.379.5.252.097.81.26 1.67.489a16.29 16.29 0 0 1 2.313.787c.976.417 1.7.851 2.17 1.302.472.45.707.955.707 1.514 0 .383-.092.768-.277 1.155a3.443 3.443 0 0 1-.813 1.065 4.672 4.672 0 0 1-1.232.797c-.397.168-.897.326-1.5.474a16.3 16.3 0 0 1-1.958.348c-.703.084-1.375.126-2.014.126-1.178 0-2.125-.11-2.842-.333-.717-.222-1.075-.558-1.075-1.009 0-.202.12-.516.363-.943.242-.428.529-.715.858-.863.29-.114.57-.18.838-.197.27-.017.404.015.404.096 0 .02-.01.04-.03.06a.27.27 0 0 1-.07.051l-.082.04a9.071 9.071 0 0 1-.328.126c-.084.03-.151.061-.202.091a.141.141 0 0 0-.075.126c0 .142.696.212 2.09.212 1.211 0 2.204-.043 2.978-.13.774-.088 1.457-.246 2.05-.475a5.735 5.735 0 0 0 1.615-.949zm6.465-4.773a.734.734 0 0 1-.48-.192.607.607 0 0 1-.226-.484c0-.296.141-.626.424-.989.282-.363.575-.545.878-.545.202 0 .37.062.505.187.135.124.202.304.202.54 0 .29-.138.609-.414.958-.276.35-.572.525-.889.525zm14.352 5.8a27.385 27.385 0 0 1-1.552 1.405c-.511.417-.929.626-1.252.626-.552 0-.827-.363-.827-1.09 0-.215.033-.427.1-.636.068-.208.16-.425.278-.65.118-.226.298-.549.54-.97.243-.42.522-.896.838-1.427-.383.195-.865.582-1.444 1.16a11.47 11.47 0 0 0-.959 1.035c-.262.326-.543.69-.843 1.09-.3.4-.518.669-.656.807s-.278.207-.419.207c-.215 0-.414-.226-.596-.676a3.707 3.707 0 0 1-.23-.909l-2.64 2.17c-.943 1.628-1.801 2.844-2.575 3.648-.775.804-1.35 1.206-1.727 1.206-.202 0-.303-.125-.303-.374 0-.484.246-1.103.737-1.856.195-.296.42-.586.672-.868.252-.283.491-.527.716-.732.226-.205.524-.46.894-.767.37-.306.623-.516.757-.63.673-1.373 1.158-2.422 1.454-3.149a31.737 31.737 0 0 1-1.656 1.655c-.47.43-.903.762-1.297.994-.394.232-.749.348-1.065.348-.344 0-.66-.274-.95-.822a3.915 3.915 0 0 1-.262-.617 8.488 8.488 0 0 1-1.225 1.172c-.566.427-1.047.64-1.444.64-.552 0-.963-.289-1.232-.867a4.44 4.44 0 0 1-.404-1.897c0-.263.027-.513.081-.752.054-.239.118-.436.192-.59.074-.155.212-.397.414-.727.956-1.487 1.83-2.23 2.625-2.23.41 0 .616.158.616.474 0 .215-.133.552-.4 1.01-.265.457-.502.783-.711.978-.586.565-.968.959-1.146 1.18a1.176 1.176 0 0 0-.267.758c0 .242.09.444.272.605.182.161.417.242.707.242.316 0 .665-.116 1.045-.348.205-.125.442-.29.713-.497a2.186 2.186 0 0 1 .18-1.072c.124-.296.32-.612.585-.949a7.637 7.637 0 0 1 1.015-1.034c.41-.353.891-.698 1.443-1.034 1.044-.653 1.855-.98 2.434-.98.43 0 .646.159.646.475 0 .437-.468.865-1.404 1.282a8.942 8.942 0 0 0-1.7.989 6.428 6.428 0 0 0-1.364 1.306c-.347.461-.52.877-.52 1.247 0 .181.044.326.131.434a.421.421 0 0 0 .344.161c.235 0 .504-.108.807-.323.303-.215.75-.595 1.343-1.14.27-.25.628-.651 1.075-1.206.448-.555.818-.979 1.111-1.272.293-.292.557-.439.793-.439.134 0 .244.042.328.127.084.084.126.206.126.368 0 .31-.123.758-.369 1.347-.245.589-.688 1.552-1.327 2.891l1.69-1.228c.002-.357.044-.637.126-.84.084-.21.25-.505.5-.889.464-.713.865-1.236 1.201-1.569.337-.333.66-.5.97-.5.215 0 .388.038.52.112a.368.368 0 0 1 .196.343c0 .067-.02.138-.06.212-.04.074-.086.141-.137.202-.05.06-.156.178-.318.353-1.063 1.177-1.595 1.94-1.595 2.29 0 .196.064.293.192.293.08 0 .237-.13.47-.388.232-.26.531-.6.898-1.02.367-.42.801-.859 1.302-1.316a14.053 14.053 0 0 1 1.712-1.322c.356-.25.653-.374.888-.374.108 0 .214.148.318.444.105.296.157.596.157.898 0 .148-.145.374-.434.676-1.185 1.319-1.777 2.237-1.777 2.755 0 .29.117.434.353.434.195 0 .45-.102.762-.308.182-.119.424-.292.726-.52v-.02c0-.316.03-.58.091-.792a1.92 1.92 0 0 1 .353-.65c.175-.222.455-.515.838-.878 1.023-.929 2.016-1.618 2.979-2.069.962-.45 1.706-.676 2.231-.676a.56.56 0 0 1 .394.176c.12.118.217.254.288.41.07.154.106.268.106.342 0 .121-.048.21-.142.268a2.833 2.833 0 0 1-.495.207l.182.413c.074.168.131.305.172.409.04.104.06.197.06.277 0 .162-.163.463-.49.904-.326.44-.555.765-.686.973a1.418 1.418 0 0 0-.197.767c0 .498.23.747.687.747.34 0 .82-.23 1.438-.69v-.571c.706-.592 1.561-1.632 2.564-3.118a10.109 10.109 0 0 0-.596-.02c-.397 0-.693.026-.888.08-.08.02-.157.042-.227.066a.567.567 0 0 1-.147.035c-.027 0-.04-.02-.04-.06 0-.223.138-.556.414-1 .222-.376.432-.656.63-.837.2-.182.442-.305.728-.368.286-.064.688-.096 1.206-.096h.434c.357-.64.68-1.092.97-1.358.29-.265.619-.398.99-.398.37 0 .554.084.554.252 0 .08-.144.3-.434.656-.29.357-.508.656-.656.898l.61.07c.18.02.319.038.42.051a15.879 15.879 0 0 1-1.444 2.19 65.503 65.503 0 0 1-.863-.066l-.48-.035a27.937 27.937 0 0 0-.913 1.57c-.246.46-.435.882-.566 1.266a3.368 3.368 0 0 0-.197 1.09c0 .464.185.696.556.696.255 0 .59-.136 1.004-.409.263-.173.583-.405.958-.696.001-.263.026-.5.076-.712a2.85 2.85 0 0 1 .288-.711c.141-.259.328-.54.56-.843.232-.302.517-.645.853-1.029l.51-.595c.138-.162.273-.271.404-.328.131-.057.345-.086.641-.086.215 0 .42.029.616.086.195.057.293.116.293.176 0 .121-.1.34-.298.656-.199.316-.518.702-.96 1.156-.44.454-.95.9-1.529 1.337-.128.397-.192.7-.192.908 0 .29.111.434.333.434.081 0 .216-.07.404-.207.189-.138.507-.404.954-.797.448-.394.85-.742 1.207-1.045.262-.228.567-.57.914-1.024.346-.454.627-.795.843-1.024.498-.525.838-.866 1.02-1.024.181-.158.356-.238.524-.238.162 0 .271.05.328.152.058.1.086.306.086.615 0 .142-.013.256-.04.344-.027.087-.083.2-.167.338-.084.137-.254.391-.51.761l-.908 1.312a5.2 5.2 0 0 0-.495.883c-.141.32-.212.56-.212.722 0 .35.138.525.414.525.229 0 .495-.095.798-.283.16-.1.367-.243.62-.429v-.449c.363-.43.639-.797.827-1.1-.215-.074-.372-.165-.47-.272-.097-.108-.145-.27-.145-.485 0-.242.1-.548.302-.918a5.27 5.27 0 0 1 .748-1.04c.296-.322.565-.53.807-.625a.609.609 0 0 1 .273-.07c.134 0 .202.063.202.191 0 .114-.105.346-.313.696 1.386-.215 2.261-.323 2.625-.323a.75.75 0 0 1 .293.04c.114.061.208.203.282.425.074.222.111.444.111.666 0 .14-.062.294-.187.459a9.17 9.17 0 0 1-.64.721 6.01 6.01 0 0 0-.9 1.252c-.241.45-.363.79-.363 1.019 0 .316.196.474.586.474.31 0 .794-.238 1.45-.715a3.727 3.727 0 0 1 .482-1.59c.33-.576.869-1.183 1.616-1.822.511-.437 1.02-.767 1.524-.99.505-.221.956-.332 1.353-.332.316 0 .567.072.752.217.185.144.278.361.278.65 0 .425-.158.847-.475 1.267-.316.42-.799.838-1.448 1.251-.65.414-1.45.813-2.398 1.196v.253c0 .396.097.706.293.928a.973.973 0 0 0 .767.333c.33 0 .671-.077 1.025-.232.353-.155.705-.36 1.055-.616.35-.255.777-.598 1.282-1.029v.616c-.76.914-1.474 1.616-2.14 2.104-.667.487-1.343.731-2.03.731-.599 0-1.073-.232-1.423-.696-.274-.363-.44-.83-.5-1.402-.266.268-.501.496-.706.685a7.37 7.37 0 0 1-1.01.803c-.31.198-.585.297-.827.297-.283 0-.519-.13-.707-.388-.189-.26-.283-.634-.283-1.125 0-.29.074-.62.222-.99.148-.37.365-.771.652-1.205.286-.434.607-.866.964-1.297-.189.04-.4.083-.636.126-.236.044-.485.09-.747.136a62.25 62.25 0 0 0-.606.111 6.85 6.85 0 0 1-1.044 1.52v.63a98.788 98.788 0 0 1-1.747 1.584 7.45 7.45 0 0 1-.98.747c-.275.168-.538.252-.787.252-.565 0-.848-.336-.848-1.009 0-.256.084-.6.253-1.034.168-.434.44-1.061.817-1.882-.975 1.291-1.718 2.21-2.226 2.755-.508.545-.923.817-1.247.817-.255 0-.49-.106-.706-.318-.216-.212-.382-.498-.5-.858a3.446 3.446 0 0 1-.103-.392c-1.501 1.53-2.635 2.295-3.4 2.295a.886.886 0 0 1-.731-.354c-.185-.235-.278-.538-.278-.908 0-.249.052-.545.156-.888.055-.179.132-.405.231-.68-1.633 1.792-2.807 2.688-3.52 2.688-.263 0-.45-.085-.561-.257-.111-.172-.167-.426-.167-.762 0-.531.192-1.302.576-2.31-.983 1.09-1.713 1.864-2.191 2.325-.478.461-.872.691-1.181.691-.149 0-.334-.127-.556-.383a3.697 3.697 0 0 1-.59-.994 3.303 3.303 0 0 1-.164-.492zm8.488-1.208v.34c.06-.158.125-.33.196-.512-.068.058-.133.116-.196.172zm-2.464-2.997c-1.75.8-2.996 1.48-3.74 2.038-.744.558-1.116 1.134-1.116 1.726 0 .215.037.391.111.53.074.137.175.206.303.206.074 0 .205-.047.394-.141a7.934 7.934 0 0 0 1.938-1.63c.586-.67 1.29-1.579 2.11-2.73zm20.926 2.623a5.75 5.75 0 0 0 1.555-.878c.43-.35.748-.684.954-1.004.205-.32.308-.553.308-.701 0-.155-.071-.232-.212-.232-.122 0-.318.077-.591.232a4.87 4.87 0 0 0-.828.605c-.28.25-.53.542-.752.878a2.835 2.835 0 0 0-.434 1.1z"/></g><g transform="translate(7 35)"><rect width="223" height="309" x=".5" y=".5" fill="#FFF" fill-rule="nonzero" stroke="#F2F2F2" rx="5"/><rect width="223" height="309" x=".5" y=".5" fill="#FFF" fill-rule="nonzero" stroke="#F2F2F2" rx="5"/><rect width="173.169" height="6.889" x="22.4" y="133.472" fill="#383737" fill-opacity=".12" fill-rule="nonzero" rx="3.444"/><rect width="93.908" height="6.889" x="22.4" y="119.694" fill="#383737" fill-opacity=".12" fill-rule="nonzero" rx="3.444"/><rect width="145.6" height="6.889" x="22.4" y="147.25" fill="#383737" fill-opacity=".12" fill-rule="nonzero" rx="3.444"/><path stroke="#383737" stroke-linecap="square" d="M0 43.486h224" opacity=".153"/><rect width="60.308" height="10.333" x="23.262" y="22.389" fill="#383737" fill-opacity=".12" fill-rule="nonzero" rx="5.167"/><g fill-rule="nonzero" transform="translate(22.4 179.111)"><rect width="151.631" height="6.889" x="13.785" fill="#383737" fill-opacity=".12" rx="3.444"/><rect width="72.369" height="6.889" y="55.111" fill="#383737" fill-opacity=".12" rx="3.444"/><rect width="48.246" height="6.889" x=".862" y="13.778" fill="#383737" fill-opacity=".12" rx="3.444"/><rect width="79.262" height="5.167" x="54.277" y="14.639" fill="#383737" fill-opacity=".4" rx="2.583"/><rect width="100.8" height="5.167" x="54.277" y="28.417" fill="#383737" fill-opacity=".4" rx="2.583"/><rect width="125.785" height="5.167" x=".862" y="41.333" fill="#383737" fill-opacity=".4" rx="2.583"/><rect width="48.246" height="6.889" x=".862" y="27.556" fill="#383737" fill-opacity=".12" rx="3.444"/><path stroke="#122223" stroke-linecap="square" d="M53.846 22.389h123.84M53.846 36.167h123.84M2.253 48.222h175.432" opacity=".298"/></g><rect width="156.8" height="6.889" x="22.4" y="60.278" fill="#383737" fill-opacity=".12" fill-rule="nonzero" rx="3.444"/><g transform="translate(22.4 72.333)"><rect width="67.2" height="6.889" x="13.785" y="18.083" fill="#383737" fill-opacity=".12" fill-rule="nonzero" rx="3.444"/><rect width="96.492" height="6.889" x="13.785" y="2.583" fill="#383737" fill-opacity=".12" fill-rule="nonzero" rx="3.444"/><path fill="#0EA7AE" d="M9.477 6.257v2.139c0 .534-.19.99-.569 1.369a1.867 1.867 0 0 1-1.37.568h-5.6c-.534 0-.99-.19-1.37-.568A1.866 1.866 0 0 1 0 8.395V2.8c0-.534.19-.99.569-1.37a1.87 1.87 0 0 1 1.37-.568h5.6c.282 0 .545.056.787.168a.204.204 0 0 1 .121.155.21.21 0 0 1-.06.195l-.33.33a.213.213 0 0 1-.155.067.214.214 0 0 1-.06-.013 1.198 1.198 0 0 0-.304-.04h-5.6c-.296 0-.55.105-.76.315a1.037 1.037 0 0 0-.316.76v5.598c0 .296.105.55.316.76.21.21.464.316.76.316h5.6c.297 0 .55-.105.761-.316.21-.21.316-.464.316-.76v-1.71a.2.2 0 0 1 .061-.148l.43-.43a.213.213 0 0 1 .156-.068.18.18 0 0 1 .08.02c.09.036.135.101.135.196zm1.555-3.29l-5.48 5.476a.524.524 0 0 1-.383.161.524.524 0 0 1-.383-.161L1.89 5.55a.524.524 0 0 1-.161-.383c0-.148.054-.276.161-.384l.74-.74a.524.524 0 0 1 .384-.161c.148 0 .276.054.384.161l1.77 1.77L9.524 1.46a.524.524 0 0 1 .384-.162c.148 0 .276.054.383.162l.74.74a.524.524 0 0 1 .162.383.524.524 0 0 1-.161.384z"/><path fill="#999" d="M7.538 17.222h-5.6c-.296 0-.55.106-.76.316a1.037 1.037 0 0 0-.316.76v5.598c0 .296.105.55.316.76.21.21.464.316.76.316h5.6c.297 0 .55-.105.761-.316.21-.21.316-.464.316-.76v-5.597c0-.296-.105-.55-.316-.76a1.037 1.037 0 0 0-.76-.317zM9.477 18.3v5.597c0 .534-.19.99-.569 1.369a1.867 1.867 0 0 1-1.37.568h-5.6c-.534 0-.99-.19-1.37-.568A1.866 1.866 0 0 1 0 23.895V18.3c0-.534.19-.99.569-1.37a1.87 1.87 0 0 1 1.37-.568h5.6c.533 0 .99.19 1.37.569.378.379.568.835.568 1.369z"/></g><rect width="79.262" height="5.167" x="97.354" y="24.972" fill="#383737" fill-opacity=".4" fill-rule="nonzero" rx="2.583"/><rect width="60.391" height="5.167" x="23.262" y="278.139" fill="#383737" fill-opacity=".4" fill-rule="nonzero" rx="2.583"/><rect width="48.246" height="6.889" x="23.262" y="266.083" fill="#383737" fill-opacity=".12" fill-rule="nonzero" rx="3.444"/><path stroke="#122223" stroke-linecap="square" d="M97.785 32.722h102.3M24.381 285.889h74.194" opacity=".298"/><path fill="#0EA7AE" d="M139.842 273.5a2.595 2.595 0 0 0-.757-.837 4.404 4.404 0 0 0-1.136-.6 7.345 7.345 0 0 0-1.318-.339 10.69 10.69 0 0 1-3.806-1.322c-.101-.053-.209-.168-.323-.343a.926.926 0 0 1-.172-.504c0-.592.1-1.186.298-1.781.199-.596.453-1.062.762-1.398.498-.558 1.395-1.046 2.691-1.463 1.296-.417 2.755-.626 4.377-.626.969 0 1.718.074 2.246.222.528.148.793.377.793.686 0 .505-.07.895-.207 1.17-.138.277-.286.46-.445.55-.158.092-.435.214-.833.37a8.434 8.434 0 0 0-1.908.928c-.222.148-.36.222-.414.222-.067 0-.1-.027-.1-.081 0-.115.119-.288.358-.52.239-.232.533-.435.883-.61.37-.195.556-.32.556-.374 0-.087-.206-.13-.616-.13-1.246 0-2.396.11-3.453.332-1.057.222-1.89.515-2.499.878-.61.363-.914.733-.914 1.11 0 .236.126.402.379.5.252.097.81.26 1.67.489a16.29 16.29 0 0 1 2.313.787c.976.417 1.7.851 2.17 1.302.472.45.707.955.707 1.514 0 .383-.092.768-.277 1.155a3.443 3.443 0 0 1-.813 1.065 4.672 4.672 0 0 1-1.232.797c-.397.168-.897.326-1.5.474a16.3 16.3 0 0 1-1.958.348c-.703.084-1.375.126-2.014.126-1.178 0-2.125-.11-2.842-.333-.717-.222-1.075-.558-1.075-1.009 0-.202.12-.516.363-.943.242-.428.529-.715.858-.863.29-.114.57-.18.838-.197.27-.017.404.015.404.096 0 .02-.01.04-.03.06a.27.27 0 0 1-.07.051l-.082.04a9.071 9.071 0 0 1-.328.126c-.084.03-.151.061-.202.091a.141.141 0 0 0-.075.126c0 .142.696.212 2.09.212 1.211 0 2.204-.043 2.978-.13.774-.088 1.457-.246 2.05-.475a5.735 5.735 0 0 0 1.615-.949zm6.465-4.773a.734.734 0 0 1-.48-.192.607.607 0 0 1-.226-.484c0-.296.141-.626.424-.989.282-.363.575-.545.878-.545.202 0 .37.062.505.187.135.124.202.304.202.54 0 .29-.138.609-.414.958-.276.35-.572.525-.889.525zm14.352 5.8a27.385 27.385 0 0 1-1.552 1.405c-.511.417-.929.626-1.252.626-.552 0-.827-.363-.827-1.09 0-.215.033-.427.1-.636.068-.208.16-.425.278-.65.118-.226.298-.549.54-.97.243-.42.522-.896.838-1.427-.383.195-.865.582-1.444 1.16a11.47 11.47 0 0 0-.959 1.035c-.262.326-.543.69-.843 1.09-.3.4-.518.669-.656.807s-.278.207-.419.207c-.215 0-.414-.226-.596-.676a3.707 3.707 0 0 1-.23-.909l-2.64 2.17c-.943 1.628-1.801 2.844-2.575 3.648-.775.804-1.35 1.206-1.727 1.206-.202 0-.303-.125-.303-.374 0-.484.246-1.103.737-1.856.195-.296.42-.586.672-.868.252-.283.491-.527.716-.732.226-.205.524-.46.894-.767.37-.306.623-.516.757-.63.673-1.373 1.158-2.422 1.454-3.149a31.737 31.737 0 0 1-1.656 1.655c-.47.43-.903.762-1.297.994-.394.232-.749.348-1.065.348-.344 0-.66-.274-.95-.822a3.915 3.915 0 0 1-.262-.617 8.488 8.488 0 0 1-1.225 1.172c-.566.427-1.047.64-1.444.64-.552 0-.963-.289-1.232-.867a4.44 4.44 0 0 1-.404-1.897c0-.263.027-.513.081-.752.054-.239.118-.436.192-.59.074-.155.212-.397.414-.727.956-1.487 1.83-2.23 2.625-2.23.41 0 .616.158.616.474 0 .215-.133.552-.4 1.01-.265.457-.502.783-.711.978-.586.565-.968.959-1.146 1.18a1.176 1.176 0 0 0-.267.758c0 .242.09.444.272.605.182.161.417.242.707.242.316 0 .665-.116 1.045-.348.205-.125.442-.29.713-.497a2.186 2.186 0 0 1 .18-1.072c.124-.296.32-.612.585-.949a7.637 7.637 0 0 1 1.015-1.034c.41-.353.891-.698 1.443-1.034 1.044-.653 1.855-.98 2.434-.98.43 0 .646.159.646.475 0 .437-.468.865-1.404 1.282a8.942 8.942 0 0 0-1.7.989 6.428 6.428 0 0 0-1.364 1.306c-.347.461-.52.877-.52 1.247 0 .181.044.326.131.434a.421.421 0 0 0 .344.161c.235 0 .504-.108.807-.323.303-.215.75-.595 1.343-1.14.27-.25.628-.651 1.075-1.206.448-.555.818-.979 1.111-1.272.293-.292.557-.439.793-.439.134 0 .244.042.328.127.084.084.126.206.126.368 0 .31-.123.758-.369 1.347-.245.589-.688 1.552-1.327 2.891l1.69-1.228c.002-.357.044-.637.126-.84.084-.21.25-.505.5-.889.464-.713.865-1.236 1.201-1.569.337-.333.66-.5.97-.5.215 0 .388.038.52.112a.368.368 0 0 1 .196.343c0 .067-.02.138-.06.212-.04.074-.086.141-.137.202-.05.06-.156.178-.318.353-1.063 1.177-1.595 1.94-1.595 2.29 0 .196.064.293.192.293.08 0 .237-.13.47-.388.232-.26.531-.6.898-1.02.367-.42.801-.859 1.302-1.316a14.053 14.053 0 0 1 1.712-1.322c.356-.25.653-.374.888-.374.108 0 .214.148.318.444.105.296.157.596.157.898 0 .148-.145.374-.434.676-1.185 1.319-1.777 2.237-1.777 2.755 0 .29.117.434.353.434.195 0 .45-.102.762-.308.182-.119.424-.292.726-.52v-.02c0-.316.03-.58.091-.792a1.92 1.92 0 0 1 .353-.65c.175-.222.455-.515.838-.878 1.023-.929 2.016-1.618 2.979-2.069.962-.45 1.706-.676 2.231-.676a.56.56 0 0 1 .394.176c.12.118.217.254.288.41.07.154.106.268.106.342 0 .121-.048.21-.142.268a2.833 2.833 0 0 1-.495.207l.182.413c.074.168.131.305.172.409.04.104.06.197.06.277 0 .162-.163.463-.49.904-.326.44-.555.765-.686.973a1.418 1.418 0 0 0-.197.767c0 .498.23.747.687.747.34 0 .82-.23 1.438-.69v-.571c.706-.592 1.561-1.632 2.564-3.118a10.109 10.109 0 0 0-.596-.02c-.397 0-.693.026-.888.08-.08.02-.157.042-.227.066a.567.567 0 0 1-.147.035c-.027 0-.04-.02-.04-.06 0-.223.138-.556.414-1 .222-.376.432-.656.63-.837.2-.182.442-.305.728-.368.286-.064.688-.096 1.206-.096h.434c.357-.64.68-1.092.97-1.358.29-.265.619-.398.99-.398.37 0 .554.084.554.252 0 .08-.144.3-.434.656-.29.357-.508.656-.656.898l.61.07c.18.02.319.038.42.051a15.879 15.879 0 0 1-1.444 2.19 65.503 65.503 0 0 1-.863-.066l-.48-.035a27.937 27.937 0 0 0-.913 1.57c-.246.46-.435.882-.566 1.266a3.368 3.368 0 0 0-.197 1.09c0 .464.185.696.556.696.255 0 .59-.136 1.004-.409.263-.173.583-.405.958-.696.001-.263.026-.5.076-.712a2.85 2.85 0 0 1 .288-.711c.141-.259.328-.54.56-.843.232-.302.517-.645.853-1.029l.51-.595c.138-.162.273-.271.404-.328.131-.057.345-.086.641-.086.215 0 .42.029.616.086.195.057.293.116.293.176 0 .121-.1.34-.298.656-.199.316-.518.702-.96 1.156-.44.454-.95.9-1.529 1.337-.128.397-.192.7-.192.908 0 .29.111.434.333.434.081 0 .216-.07.404-.207.189-.138.507-.404.954-.797.448-.394.85-.742 1.207-1.045.262-.228.567-.57.914-1.024.346-.454.627-.795.843-1.024.498-.525.838-.866 1.02-1.024.181-.158.356-.238.524-.238.162 0 .271.05.328.152.058.1.086.306.086.615 0 .142-.013.256-.04.344-.027.087-.083.2-.167.338-.084.137-.254.391-.51.761l-.908 1.312a5.2 5.2 0 0 0-.495.883c-.141.32-.212.56-.212.722 0 .35.138.525.414.525.229 0 .495-.095.798-.283.16-.1.367-.243.62-.429v-.449c.363-.43.639-.797.827-1.1-.215-.074-.372-.165-.47-.272-.097-.108-.145-.27-.145-.485 0-.242.1-.548.302-.918a5.27 5.27 0 0 1 .748-1.04c.296-.322.565-.53.807-.625a.609.609 0 0 1 .273-.07c.134 0 .202.063.202.191 0 .114-.105.346-.313.696 1.386-.215 2.261-.323 2.625-.323a.75.75 0 0 1 .293.04c.114.061.208.203.282.425.074.222.111.444.111.666 0 .14-.062.294-.187.459a9.17 9.17 0 0 1-.64.721 6.01 6.01 0 0 0-.9 1.252c-.241.45-.363.79-.363 1.019 0 .316.196.474.586.474.31 0 .794-.238 1.45-.715a3.727 3.727 0 0 1 .482-1.59c.33-.576.869-1.183 1.616-1.822.511-.437 1.02-.767 1.524-.99.505-.221.956-.332 1.353-.332.316 0 .567.072.752.217.185.144.278.361.278.65 0 .425-.158.847-.475 1.267-.316.42-.799.838-1.448 1.251-.65.414-1.45.813-2.398 1.196v.253c0 .396.097.706.293.928a.973.973 0 0 0 .767.333c.33 0 .671-.077 1.025-.232.353-.155.705-.36 1.055-.616.35-.255.777-.598 1.282-1.029v.616c-.76.914-1.474 1.616-2.14 2.104-.667.487-1.343.731-2.03.731-.599 0-1.073-.232-1.423-.696-.274-.363-.44-.83-.5-1.402-.266.268-.501.496-.706.685a7.37 7.37 0 0 1-1.01.803c-.31.198-.585.297-.827.297-.283 0-.519-.13-.707-.388-.189-.26-.283-.634-.283-1.125 0-.29.074-.62.222-.99.148-.37.365-.771.652-1.205.286-.434.607-.866.964-1.297-.189.04-.4.083-.636.126-.236.044-.485.09-.747.136a62.25 62.25 0 0 0-.606.111 6.85 6.85 0 0 1-1.044 1.52v.63a98.788 98.788 0 0 1-1.747 1.584 7.45 7.45 0 0 1-.98.747c-.275.168-.538.252-.787.252-.565 0-.848-.336-.848-1.009 0-.256.084-.6.253-1.034.168-.434.44-1.061.817-1.882-.975 1.291-1.718 2.21-2.226 2.755-.508.545-.923.817-1.247.817-.255 0-.49-.106-.706-.318-.216-.212-.382-.498-.5-.858a3.446 3.446 0 0 1-.103-.392c-1.501 1.53-2.635 2.295-3.4 2.295a.886.886 0 0 1-.731-.354c-.185-.235-.278-.538-.278-.908 0-.249.052-.545.156-.888.055-.179.132-.405.231-.68-1.633 1.792-2.807 2.688-3.52 2.688-.263 0-.45-.085-.561-.257-.111-.172-.167-.426-.167-.762 0-.531.192-1.302.576-2.31-.983 1.09-1.713 1.864-2.191 2.325-.478.461-.872.691-1.181.691-.149 0-.334-.127-.556-.383a3.697 3.697 0 0 1-.59-.994 3.303 3.303 0 0 1-.164-.492zm8.488-1.208v.34c.06-.158.125-.33.196-.512-.068.058-.133.116-.196.172zm-2.464-2.997c-1.75.8-2.996 1.48-3.74 2.038-.744.558-1.116 1.134-1.116 1.726 0 .215.037.391.111.53.074.137.175.206.303.206.074 0 .205-.047.394-.141a7.934 7.934 0 0 0 1.938-1.63c.586-.67 1.29-1.579 2.11-2.73zm20.926 2.623a5.75 5.75 0 0 0 1.555-.878c.43-.35.748-.684.954-1.004.205-.32.308-.553.308-.701 0-.155-.071-.232-.212-.232-.122 0-.318.077-.591.232a4.87 4.87 0 0 0-.828.605c-.28.25-.53.542-.752.878a2.835 2.835 0 0 0-.434 1.1z"/></g><g transform="translate(70 10)"><rect width="259" height="359" x=".5" y=".5" fill="#FFF" fill-rule="nonzero" stroke="#F2F2F2" rx="5"/><rect width="259" height="359" x=".5" y=".5" fill="#FFF" fill-rule="nonzero" stroke="#F2F2F2" rx="5"/><path stroke="#383737" stroke-linecap="square" d="M0 50.5h260" opacity=".153"/><rect width="70" height="12" x="27" y="26" fill="#383737" fill-opacity=".12" fill-rule="nonzero" rx="6"/><rect width="176" height="8" x="42" y="80" fill="#383737" fill-opacity=".12" fill-rule="nonzero" rx="4"/><rect width="84" height="8" x="26" y="144" fill="#383737" fill-opacity=".12" fill-rule="nonzero" rx="4"/><rect width="201" height="8" x="26" y="236" fill="#383737" fill-opacity=".12" fill-rule="nonzero" rx="4"/><rect width="109" height="8" x="26" y="220" fill="#383737" fill-opacity=".12" fill-rule="nonzero" rx="4"/><rect width="182" height="8" x="26" y="175" fill="#383737" fill-opacity=".12" fill-rule="nonzero" rx="4"/><rect width="169" height="8" x="26" y="252" fill="#383737" fill-opacity=".12" fill-rule="nonzero" rx="4"/><g transform="translate(26 189)"><rect width="78" height="8" x="128" y="3" fill="#383737" fill-opacity=".12" fill-rule="nonzero" rx="4"/><rect width="78" height="8" x="16" y="3" fill="#383737" fill-opacity=".12" fill-rule="nonzero" rx="4"/><path fill="#0EA7AE" d="M11 7.266V9.75c0 .62-.22 1.15-.66 1.59-.44.44-.97.66-1.59.66h-6.5c-.62 0-1.15-.22-1.59-.66C.22 10.9 0 10.37 0 9.75v-6.5c0-.62.22-1.15.66-1.59.44-.44.97-.66 1.59-.66h6.5c.328 0 .633.065.914.195a.237.237 0 0 1 .14.18.243.243 0 0 1-.07.227l-.382.382a.247.247 0 0 1-.18.079.248.248 0 0 1-.07-.016A1.39 1.39 0 0 0 8.75 2h-6.5c-.344 0-.638.122-.883.367S1 2.907 1 3.25v6.5c0 .344.122.638.367.883s.54.367.883.367h6.5c.344 0 .638-.122.883-.367s.367-.54.367-.883V7.766c0-.068.023-.125.07-.172l.5-.5a.247.247 0 0 1 .18-.078c.031 0 .062.007.094.023.104.042.156.117.156.227zm1.805-3.82l-6.36 6.359A.608.608 0 0 1 6 9.992a.608.608 0 0 1-.445-.187l-3.36-3.36A.608.608 0 0 1 2.008 6c0-.172.062-.32.187-.445l.86-.86a.608.608 0 0 1 .445-.187c.172 0 .32.062.445.187L6 6.75l5.055-5.055a.608.608 0 0 1 .445-.187c.172 0 .32.062.445.187l.86.86a.608.608 0 0 1 .187.445c0 .172-.062.32-.187.445z"/><path fill="#999" d="M120.75 2h-6.5c-.344 0-.638.122-.883.367s-.367.54-.367.883v6.5c0 .344.122.638.367.883s.54.367.883.367h6.5c.344 0 .638-.122.883-.367s.367-.54.367-.883v-6.5c0-.344-.122-.638-.367-.883A1.204 1.204 0 0 0 120.75 2zM123 3.25v6.5c0 .62-.22 1.15-.66 1.59-.44.44-.97.66-1.59.66h-6.5c-.62 0-1.15-.22-1.59-.66-.44-.44-.66-.97-.66-1.59v-6.5c0-.62.22-1.15.66-1.59.44-.44.97-.66 1.59-.66h6.5c.62 0 1.15.22 1.59.66.44.44.66.97.66 1.59z"/></g><rect width="56" height="8" x="27" y="96" fill="#383737" fill-opacity=".12" fill-rule="nonzero" rx="4"/><rect width="92" height="6" x="89" y="97" fill="#383737" fill-opacity=".4" fill-rule="nonzero" rx="3"/><rect width="92" height="6" x="113" y="29" fill="#383737" fill-opacity=".4" fill-rule="nonzero" rx="3"/><rect width="117" height="6" x="89" y="113" fill="#383737" fill-opacity=".4" fill-rule="nonzero" rx="3"/><rect width="70.097" height="6" x="27" y="323" fill="#383737" fill-opacity=".4" fill-rule="nonzero" rx="3"/><rect width="146" height="6" x="27" y="128" fill="#383737" fill-opacity=".4" fill-rule="nonzero" rx="3"/><rect width="56" height="8" x="27" y="112" fill="#383737" fill-opacity=".12" fill-rule="nonzero" rx="4"/><rect width="56" height="8" x="27" y="309" fill="#383737" fill-opacity=".12" fill-rule="nonzero" rx="4"/><path stroke="#122223" stroke-linecap="square" d="M113.5 38h118.742M88.5 106h143.742M88.5 122h143.742M28.3 332h86.118" opacity=".298"/><rect width="100" height="38" x="136" y="296" fill="#0EA7AE" fill-opacity=".2" fill-rule="nonzero" rx="2"/><path stroke="#122223" stroke-linecap="square" d="M28.615 136h203.627" opacity=".298"/><path fill="#0EA7AE" d="M162.316 317.613c-.195-.36-.488-.683-.879-.972-.39-.29-.83-.522-1.318-.698a8.522 8.522 0 0 0-1.53-.392 12.403 12.403 0 0 1-4.417-1.535c-.117-.063-.242-.196-.375-.399s-.2-.398-.2-.586c0-.687.116-1.377.346-2.068.23-.692.526-1.233.885-1.623.578-.649 1.62-1.215 3.123-1.7 1.504-.484 3.197-.726 5.08-.726 1.125 0 1.994.086 2.608.258.613.172.92.437.92.797 0 .586-.08 1.039-.24 1.36-.16.32-.333.532-.516.638-.184.105-.506.248-.967.428a9.788 9.788 0 0 0-2.215 1.078c-.258.172-.418.257-.48.257-.078 0-.118-.03-.118-.093 0-.133.14-.334.416-.604.278-.27.62-.506 1.026-.709.43-.226.644-.37.644-.433 0-.102-.238-.153-.714-.153-1.446 0-2.782.13-4.008.387-1.227.258-2.194.598-2.9 1.02-.708.421-1.061.851-1.061 1.289 0 .273.146.466.44.58.292.113.939.302 1.939.568 1 .266 1.894.57 2.683.914 1.133.484 1.973.988 2.52 1.512.547.523.82 1.11.82 1.758 0 .445-.107.892-.322 1.341-.215.45-.53.862-.944 1.237-.414.375-.89.683-1.43.926-.46.195-1.04.378-1.74.55a18.99 18.99 0 0 1-2.273.405c-.816.097-1.596.146-2.338.146-1.367 0-2.467-.129-3.299-.387-.832-.257-1.248-.648-1.248-1.171 0-.235.141-.6.422-1.096.282-.496.614-.83.996-1.002.336-.133.66-.21.973-.229.313-.02.469.018.469.112 0 .023-.012.047-.035.07a.313.313 0 0 1-.082.059l-.094.046c-.156.063-.283.112-.381.147-.098.035-.176.07-.234.105-.059.036-.088.084-.088.147 0 .164.808.246 2.425.246 1.407 0 2.56-.05 3.458-.152.898-.102 1.69-.286 2.378-.551a6.655 6.655 0 0 0 1.875-1.102zm7.505-5.543a.851.851 0 0 1-.557-.222.705.705 0 0 1-.263-.563c0-.344.164-.726.492-1.148.328-.422.668-.633 1.02-.633a.83.83 0 0 1 .585.217c.157.144.235.353.235.627 0 .336-.16.707-.48 1.113-.321.406-.665.61-1.032.61zm16.658 6.735c-.75.72-1.35 1.264-1.8 1.632-.595.485-1.079.727-1.454.727-.64 0-.96-.422-.96-1.266 0-.25.038-.496.116-.738a4.87 4.87 0 0 1 .323-.756 33.8 33.8 0 0 1 .626-1.125c.282-.488.606-1.04.973-1.658-.445.227-1.004.676-1.676 1.348-.437.422-.808.822-1.113 1.2-.305.38-.63.802-.978 1.267-.348.464-.602.777-.762.937-.16.16-.322.24-.487.24-.25 0-.48-.261-.69-.785a4.306 4.306 0 0 1-.27-1.055l-3.064 2.52c-1.093 1.89-2.09 3.303-2.988 4.236-.898.934-1.566 1.4-2.004 1.4-.234 0-.351-.144-.351-.433 0-.562.285-1.281.855-2.156.227-.344.486-.68.78-1.008.292-.328.57-.611.831-.85a29.97 29.97 0 0 1 1.037-.89c.43-.356.723-.6.88-.733.78-1.593 1.343-2.812 1.687-3.656a36.847 36.847 0 0 1-1.922 1.922c-.547.5-1.049.885-1.506 1.154-.457.27-.869.405-1.236.405-.399 0-.766-.319-1.102-.955a4.547 4.547 0 0 1-.304-.717c-.499.567-.973 1.02-1.423 1.361-.656.496-1.215.744-1.676.744-.64 0-1.117-.336-1.43-1.008a5.16 5.16 0 0 1-.468-2.203c0-.304.03-.595.093-.873.063-.277.137-.506.223-.685a10.7 10.7 0 0 1 .48-.844c1.11-1.727 2.126-2.59 3.047-2.59.477 0 .715.184.715.55 0 .25-.154.641-.463 1.173-.308.531-.584.91-.826 1.136-.68.657-1.123 1.114-1.33 1.372-.207.257-.31.55-.31.878 0 .282.105.516.316.704.21.187.484.28.82.28.367 0 .772-.134 1.213-.403.238-.146.514-.338.828-.577a2.54 2.54 0 0 1 .208-1.245c.145-.345.371-.712.68-1.102.308-.39.701-.791 1.178-1.201a12.71 12.71 0 0 1 1.675-1.202c1.211-.757 2.153-1.136 2.825-1.136.5 0 .75.183.75.55 0 .508-.543 1.004-1.63 1.489a10.42 10.42 0 0 0-1.974 1.148c-.652.477-1.18.983-1.582 1.518-.402.535-.604 1.017-.604 1.447 0 .21.051.379.153.504a.489.489 0 0 0 .398.187c.274 0 .586-.125.938-.375.351-.25.87-.691 1.558-1.324.313-.289.729-.756 1.248-1.4.52-.645.95-1.137 1.29-1.477.34-.34.646-.51.92-.51.156 0 .283.05.38.147.098.098.147.24.147.428 0 .359-.143.88-.428 1.564-.285.684-.799 1.803-1.541 3.358l1.962-1.427c.002-.415.051-.74.146-.976.098-.242.291-.586.58-1.031.54-.828 1.004-1.436 1.395-1.822.39-.387.765-.58 1.125-.58.25 0 .451.043.603.128a.427.427 0 0 1 .229.399c0 .078-.024.16-.07.246-.047.086-.1.164-.159.234-.058.07-.181.207-.369.41-1.234 1.368-1.851 2.254-1.851 2.66 0 .227.074.34.222.34.094 0 .276-.15.545-.45.27-.301.617-.696 1.043-1.184.426-.488.93-.998 1.512-1.53a16.313 16.313 0 0 1 1.986-1.535c.414-.289.758-.433 1.031-.433.125 0 .248.172.37.515.12.344.181.692.181 1.043 0 .172-.168.434-.504.786-1.375 1.53-2.062 2.597-2.062 3.199 0 .336.137.504.41.504.227 0 .521-.12.885-.358.211-.138.492-.34.842-.604v-.023c0-.367.035-.674.106-.92a2.23 2.23 0 0 1 .41-.756c.203-.257.527-.597.973-1.02 1.187-1.077 2.34-1.878 3.457-2.401 1.117-.524 1.98-.786 2.59-.786.164 0 .316.069.457.206.14.136.251.294.333.474.083.18.124.313.124.399 0 .14-.055.244-.165.31-.109.067-.3.147-.574.24l.211.48c.086.196.153.354.2.475.046.122.07.229.07.323 0 .187-.19.537-.569 1.049-.379.511-.644.888-.797 1.13-.152.243-.228.54-.228.891 0 .578.266.867.797.867.395 0 .951-.267 1.669-.801v-.664c.82-.687 1.812-1.894 2.976-3.62a9.64 9.64 0 0 0-.691-.023c-.461-.001-.805.03-1.031.093a3.583 3.583 0 0 0-.264.076.658.658 0 0 1-.17.04c-.031 0-.047-.023-.047-.07 0-.257.16-.644.48-1.16.258-.437.502-.761.733-.972.23-.211.512-.354.844-.428.332-.074.798-.111 1.4-.111h.504c.414-.743.789-1.268 1.125-1.577a1.65 1.65 0 0 1 1.148-.462c.43 0 .645.097.645.292 0 .094-.168.348-.504.762-.336.414-.59.762-.762 1.043.266.031.502.059.71.082.206.024.368.043.486.059a18.441 18.441 0 0 1-1.676 2.543 75.956 75.956 0 0 1-1.002-.076 53.533 53.533 0 0 0-.557-.041c-.422.68-.775 1.287-1.06 1.822a10.185 10.185 0 0 0-.657 1.47 3.913 3.913 0 0 0-.228 1.266c0 .54.215.809.644.809.297 0 .686-.158 1.166-.475.306-.2.676-.47 1.113-.809 0-.305.03-.58.087-.826.06-.25.17-.525.334-.826.165-.3.381-.627.65-.978.27-.352.6-.75.991-1.196l.592-.691c.16-.188.316-.314.469-.38.152-.067.4-.1.744-.1.25 0 .488.033.715.1.226.066.34.134.34.204 0 .14-.116.395-.346.762-.23.367-.602.814-1.114 1.342a15.44 15.44 0 0 1-1.775 1.552c-.148.461-.223.813-.223 1.055 0 .336.13.504.387.504.094 0 .25-.08.469-.24.219-.16.588-.469 1.107-.926.52-.457.987-.861 1.4-1.213.305-.266.659-.662 1.061-1.19.403-.527.729-.923.979-1.189.578-.61.972-1.006 1.183-1.19.211-.183.414-.275.61-.275.187 0 .314.059.38.176.067.117.1.356.1.715 0 .164-.015.297-.047.398a1.864 1.864 0 0 1-.193.393c-.098.16-.295.455-.592.885l-1.055 1.523a6.12 6.12 0 0 0-.574 1.026c-.164.37-.246.65-.246.837 0 .407.16.61.48.61.266 0 .575-.11.926-.328.187-.117.427-.282.72-.498v-.522c.422-.5.742-.926.96-1.277-.25-.086-.43-.192-.544-.317-.113-.125-.17-.312-.17-.562 0-.281.117-.637.352-1.066a6.12 6.12 0 0 1 .867-1.207c.344-.375.656-.618.937-.727a.707.707 0 0 1 .317-.082c.156 0 .234.074.234.223 0 .132-.121.402-.363.808 1.61-.25 2.625-.375 3.047-.375.164 0 .277.016.34.047.132.07.242.234.328.492.086.258.129.516.129.774 0 .164-.073.341-.217.533-.145.191-.393.47-.744.838-.414.445-.762.93-1.043 1.453-.282.523-.422.918-.422 1.183 0 .368.226.551.68.551.36 0 .92-.276 1.683-.83a4.33 4.33 0 0 1 .56-1.847c.382-.668 1.007-1.373 1.874-2.116.594-.508 1.184-.89 1.77-1.148.586-.258 1.11-.387 1.57-.387.367 0 .658.084.873.252.215.168.323.42.323.756 0 .492-.184.982-.551 1.47-.367.489-.928.973-1.682 1.454-.754.48-1.681.943-2.783 1.388v.293c0 .461.113.82.34 1.079.226.257.523.386.89.386.383 0 .78-.09 1.19-.27a6.51 6.51 0 0 0 1.225-.714c.406-.297.902-.695 1.488-1.195v.714c-.883 1.063-1.711 1.877-2.485 2.444-.773.566-1.558.85-2.355.85-.695 0-1.246-.27-1.652-.81-.318-.42-.511-.963-.58-1.627-.31.31-.582.576-.82.796-.422.39-.812.701-1.171.931-.36.23-.68.346-.961.346-.329 0-.602-.15-.82-.451-.22-.3-.329-.736-.329-1.307 0-.336.086-.718.258-1.148.172-.43.424-.897.756-1.4a17.22 17.22 0 0 1 1.119-1.506c-.219.046-.465.095-.738.146-.274.05-.563.104-.868.158-.304.055-.539.098-.703.13a7.956 7.956 0 0 1-1.211 1.763v.732c-.914.844-1.59 1.457-2.028 1.84a8.648 8.648 0 0 1-1.136.867c-.32.196-.625.293-.915.293-.656 0-.984-.39-.984-1.172 0-.296.098-.697.293-1.2.195-.505.512-1.233.95-2.186-1.134 1.5-1.995 2.566-2.585 3.199-.59.633-1.072.95-1.447.95-.297 0-.57-.124-.82-.37s-.444-.578-.58-.996a4.003 4.003 0 0 1-.12-.456c-1.743 1.777-3.058 2.665-3.946 2.665-.351 0-.634-.137-.85-.41-.214-.274-.321-.625-.321-1.055 0-.289.06-.633.181-1.031.063-.208.153-.471.268-.79-1.896 2.081-3.258 3.122-4.087 3.122-.305 0-.521-.1-.65-.299-.13-.2-.194-.494-.194-.885 0-.617.223-1.511.668-2.683-1.14 1.265-1.988 2.166-2.543 2.7-.554.536-1.011.804-1.37.804-.173 0-.387-.149-.645-.446-.258-.297-.487-.681-.686-1.154a3.836 3.836 0 0 1-.19-.572zm9.852-1.402v.395c.07-.184.145-.383.228-.595-.08.068-.155.134-.228.2zm-2.86-3.481c-2.03.93-3.478 1.719-4.34 2.367-.864.649-1.296 1.316-1.296 2.004 0 .25.043.455.13.615.085.16.202.24.35.24.087 0 .239-.054.458-.164a9.21 9.21 0 0 0 2.25-1.892c.68-.778 1.496-1.834 2.449-3.17zm24.29 3.047c.702-.274 1.304-.614 1.804-1.02s.869-.795 1.107-1.166c.239-.37.358-.642.358-.814 0-.18-.082-.27-.246-.27-.141 0-.37.09-.686.27-.316.18-.637.414-.96.703a5.15 5.15 0 0 0-.874 1.02c-.258.39-.426.816-.504 1.277z"/></g></g></svg>