<svg xmlns="http://www.w3.org/2000/svg" xmlns:xlink="http://www.w3.org/1999/xlink" width="409" height="374"><defs><linearGradient id="c" x1="50%" x2="50%" y1="30.049%" y2="96.69%"><stop offset="0%" stop-color="#FCFCFC"/><stop offset="100%" stop-color="#F0F0F0"/></linearGradient><rect id="b" width="118" height="140" y="210" rx="4"/><filter id="a" width="120.3%" height="117.1%" x="-10.2%" y="-6.4%" filterUnits="objectBoundingBox"><feOffset dy="3" in="SourceAlpha" result="shadowOffsetOuter1"/><feGaussianBlur in="shadowOffsetOuter1" result="shadowBlurOuter1" stdDeviation="3.5"/><feComposite in="shadowBlurOuter1" in2="SourceAlpha" operator="out" result="shadowBlurOuter1"/><feColorMatrix in="shadowBlurOuter1" values="0 0 0 0 0 0 0 0 0 0 0 0 0 0 0 0 0 0 0.14 0"/></filter><linearGradient id="f" x1="50%" x2="50%" y1="0%" y2="100%"><stop offset="30.049%" stop-color="#FCFCFC"/><stop offset="96.69%" stop-color="#F0F0F0"/></linearGradient><rect id="e" width="118" height="235" x="134" y="115" rx="4"/><filter id="d" width="120.3%" height="110.2%" x="-10.2%" y="-3.8%" filterUnits="objectBoundingBox"><feOffset dy="3" in="SourceAlpha" result="shadowOffsetOuter1"/><feGaussianBlur in="shadowOffsetOuter1" result="shadowBlurOuter1" stdDeviation="3.5"/><feComposite in="shadowBlurOuter1" in2="SourceAlpha" operator="out" result="shadowBlurOuter1"/><feColorMatrix in="shadowBlurOuter1" values="0 0 0 0 0 0 0 0 0 0 0 0 0 0 0 0 0 0 0.14 0"/></filter><rect id="h" width="118" height="309" x="268" y="41" rx="4"/><filter id="g" width="145.8%" height="117.5%" x="-22.9%" y="-6.8%" filterUnits="objectBoundingBox"><feOffset dy="6" in="SourceAlpha" result="shadowOffsetOuter1"/><feGaussianBlur in="shadowOffsetOuter1" result="shadowBlurOuter1" stdDeviation="8"/><feComposite in="shadowBlurOuter1" in2="SourceAlpha" operator="out" result="shadowBlurOuter1"/><feColorMatrix in="shadowBlurOuter1" values="0 0 0 0 0 0 0 0 0 0 0 0 0 0 0 0 0 0 0.1 0"/></filter><rect id="j" width="12" height="12" x="53" y="204" rx="6"/><filter id="i" width="300%" height="300%" x="-100%" y="-75%" filterUnits="objectBoundingBox"><feOffset dy="3" in="SourceAlpha" result="shadowOffsetOuter1"/><feGaussianBlur in="shadowOffsetOuter1" result="shadowBlurOuter1" stdDeviation="3.5"/><feComposite in="shadowBlurOuter1" in2="SourceAlpha" operator="out" result="shadowBlurOuter1"/><feColorMatrix in="shadowBlurOuter1" values="0 0 0 0 0 0 0 0 0 0 0 0 0 0 0 0 0 0 0.14 0"/></filter><rect id="l" width="12" height="12" x="321" y="35" rx="6"/><filter id="k" width="300%" height="300%" x="-100%" y="-75%" filterUnits="objectBoundingBox"><feOffset dy="3" in="SourceAlpha" result="shadowOffsetOuter1"/><feGaussianBlur in="shadowOffsetOuter1" result="shadowBlurOuter1" stdDeviation="3.5"/><feComposite in="shadowBlurOuter1" in2="SourceAlpha" operator="out" result="shadowBlurOuter1"/><feColorMatrix in="shadowBlurOuter1" values="0 0 0 0 0 0 0 0 0 0 0 0 0 0 0 0 0 0 0.14 0"/></filter><rect id="n" width="12" height="12" x="187" y="109" rx="6"/><filter id="m" width="300%" height="300%" x="-100%" y="-75%" filterUnits="objectBoundingBox"><feOffset dy="3" in="SourceAlpha" result="shadowOffsetOuter1"/><feGaussianBlur in="shadowOffsetOuter1" result="shadowBlurOuter1" stdDeviation="3.5"/><feComposite in="shadowBlurOuter1" in2="SourceAlpha" operator="out" result="shadowBlurOuter1"/><feColorMatrix in="shadowBlurOuter1" values="0 0 0 0 0 0 0 0 0 0 0 0 0 0 0 0 0 0 0.14 0"/></filter><linearGradient id="o" x1="8.633%" x2="39.728%" y1="76.407%" y2="0%"><stop offset="0%" stop-color="#3BC6CB"/><stop offset="100%" stop-color="#FFF"/></linearGradient><linearGradient id="p" x1="8.633%" x2="39.728%" y1="76.407%" y2="0%"><stop offset="0%" stop-color="#2EBDC2"/><stop offset="100%" stop-color="#FFF"/></linearGradient></defs><g fill="none" fill-rule="evenodd"><path fill="#FFF" fill-rule="nonzero" d="M188.49 96.923l7.625.31 6.448-4.081-3.329 15.723zm134-73l7.625.31 6.448-4.081-3.329 15.723z"/><g fill-rule="nonzero" transform="translate(7 2)"><use fill="#000" filter="url(#a)" xlink:href="#b"/><rect width="117" height="139" x=".5" y="210.5" fill="url(#c)" fill-rule="evenodd" stroke="#F2F2F2" stroke-linejoin="square" rx="4"/></g><g fill-rule="nonzero" transform="translate(7 2)"><use fill="#000" filter="url(#d)" xlink:href="#e"/><rect width="117" height="234" x="134.5" y="115.5" fill="url(#f)" fill-rule="evenodd" stroke="#F2F2F2" stroke-linejoin="square" rx="4"/></g><text fill="#999" font-family="HelveticaNeue-Bold, Helvetica Neue" font-size="24" font-weight="bold" transform="translate(7 2)"><tspan x="167.656" y="177">90%</tspan></text><text fill="#999" font-family="HelveticaNeue-Bold, Helvetica Neue" font-size="24" font-weight="bold" transform="translate(7 2)"><tspan x="33.656" y="249">80%</tspan></text><g fill-rule="nonzero" transform="translate(7 2)"><use fill="#000" filter="url(#g)" xlink:href="#h"/><rect width="117" height="308" x="268.5" y="41.5" fill="url(#f)" fill-rule="evenodd" stroke="#F2F2F2" stroke-linejoin="square" rx="4"/></g><text fill="#0EA7AE" font-family="HelveticaNeue-Bold, Helvetica Neue" font-size="24" font-weight="bold" transform="translate(7 2)"><tspan x="295.484" y="80">100%</tspan></text><g fill-rule="nonzero" transform="translate(7 2)"><use fill="#000" filter="url(#i)" xlink:href="#j"/><rect width="10" height="10" x="54" y="205" fill="#35BBC2" fill-rule="evenodd" stroke="#FFF" stroke-linejoin="square" stroke-width="2" rx="5"/></g><g fill-rule="nonzero" transform="translate(7 2)"><use fill="#000" filter="url(#k)" xlink:href="#l"/><rect width="10" height="10" x="322" y="36" fill="#35BBC2" fill-rule="evenodd" stroke="#FFF" stroke-linejoin="square" stroke-width="2" rx="5"/></g><g fill-rule="nonzero" transform="translate(7 2)"><use fill="#000" filter="url(#m)" xlink:href="#n"/><rect width="10" height="10" x="188" y="110" fill="#35BBC2" fill-rule="evenodd" stroke="#FFF" stroke-linejoin="square" stroke-width="2" rx="5"/></g><path stroke="url(#o)" stroke-width="3" d="M324.744 26.14C320.022 7.687 308.852-.996 291.234.09c-34.553 2-66.63 31.748-96.234 89.24" transform="translate(7 2)"/><path stroke="url(#p)" stroke-width="3" d="M190.308 100.677C185.49 79.577 174.893 69.35 158.517 70 123.964 72 90.792 115.333 59 200" transform="translate(7 2)"/></g></svg>