<svg xmlns="http://www.w3.org/2000/svg" width="401" height="377"><g fill="none" fill-rule="evenodd" transform="translate(7 4)"><g transform="translate(117 104)"><rect width="132.866" height="132.866" x="2.291" y="2.291" fill="#FFF" fill-rule="nonzero" stroke="#F2F2F2" stroke-width="4.582" rx="66.433"/><path fill="#999" d="M68.724 40.519c-2.908 0-5.593.727-8.054 2.18a16.415 16.415 0 0 0-5.872 5.873c-1.454 2.461-2.181 5.145-2.181 8.054 0 2.908.727 5.593 2.181 8.053a16.415 16.415 0 0 0 5.872 5.873c2.461 1.454 5.146 2.18 8.054 2.18 2.908 0 5.593-.726 8.054-2.18a16.415 16.415 0 0 0 5.872-5.873c1.454-2.46 2.181-5.145 2.181-8.053 0-2.909-.727-5.593-2.181-8.054a16.415 16.415 0 0 0-5.872-5.872c-2.461-1.454-5.146-2.181-8.054-2.181zM93.78 87.05v-3.132c0-1.938-.597-3.71-1.79-5.313-1.193-1.603-2.76-2.703-4.698-3.3l-7.83-2.236c-3.28 2.162-6.86 3.243-10.738 3.243-3.878 0-7.457-1.08-10.738-3.243l-7.83 2.237c-1.939.596-3.505 1.696-4.698 3.3-1.193 1.603-1.79 3.374-1.79 5.312v3.132c0 .97.355 1.809 1.063 2.517.708.709 1.547 1.063 2.517 1.063H90.2c.97 0 1.809-.354 2.517-1.063.708-.708 1.063-1.547 1.063-2.517z"/></g><circle cx="186" cy="173" r="155" stroke="#F2F2F2" stroke-width="3"/><circle cx="186" cy="173" r="113" stroke="#FFF" stroke-opacity=".3" stroke-width="9"/><g transform="translate(0 66)"><rect width="71.667" height="71.667" x="2.291" y="2.291" fill="#FFF" fill-rule="nonzero" stroke="#F2F2F2" stroke-width="4.582" rx="35.833"/><path fill="#999" d="M38.124 22.477a8.624 8.624 0 0 0-4.467 1.21 9.106 9.106 0 0 0-3.258 3.258 8.624 8.624 0 0 0-1.21 4.468c0 1.613.403 3.102 1.21 4.468a9.106 9.106 0 0 0 3.258 3.257 8.624 8.624 0 0 0 4.467 1.21 8.624 8.624 0 0 0 4.468-1.21 9.106 9.106 0 0 0 3.258-3.257 8.624 8.624 0 0 0 1.21-4.468 8.624 8.624 0 0 0-1.21-4.468 9.106 9.106 0 0 0-3.258-3.258 8.624 8.624 0 0 0-4.468-1.21zm13.9 25.813v-1.737c0-1.075-.331-2.058-.993-2.947a4.996 4.996 0 0 0-2.606-1.83l-4.344-1.242c-1.82 1.2-3.806 1.8-5.957 1.8-2.15 0-4.136-.6-5.957-1.8l-4.343 1.241a4.996 4.996 0 0 0-2.606 1.83c-.662.89-.993 1.873-.993 2.948v1.738c0 .538.196 1.003.59 1.396.392.393.858.59 1.395.59h23.828c.538 0 1.003-.197 1.396-.59.393-.393.59-.858.59-1.396z"/></g><g transform="translate(217)"><rect width="71.667" height="71.667" x="2.291" y="2.291" fill="#FFF" fill-rule="nonzero" stroke="#F2F2F2" stroke-width="4.582" rx="35.833"/><path fill="#999" d="M38.124 22.477a8.624 8.624 0 0 0-4.467 1.21 9.106 9.106 0 0 0-3.258 3.258 8.624 8.624 0 0 0-1.21 4.468c0 1.613.403 3.102 1.21 4.468a9.106 9.106 0 0 0 3.258 3.257 8.624 8.624 0 0 0 4.467 1.21 8.624 8.624 0 0 0 4.468-1.21 9.106 9.106 0 0 0 3.258-3.257 8.624 8.624 0 0 0 1.21-4.468 8.624 8.624 0 0 0-1.21-4.468 9.106 9.106 0 0 0-3.258-3.258 8.624 8.624 0 0 0-4.468-1.21zm13.9 25.813v-1.737c0-1.075-.331-2.058-.993-2.947a4.996 4.996 0 0 0-2.606-1.83l-4.344-1.242c-1.82 1.2-3.806 1.8-5.957 1.8-2.15 0-4.136-.6-5.957-1.8l-4.343 1.241a4.996 4.996 0 0 0-2.606 1.83c-.662.89-.993 1.873-.993 2.948v1.738c0 .538.196 1.003.59 1.396.392.393.858.59 1.395.59h23.828c.538 0 1.003-.197 1.396-.59.393-.393.59-.858.59-1.396z"/></g><g transform="translate(32 220)"><rect width="39.562" height="39.562" x="2.291" y="2.291" fill="#FFF" fill-rule="nonzero" stroke="#F2F2F2" stroke-width="4.582" rx="19.781"/><path fill="#999" d="M22.072 13.013c-.934 0-1.796.234-2.587.7A5.272 5.272 0 0 0 17.6 15.6a4.99 4.99 0 0 0-.7 2.586c0 .934.233 1.797.7 2.587a5.272 5.272 0 0 0 1.886 1.886c.79.467 1.653.7 2.587.7.934 0 1.796-.233 2.587-.7a5.272 5.272 0 0 0 1.886-1.886c.467-.79.7-1.653.7-2.587a4.99 4.99 0 0 0-.7-2.586 5.272 5.272 0 0 0-1.886-1.886 4.993 4.993 0 0 0-2.587-.7zm8.047 14.945v-1.006a2.79 2.79 0 0 0-.575-1.706 2.893 2.893 0 0 0-1.509-1.06l-2.514-.719a6.142 6.142 0 0 1-3.449 1.042 6.142 6.142 0 0 1-3.449-1.042l-2.514.719a2.893 2.893 0 0 0-1.51 1.06 2.793 2.793 0 0 0-.574 1.706v1.006c0 .311.114.58.341.808.228.228.497.341.808.341H28.97c.312 0 .581-.113.809-.34a1.11 1.11 0 0 0 .341-.81z"/></g><g transform="translate(282 251)"><rect width="39.562" height="39.562" x="2.291" y="2.291" fill="#FFF" fill-rule="nonzero" stroke="#F2F2F2" stroke-width="4.582" rx="19.781"/><path fill="#999" d="M22.072 13.013c-.934 0-1.796.234-2.587.7A5.272 5.272 0 0 0 17.6 15.6a4.99 4.99 0 0 0-.7 2.586c0 .934.233 1.797.7 2.587a5.272 5.272 0 0 0 1.886 1.886c.79.467 1.653.7 2.587.7.934 0 1.796-.233 2.587-.7a5.272 5.272 0 0 0 1.886-1.886c.467-.79.7-1.653.7-2.587a4.99 4.99 0 0 0-.7-2.586 5.272 5.272 0 0 0-1.886-1.886 4.993 4.993 0 0 0-2.587-.7zm8.047 14.945v-1.006a2.79 2.79 0 0 0-.575-1.706 2.893 2.893 0 0 0-1.509-1.06l-2.514-.719a6.142 6.142 0 0 1-3.449 1.042 6.142 6.142 0 0 1-3.449-1.042l-2.514.719a2.893 2.893 0 0 0-1.51 1.06 2.793 2.793 0 0 0-.574 1.706v1.006c0 .311.114.58.341.808.228.228.497.341.808.341H28.97c.312 0 .581-.113.809-.34a1.11 1.11 0 0 0 .341-.81z"/></g><g transform="translate(106 16)"><rect width="39.562" height="39.562" x="2.291" y="2.291" fill="#FFF" fill-rule="nonzero" stroke="#F2F2F2" stroke-width="4.582" rx="19.781"/><path fill="#999" d="M22.072 13.013c-.934 0-1.796.234-2.587.7A5.272 5.272 0 0 0 17.6 15.6a4.99 4.99 0 0 0-.7 2.586c0 .934.233 1.797.7 2.587a5.272 5.272 0 0 0 1.886 1.886c.79.467 1.653.7 2.587.7.934 0 1.796-.233 2.587-.7a5.272 5.272 0 0 0 1.886-1.886c.467-.79.7-1.653.7-2.587a4.99 4.99 0 0 0-.7-2.586 5.272 5.272 0 0 0-1.886-1.886 4.993 4.993 0 0 0-2.587-.7zm8.047 14.945v-1.006a2.79 2.79 0 0 0-.575-1.706 2.893 2.893 0 0 0-1.509-1.06l-2.514-.719a6.142 6.142 0 0 1-3.449 1.042 6.142 6.142 0 0 1-3.449-1.042l-2.514.719a2.893 2.893 0 0 0-1.51 1.06 2.793 2.793 0 0 0-.574 1.706v1.006c0 .311.114.58.341.808.228.228.497.341.808.341H28.97c.312 0 .581-.113.809-.34a1.11 1.11 0 0 0 .341-.81z"/></g><g transform="translate(141 286)"><rect width="71.667" height="71.667" x="2.291" y="2.291" fill="#FFF" fill-rule="nonzero" stroke="#F2F2F2" stroke-width="4.582" rx="35.833"/><path fill="#999" d="M38.124 22.477a8.624 8.624 0 0 0-4.467 1.21 9.106 9.106 0 0 0-3.258 3.258 8.624 8.624 0 0 0-1.21 4.468c0 1.613.403 3.102 1.21 4.468a9.106 9.106 0 0 0 3.258 3.257 8.624 8.624 0 0 0 4.467 1.21 8.624 8.624 0 0 0 4.468-1.21 9.106 9.106 0 0 0 3.258-3.257 8.624 8.624 0 0 0 1.21-4.468 8.624 8.624 0 0 0-1.21-4.468 9.106 9.106 0 0 0-3.258-3.258 8.624 8.624 0 0 0-4.468-1.21zm13.9 25.813v-1.737c0-1.075-.331-2.058-.993-2.947a4.996 4.996 0 0 0-2.606-1.83l-4.344-1.242c-1.82 1.2-3.806 1.8-5.957 1.8-2.15 0-4.136-.6-5.957-1.8l-4.343 1.241a4.996 4.996 0 0 0-2.606 1.83c-.662.89-.993 1.873-.993 2.948v1.738c0 .538.196 1.003.59 1.396.392.393.858.59 1.395.59h23.828c.538 0 1.003-.197 1.396-.59.393-.393.59-.858.59-1.396z"/></g><g transform="translate(299 94)"><rect width="82.703" height="82.703" x="2.291" y="2.291" fill="#FFF" fill-rule="nonzero" stroke="#F2F2F2" stroke-width="4.582" rx="41.351"/><path fill="#999" d="M43.642 25.73a9.873 9.873 0 0 0-5.114 1.386 10.424 10.424 0 0 0-3.73 3.73 9.873 9.873 0 0 0-1.384 5.113c0 1.847.461 3.552 1.385 5.115a10.424 10.424 0 0 0 3.729 3.729 9.873 9.873 0 0 0 5.114 1.385 9.873 9.873 0 0 0 5.115-1.385 10.424 10.424 0 0 0 3.729-3.73 9.873 9.873 0 0 0 1.385-5.114 9.873 9.873 0 0 0-1.385-5.114 10.424 10.424 0 0 0-3.73-3.73 9.873 9.873 0 0 0-5.114-1.384zm15.912 29.55v-1.989c0-1.23-.38-2.356-1.137-3.374a5.72 5.72 0 0 0-2.983-2.095l-4.973-1.42c-2.083 1.372-4.356 2.06-6.819 2.06-2.462 0-4.735-.688-6.819-2.06l-4.972 1.42a5.72 5.72 0 0 0-2.983 2.095c-.758 1.018-1.137 2.143-1.137 3.374v1.99c0 .615.225 1.148.675 1.597.45.45.982.675 1.598.675H57.28c.616 0 1.149-.225 1.599-.675.45-.45.675-.982.675-1.598z"/></g></g></svg>