<svg xmlns="http://www.w3.org/2000/svg" xmlns:xlink="http://www.w3.org/1999/xlink" width="418" height="353"><defs><path id="a" d="M19.256 44.682c6.195-15.587 21.416-26.606 39.21-26.606h5.762c23.294 0 42.177 18.883 42.177 42.177v6.151c0 23.294-18.883 42.177-42.177 42.177h-5.762a42.76 42.76 0 0 1-3.325-.129l5.24-55.318-41.125-8.452z"/><path id="c" d="M64.105 59.016l32.643 65.064H31.462z"/><rect id="d" width="23.316" height="9.295" x="52.447" y="96.196" rx="4.647"/><rect id="e" width="23.316" height="9.295" x="52.447" y="59.016" rx="4.647"/><rect id="f" width="32.643" height="6.971" x="47.783" y="72.959" rx="3.486"/><linearGradient id="g" x1="50%" x2="50%" y1="100%" y2="50%"><stop offset="0%" stop-color="#FFF" stop-opacity=".07"/><stop offset="100%" stop-color="#0EA7AE" stop-opacity=".07"/></linearGradient></defs><g fill="none" fill-rule="evenodd"><g transform="translate(16 139)"><rect width="384.642" height="60.277" x=".605" y=".605" fill="#FFF" fill-rule="nonzero" stroke="#F2F2F2" stroke-width="1.21" rx="6.048"/><rect width="94.346" height="12.297" x="58.059" y="24.595" fill="#383737" fill-opacity=".2" fill-rule="nonzero" rx="6.048"/><rect width="72.574" height="12.297" x="290.296" y="24.595" fill="#383737" fill-opacity=".12" fill-rule="nonzero" rx="6.048"/><text fill="#999" font-family="HelveticaNeue, Helvetica Neue" font-size="14.515" letter-spacing="-.408"><tspan x="278.2" y="36.277">$</tspan></text><rect width="26.61" height="27.054" x="18.143" y="17.216" fill="#0EA7AE" fill-opacity=".19" fill-rule="nonzero" rx="13.305"/><text fill="#0EA7AE" font-family="FontAwesome" font-size="13.305" letter-spacing="-.374"><tspan x="26.61" y="35.703"></tspan></text></g><g transform="translate(16 210)"><rect width="384.642" height="60.277" x=".605" y=".605" fill="#FFF" fill-rule="nonzero" stroke="#F2F2F2" stroke-width="1.21" rx="6.048"/><rect width="94.346" height="12.297" x="58.059" y="24.595" fill="#383737" fill-opacity=".2" fill-rule="nonzero" rx="6.048"/><rect width="72.574" height="12.297" x="290.296" y="24.595" fill="#383737" fill-opacity=".12" fill-rule="nonzero" rx="6.048"/><text fill="#999" font-family="HelveticaNeue, Helvetica Neue" font-size="14.515" letter-spacing="-.408"><tspan x="278.2" y="36.277">$</tspan></text><rect width="26.61" height="27.054" x="18.143" y="17.216" fill="#0EA7AE" fill-opacity=".19" fill-rule="nonzero" rx="13.305"/><text fill="#0EA7AE" font-family="FontAwesome" font-size="13.305" letter-spacing="-.374"><tspan x="26.61" y="35.703"></tspan></text></g><g transform="translate(16 281)"><rect width="384.642" height="60.277" x=".605" y=".605" fill="#FFF" fill-rule="nonzero" stroke="#F2F2F2" stroke-width="1.21" rx="6.048"/><rect width="94.346" height="12.297" x="58.059" y="24.595" fill="#383737" fill-opacity=".2" fill-rule="nonzero" rx="6.048"/><rect width="72.574" height="12.297" x="290.296" y="24.595" fill="#383737" fill-opacity=".12" fill-rule="nonzero" rx="6.048"/><text fill="#999" font-family="HelveticaNeue, Helvetica Neue" font-size="14.515" letter-spacing="-.408"><tspan x="278.2" y="36.277">$</tspan></text><rect width="26.61" height="27.054" x="18.143" y="17.216" fill="#0EA7AE" fill-opacity=".19" fill-rule="nonzero" rx="13.305"/><text fill="#0EA7AE" font-family="FontAwesome" font-size="13.305" letter-spacing="-.374"><tspan x="26.61" y="35.703"></tspan></text></g><g transform="translate(282 10)"><rect width="119" height="119" x=".5" y=".5" fill="#FFF" fill-rule="nonzero" stroke="#F2F2F2" rx="5"/><g transform="translate(-3 -7)"><rect width="69.88" height="69.595" x="29.165" y="33.514" stroke="#F2F2F2" stroke-width="14.059" rx="34.797"/><mask id="b" fill="#fff"><use xlink:href="#a"/></mask><rect width="69.903" height="69.634" x="29.153" y="33.494" stroke="#35BBC2" stroke-width="9.373" mask="url(#b)" rx="34.817"/><rect width="75.761" height="75.492" x="26.224" y="30.565" stroke="#0EA7AE" stroke-width="3.515" mask="url(#b)" rx="37.746"/><use fill="#FFF" fill-rule="nonzero" xlink:href="#c"/><use fill="#D0D0D0" fill-rule="nonzero" xlink:href="#d"/><use fill="#999" fill-rule="nonzero" xlink:href="#e"/><use fill="#D0D0D0" fill-rule="nonzero" xlink:href="#f"/></g></g><g fill-rule="nonzero" transform="translate(16 10)"><rect width="255" height="119" x=".5" y=".5" fill="#FFF" stroke="#F2F2F2" rx="5"/><path fill="url(#g)" d="M29 85.924C42.91 73.721 56.531 70.08 69.865 75c20 7.38 25-17.298 40-21.399 15-4.101 24.32 14.899 40 12.399s18.5-22.772 40-22.772 32.5-18.228 40-24.228c-.103.082-.057 27.249.136 81.5H29V85.924z"/><path stroke="#0EA7AE" d="M29 85.924C42.91 73.721 56.531 70.08 69.865 75c20 7.38 25-17.298 40-21.399 15-4.101 24.32 14.899 40 12.399s18.5-22.772 40-22.772 32.5-18.228 40-24.228"/><path stroke="#D0D0D0" stroke-linecap="square" d="M236.5 100.5H19.467"/><rect width="56" height="7" x="20" y="20" fill="#D0D0D0" rx="3.5"/></g></g></svg>