<svg xmlns="http://www.w3.org/2000/svg" width="409" height="459"><g fill="none" fill-rule="evenodd"><g transform="translate(7 125)"><rect width="233.1" height="323.1" x=".45" y=".45" fill="#FFF" fill-rule="nonzero" stroke="#F2F2F2" stroke-width=".9" rx="4.5"/><path stroke="#0EA7AE" stroke-linecap="square" stroke-width=".9" d="M0 288.45h234" opacity=".2"/><path stroke="#0EA7AE" stroke-width=".9" d="M0 54.45h234"/><path fill="#35BBC2" fill-rule="nonzero" d="M4.5 0h225a4.5 4.5 0 0 1 4.5 4.5V54H0V4.5A4.5 4.5 0 0 1 4.5 0z" opacity=".1"/><rect width="178.2" height="9" x="29.7" y="108.9" fill="#383737" fill-opacity=".12" fill-rule="nonzero" rx="4.5"/><rect width="71.1" height="5.4" x="23.4" y="303.3" fill="#383737" fill-opacity=".18" fill-rule="nonzero" rx="2.7"/><rect width="57.6" height="5.4" x="154.8" y="303.3" fill="#383737" fill-opacity=".18" fill-rule="nonzero" rx="2.7"/><rect width="190.8" height="9" x="21.6" y="162.9" fill="#383737" fill-opacity=".12" fill-rule="nonzero" rx="4.5"/><rect width="190.8" height="9" x="21.6" y="144.9" fill="#383737" fill-opacity=".12" fill-rule="nonzero" rx="4.5"/><rect width="190.8" height="9" x="21.6" y="126.9" fill="#383737" fill-opacity=".12" fill-rule="nonzero" rx="4.5"/><rect width="97.2" height="9" x="21.6" y="180.9" fill="#383737" fill-opacity=".12" fill-rule="nonzero" rx="4.5"/><rect width="54.9" height="9" x="21.6" y="222.3" fill="#383737" fill-opacity=".12" fill-rule="nonzero" rx="4.5"/><rect width="77.4" height="9" x="21.6" y="238.5" fill="#383737" fill-opacity=".25" fill-rule="nonzero" rx="4.5"/><path fill="#0EA7AE" d="M30.954 39.375c.15 0 .225-.075.225-.225 0-.15-.075-.225-.225-.225-.553 0-1.029-.2-1.427-.598a1.948 1.948 0 0 1-.598-1.427c0-.15-.075-.225-.225-.225-.15 0-.225.075-.225.225 0 .684.242 1.268.725 1.75a2.385 2.385 0 0 0 1.75.725zm-9.14-4.275h18.281c-2.494-2.813-3.74-6.712-3.74-11.7 0-.478-.113-.97-.338-1.477a5.373 5.373 0 0 0-.97-1.448c-.422-.46-.992-.837-1.709-1.132-.717-.295-1.512-.443-2.384-.443-.872 0-1.666.148-2.383.443-.717.295-1.287.673-1.709 1.132a5.38 5.38 0 0 0-.97 1.448 3.624 3.624 0 0 0-.338 1.477c0 4.988-1.246 8.887-3.74 11.7zm20.84 0c0 .488-.178.91-.534 1.266a1.73 1.73 0 0 1-1.266.534h-6.3c0 .994-.351 1.842-1.054 2.545a3.468 3.468 0 0 1-2.546 1.055 3.468 3.468 0 0 1-2.545-1.055 3.468 3.468 0 0 1-1.055-2.545h-6.3a1.73 1.73 0 0 1-1.265-.534 1.73 1.73 0 0 1-.535-1.266c.47-.394.896-.806 1.28-1.237.384-.432.783-.992 1.195-1.681.413-.689.762-1.432 1.048-2.229.286-.797.52-1.762.703-2.897.183-1.134.274-2.353.274-3.656 0-1.425.549-2.75 1.646-3.973 1.097-1.223 2.536-1.966 4.317-2.229a1.4 1.4 0 0 1-.113-.548c0-.375.132-.694.394-.956.263-.263.581-.394.956-.394s.694.131.957.394c.262.262.393.581.393.956a1.4 1.4 0 0 1-.112.548c1.781.263 3.22 1.006 4.317 2.23 1.097 1.223 1.645 2.547 1.645 3.972 0 1.303.092 2.522.275 3.656.182 1.135.417 2.1.703 2.897.286.797.635 1.54 1.047 2.229.413.69.811 1.25 1.196 1.68.384.432.81.844 1.28 1.238z"/><rect width="113.4" height="9" x="62.1" y="81" fill="#35BBC2" fill-rule="nonzero" rx="4.5"/><rect width="113.4" height="7.2" x="54" y="16.2" fill="#35BBC2" fill-rule="nonzero" opacity=".301" rx="3.6"/><rect width="70.2" height="7.2" x="54" y="30.6" fill="#35BBC2" fill-rule="nonzero" opacity=".301" rx="3.6"/></g><g transform="translate(133 10)"><rect width="259" height="359" x=".5" y=".5" fill="#FFF" fill-rule="nonzero" stroke="#F2F2F2" rx="5"/><path stroke="#0EA7AE" stroke-linecap="square" d="M0 320.5h260" opacity=".2"/><path stroke="#0EA7AE" d="M0 60.5h260"/><path fill="#35BBC2" fill-rule="nonzero" d="M5 0h250a5 5 0 0 1 5 5v55H0V5a5 5 0 0 1 5-5z" opacity=".1"/><rect width="126" height="8" x="60" y="18" fill="#35BBC2" fill-rule="nonzero" opacity=".301" rx="4"/><rect width="78" height="8" x="60" y="34" fill="#35BBC2" fill-rule="nonzero" opacity=".301" rx="4"/><rect width="198" height="10" x="33" y="121" fill="#383737" fill-opacity=".12" fill-rule="nonzero" rx="5"/><rect width="79" height="6" x="26" y="337" fill="#383737" fill-opacity=".18" fill-rule="nonzero" rx="3"/><rect width="64" height="6" x="172" y="337" fill="#383737" fill-opacity=".18" fill-rule="nonzero" rx="3"/><rect width="212" height="10" x="24" y="181" fill="#383737" fill-opacity=".12" fill-rule="nonzero" rx="5"/><rect width="212" height="10" x="24" y="161" fill="#383737" fill-opacity=".12" fill-rule="nonzero" rx="5"/><rect width="212" height="10" x="24" y="141" fill="#383737" fill-opacity=".12" fill-rule="nonzero" rx="5"/><rect width="108" height="10" x="24" y="201" fill="#383737" fill-opacity=".12" fill-rule="nonzero" rx="5"/><rect width="61" height="10" x="24" y="247" fill="#383737" fill-opacity=".12" fill-rule="nonzero" rx="5"/><rect width="86" height="10" x="24" y="265" fill="#383737" fill-opacity=".25" fill-rule="nonzero" rx="5"/><path fill="#0EA7AE" d="M46.394 39.5v-12a9.156 9.156 0 0 1-1.078 1.031c-2.792 2.146-5.01 3.906-6.657 5.282-.53.447-.963.796-1.296 1.046-.334.25-.784.503-1.352.758-.568.255-1.102.383-1.602.383h-.03c-.5 0-1.035-.128-1.602-.383-.568-.255-1.019-.508-1.352-.758-.333-.25-.766-.599-1.297-1.047-1.646-1.375-3.864-3.135-6.656-5.28a9.156 9.156 0 0 1-1.078-1.032v12c0 .135.05.253.148.352a.48.48 0 0 0 .352.148h23a.48.48 0 0 0 .351-.148.48.48 0 0 0 .149-.352zm0-16.422v-.383c0-.047-.003-.114-.008-.203a.427.427 0 0 0-.047-.195 9.141 9.141 0 0 1-.086-.14.286.286 0 0 0-.14-.118.566.566 0 0 0-.22-.039h-23a.48.48 0 0 0-.35.148.48.48 0 0 0-.15.352c0 1.75.766 3.23 2.298 4.438 2.01 1.583 4.099 3.234 6.265 4.953l.547.46c.302.256.542.451.719.587.177.135.409.299.695.492.287.192.55.336.79.43.239.093.463.14.671.14h.031c.209 0 .433-.047.672-.14.24-.094.503-.238.79-.43.286-.193.518-.357.695-.492.177-.136.416-.331.718-.586.302-.256.485-.41.547-.461 2.167-1.72 4.255-3.37 6.266-4.953.562-.448 1.086-1.05 1.57-1.805.485-.755.727-1.44.727-2.055zm2-.578v17c0 .688-.245 1.276-.735 1.766S46.581 42 45.894 42h-23a2.407 2.407 0 0 1-1.766-.734 2.407 2.407 0 0 1-.734-1.766v-17c0-.688.245-1.276.734-1.766A2.407 2.407 0 0 1 22.894 20h23c.687 0 1.276.245 1.765.734.49.49.735 1.078.735 1.766z"/><rect width="126" height="10" x="69" y="90" fill="#35BBC2" fill-rule="nonzero" rx="5"/></g></g></svg>