<svg xmlns="http://www.w3.org/2000/svg" width="418" height="343"><g fill="none" fill-rule="evenodd"><g transform="translate(26 93)"><rect width="318" height="49" x=".5" y=".5" fill="#FFF" fill-rule="nonzero" stroke="#F2F2F2" rx="5"/><rect width="24" height="24" x="11" y="13" fill="#0EA7AE" fill-opacity=".15" fill-rule="nonzero" rx="3"/><rect width="64" height="6" x="42" y="16" fill="#0EA7AE" fill-rule="nonzero" rx="3"/><rect width="129" height="6" x="110" y="16" fill="#383737" fill-opacity=".12" fill-rule="nonzero" rx="3"/><rect width="151" height="6" x="42" y="28" fill="#383737" fill-opacity=".12" fill-rule="nonzero" rx="3"/><rect width="37" height="6" x="268" y="16" fill="#383737" fill-opacity=".12" fill-rule="nonzero" rx="3"/><rect width="27" height="6" x="278" y="26" fill="#383737" fill-opacity=".12" fill-rule="nonzero" rx="3"/><path fill="#FFF" d="M22.801 28.056l3.04-3.04a.412.412 0 0 0 .128-.302.412.412 0 0 0-.127-.301l-3.04-3.04a.412.412 0 0 0-.302-.127.412.412 0 0 0-.301.127l-.683.683a.412.412 0 0 0-.128.301.41.41 0 0 0 .128.301l2.055 2.056-2.055 2.056a.412.412 0 0 0-.128.301c0 .117.043.217.128.302l.683.683a.412.412 0 0 0 .301.127.412.412 0 0 0 .301-.127zm4.795-5.92c.46.786.69 1.645.69 2.578a5.03 5.03 0 0 1-.69 2.582 5.12 5.12 0 0 1-1.872 1.871 5.03 5.03 0 0 1-2.581.69 5.03 5.03 0 0 1-2.582-.69 5.12 5.12 0 0 1-1.871-1.871 5.03 5.03 0 0 1-.69-2.582c0-.933.23-1.793.69-2.581a5.12 5.12 0 0 1 1.871-1.872 5.03 5.03 0 0 1 2.582-.69c.933 0 1.793.23 2.581.69a5.112 5.112 0 0 1 1.872 1.875z"/></g><g transform="translate(26 223)"><rect width="318" height="49" x=".5" y=".5" fill="#FFF" fill-rule="nonzero" stroke="#F2F2F2" rx="5"/><rect width="24" height="24" x="11" y="13" fill="#0EA7AE" fill-opacity=".15" fill-rule="nonzero" rx="3"/><rect width="64" height="6" x="42" y="16" fill="#0EA7AE" fill-rule="nonzero" rx="3"/><rect width="129" height="6" x="110" y="16" fill="#383737" fill-opacity=".12" fill-rule="nonzero" rx="3"/><rect width="151" height="6" x="42" y="28" fill="#383737" fill-opacity=".12" fill-rule="nonzero" rx="3"/><rect width="37" height="6" x="268" y="16" fill="#383737" fill-opacity=".12" fill-rule="nonzero" rx="3"/><rect width="27" height="6" x="278" y="26" fill="#383737" fill-opacity=".12" fill-rule="nonzero" rx="3"/><path fill="#FFF" d="M22.801 28.056l3.04-3.04a.412.412 0 0 0 .128-.302.412.412 0 0 0-.127-.301l-3.04-3.04a.412.412 0 0 0-.302-.127.412.412 0 0 0-.301.127l-.683.683a.412.412 0 0 0-.128.301.41.41 0 0 0 .128.301l2.055 2.056-2.055 2.056a.412.412 0 0 0-.128.301c0 .117.043.217.128.302l.683.683a.412.412 0 0 0 .301.127.412.412 0 0 0 .301-.127zm4.795-5.92c.46.786.69 1.645.69 2.578a5.03 5.03 0 0 1-.69 2.582 5.12 5.12 0 0 1-1.872 1.871 5.03 5.03 0 0 1-2.581.69 5.03 5.03 0 0 1-2.582-.69 5.12 5.12 0 0 1-1.871-1.871 5.03 5.03 0 0 1-.69-2.582c0-.933.23-1.793.69-2.581a5.12 5.12 0 0 1 1.871-1.872 5.03 5.03 0 0 1 2.582-.69c.933 0 1.793.23 2.581.69a5.112 5.112 0 0 1 1.872 1.875z"/></g><g transform="translate(26 283)"><rect width="318" height="49" x=".5" y=".5" fill="#FFF" fill-rule="nonzero" stroke="#F2F2F2" rx="5"/><rect width="24" height="24" x="11" y="13" fill="#0EA7AE" fill-opacity=".15" fill-rule="nonzero" rx="3"/><rect width="64" height="6" x="42" y="16" fill="#0EA7AE" fill-rule="nonzero" rx="3"/><rect width="129" height="6" x="110" y="16" fill="#383737" fill-opacity=".12" fill-rule="nonzero" rx="3"/><rect width="151" height="6" x="42" y="28" fill="#383737" fill-opacity=".12" fill-rule="nonzero" rx="3"/><rect width="37" height="6" x="268" y="16" fill="#383737" fill-opacity=".12" fill-rule="nonzero" rx="3"/><rect width="27" height="6" x="278" y="26" fill="#383737" fill-opacity=".12" fill-rule="nonzero" rx="3"/><path fill="#FFF" d="M22.801 28.056l3.04-3.04a.412.412 0 0 0 .128-.302.412.412 0 0 0-.127-.301l-3.04-3.04a.412.412 0 0 0-.302-.127.412.412 0 0 0-.301.127l-.683.683a.412.412 0 0 0-.128.301.41.41 0 0 0 .128.301l2.055 2.056-2.055 2.056a.412.412 0 0 0-.128.301c0 .117.043.217.128.302l.683.683a.412.412 0 0 0 .301.127.412.412 0 0 0 .301-.127zm4.795-5.92c.46.786.69 1.645.69 2.578a5.03 5.03 0 0 1-.69 2.582 5.12 5.12 0 0 1-1.872 1.871 5.03 5.03 0 0 1-2.581.69 5.03 5.03 0 0 1-2.582-.69 5.12 5.12 0 0 1-1.871-1.871 5.03 5.03 0 0 1-.69-2.582c0-.933.23-1.793.69-2.581a5.12 5.12 0 0 1 1.871-1.872 5.03 5.03 0 0 1 2.582-.69c.933 0 1.793.23 2.581.69a5.112 5.112 0 0 1 1.872 1.875z"/></g><g transform="translate(26 153)"><rect width="318" height="59" x=".5" y=".5" fill="#FFF" fill-rule="nonzero" stroke="#F2F2F2" rx="5"/><rect width="24" height="24" x="11" y="13" fill="#0EA7AE" fill-opacity=".15" fill-rule="nonzero" rx="3"/><rect width="64" height="6" x="42" y="16" fill="#0EA7AE" fill-rule="nonzero" rx="3"/><rect width="90" height="6" x="110" y="16" fill="#383737" fill-opacity=".12" fill-rule="nonzero" rx="3"/><rect width="37" height="6" x="268" y="16" fill="#383737" fill-opacity=".12" fill-rule="nonzero" rx="3"/><rect width="27" height="6" x="278" y="26" fill="#383737" fill-opacity=".12" fill-rule="nonzero" rx="3"/><path fill="#FFF" d="M22.801 28.056l3.04-3.04a.412.412 0 0 0 .128-.302.412.412 0 0 0-.127-.301l-3.04-3.04a.412.412 0 0 0-.302-.127.412.412 0 0 0-.301.127l-.683.683a.412.412 0 0 0-.128.301.41.41 0 0 0 .128.301l2.055 2.056-2.055 2.056a.412.412 0 0 0-.128.301c0 .117.043.217.128.302l.683.683a.412.412 0 0 0 .301.127.412.412 0 0 0 .301-.127zm4.795-5.92c.46.786.69 1.645.69 2.578a5.03 5.03 0 0 1-.69 2.582 5.12 5.12 0 0 1-1.872 1.871 5.03 5.03 0 0 1-2.581.69 5.03 5.03 0 0 1-2.582-.69 5.12 5.12 0 0 1-1.871-1.871 5.03 5.03 0 0 1-.69-2.582c0-.933.23-1.793.69-2.581a5.12 5.12 0 0 1 1.871-1.872 5.03 5.03 0 0 1 2.582-.69c.933 0 1.793.23 2.581.69a5.112 5.112 0 0 1 1.872 1.875z"/><rect width="138" height="22" x="42" y="27" fill="#F8F8F8" fill-rule="nonzero" rx="3"/><rect width="97" height="6" x="63" y="35" fill="#0EA7AE" fill-opacity=".26" fill-rule="nonzero" rx="3"/><path fill="#999" d="M56.83 34.259c.125.125.232.295.322.509.09.214.134.41.134.59v7.713a.62.62 0 0 1-.188.456.62.62 0 0 1-.455.187h-9a.62.62 0 0 1-.456-.187.62.62 0 0 1-.187-.456V32.357a.62.62 0 0 1 .188-.455.62.62 0 0 1 .455-.188h6c.178 0 .375.045.59.134.213.09.383.197.508.322l2.09 2.089zm-2.973-1.634v2.518h2.518a.731.731 0 0 0-.147-.275l-2.096-2.096a.731.731 0 0 0-.275-.147zm2.572 10.232V36h-2.786a.62.62 0 0 1-.456-.188.62.62 0 0 1-.187-.455v-2.786h-5.143v10.286h8.572zm-6.858-5.786c0-.062.02-.113.06-.154a.21.21 0 0 1 .155-.06H54.5c.063 0 .114.02.154.06.04.04.06.092.06.154v.429c0 .063-.02.114-.06.154a.209.209 0 0 1-.154.06h-4.714a.209.209 0 0 1-.154-.06.209.209 0 0 1-.06-.154v-.429zm4.929 1.5c.063 0 .114.02.154.06.04.04.06.092.06.155v.428c0 .063-.02.114-.06.154a.209.209 0 0 1-.154.06h-4.714a.209.209 0 0 1-.154-.06.209.209 0 0 1-.06-.154v-.428c0-.063.02-.114.06-.154.04-.04.091-.06.154-.06H54.5zm0 1.715c.063 0 .114.02.154.06.04.04.06.091.06.154v.429c0 .062-.02.113-.06.154a.209.209 0 0 1-.154.06h-4.714a.209.209 0 0 1-.154-.06.209.209 0 0 1-.06-.154V40.5c0-.063.02-.114.06-.154.04-.04.091-.06.154-.06H54.5z"/></g><g transform="translate(16 10)"><rect width="384.79" height="71.392" x=".605" y=".605" fill="#FFF" fill-rule="nonzero" stroke="#F2F2F2" stroke-width="1.21" rx="6.05"/><rect width="29.041" height="29.041" x="13.31" y="15.73" fill="#0EA7AE" fill-opacity=".15" fill-rule="nonzero" rx="3.63"/><rect width="77.442" height="7.26" x="50.821" y="19.361" fill="#0EA7AE" fill-rule="nonzero" rx="3.63"/><rect width="108.903" height="7.26" x="133.103" y="19.361" fill="#383737" fill-opacity=".12" fill-rule="nonzero" rx="3.63"/><rect width="44.771" height="7.26" x="324.288" y="19.361" fill="#383737" fill-opacity=".12" fill-rule="nonzero" rx="3.63"/><rect width="32.671" height="7.26" x="336.389" y="31.461" fill="#383737" fill-opacity=".12" fill-rule="nonzero" rx="3.63"/><path fill="#FFF" d="M27.59 33.948l3.679-3.678a.498.498 0 0 0 .154-.365.498.498 0 0 0-.154-.365l-3.679-3.678a.498.498 0 0 0-.364-.154.498.498 0 0 0-.365.154l-.826.826a.498.498 0 0 0-.154.365c0 .14.05.262.154.364l2.487 2.488-2.487 2.488a.498.498 0 0 0-.154.364c0 .14.05.262.154.365l.826.826a.498.498 0 0 0 .365.154c.14 0 .262-.051.364-.154zm5.802-7.163c.556.951.835 1.991.835 3.12 0 1.13-.279 2.17-.835 3.124a6.195 6.195 0 0 1-2.265 2.264 6.088 6.088 0 0 1-3.123.835 6.088 6.088 0 0 1-3.124-.835 6.195 6.195 0 0 1-2.265-2.264 6.088 6.088 0 0 1-.834-3.124c0-1.129.278-2.17.834-3.124a6.195 6.195 0 0 1 2.265-2.264 6.088 6.088 0 0 1 3.124-.835c1.129 0 2.17.278 3.123.835a6.186 6.186 0 0 1 2.265 2.268z"/><rect width="166.984" height="26.621" x="50.821" y="32.671" fill="#F8F8F8" fill-rule="nonzero" rx="3.63"/><rect width="117.373" height="7.26" x="76.232" y="42.351" fill="#0EA7AE" fill-opacity=".26" fill-rule="nonzero" rx="3.63"/><path fill="#999" d="M68.767 41.454c.15.152.28.357.388.616.108.26.163.497.163.713v9.335a.75.75 0 0 1-.227.55.75.75 0 0 1-.551.228H57.65a.75.75 0 0 1-.552-.227.75.75 0 0 1-.227-.551V39.153c0-.216.076-.4.227-.55a.75.75 0 0 1 .551-.228h7.26c.217 0 .454.054.714.162.259.108.464.238.615.39l2.529 2.527zm-3.598-1.977v3.047h3.047a.885.885 0 0 0-.179-.332l-2.536-2.536a.885.885 0 0 0-.332-.179zm3.111 12.381v-8.297h-3.37a.75.75 0 0 1-.551-.227.75.75 0 0 1-.227-.55v-3.372h-6.223v12.446H68.28zm-8.297-7c0-.076.024-.138.073-.187a.252.252 0 0 1 .186-.073h5.705c.075 0 .137.025.186.073a.252.252 0 0 1 .073.187v.518a.252.252 0 0 1-.073.187.252.252 0 0 1-.186.072h-5.705a.252.252 0 0 1-.186-.072.252.252 0 0 1-.073-.187v-.518zm5.964 1.815a.249.249 0 0 1 .259.259v.519a.252.252 0 0 1-.073.186.252.252 0 0 1-.186.073h-5.705a.252.252 0 0 1-.186-.073.252.252 0 0 1-.073-.186v-.52c0-.075.024-.137.073-.185a.252.252 0 0 1 .186-.073h5.705zm0 2.074a.25.25 0 0 1 .259.259v.519a.252.252 0 0 1-.073.186.252.252 0 0 1-.186.073h-5.705a.252.252 0 0 1-.186-.073.252.252 0 0 1-.073-.186v-.519c0-.075.024-.137.073-.186a.252.252 0 0 1 .186-.073h5.705z"/></g></g></svg>