<svg xmlns="http://www.w3.org/2000/svg" xmlns:xlink="http://www.w3.org/1999/xlink" width="603" height="339"><defs><linearGradient id="a" x1="50%" x2="50%" y1="0%" y2="100%"><stop offset="0%" stop-color="#4FD5D8"/><stop offset="100%" stop-color="#0EA7AE"/></linearGradient><filter id="b" width="100%" height="100%" x="0%" y="0%" filterUnits="objectBoundingBox"><feGaussianBlur in="SourceGraphic"/></filter><filter id="c" width="100%" height="100%" x="0%" y="0%" filterUnits="objectBoundingBox"><feGaussianBlur in="SourceGraphic"/></filter><rect id="f" width="515" height="54" rx="3"/><filter id="d" width="102.3%" height="122.2%" x="-1.2%" y="-7.4%" filterUnits="objectBoundingBox"><feGaussianBlur in="SourceGraphic"/></filter><filter id="e" width="103.9%" height="137%" x="-1.9%" y="-14.8%" filterUnits="objectBoundingBox"><feOffset dy="2" in="SourceAlpha" result="shadowOffsetOuter1"/><feGaussianBlur in="shadowOffsetOuter1" result="shadowBlurOuter1" stdDeviation="3"/><feComposite in="shadowBlurOuter1" in2="SourceAlpha" operator="out" result="shadowBlurOuter1"/><feColorMatrix in="shadowBlurOuter1" values="0 0 0 0 0 0 0 0 0 0 0 0 0 0 0 0 0 0 0.1 0"/></filter><rect id="i" width="515" height="54" rx="3"/><filter id="g" width="102.3%" height="122.2%" x="-1.2%" y="-7.4%" filterUnits="objectBoundingBox"><feGaussianBlur in="SourceGraphic"/></filter><filter id="h" width="103.9%" height="137%" x="-1.9%" y="-14.8%" filterUnits="objectBoundingBox"><feOffset dy="2" in="SourceAlpha" result="shadowOffsetOuter1"/><feGaussianBlur in="shadowOffsetOuter1" result="shadowBlurOuter1" stdDeviation="3"/><feComposite in="shadowBlurOuter1" in2="SourceAlpha" operator="out" result="shadowBlurOuter1"/><feColorMatrix in="shadowBlurOuter1" values="0 0 0 0 0 0 0 0 0 0 0 0 0 0 0 0 0 0 0.1 0"/></filter><rect id="k" width="545.9" height="57.24" rx="3.18"/><filter id="j" width="110.6%" height="201.3%" x="-5.3%" y="-28%" filterUnits="objectBoundingBox"><feOffset dy="13" in="SourceAlpha" result="shadowOffsetOuter1"/><feGaussianBlur in="shadowOffsetOuter1" result="shadowBlurOuter1" stdDeviation="7.5"/><feComposite in="shadowBlurOuter1" in2="SourceAlpha" operator="out" result="shadowBlurOuter1"/><feColorMatrix in="shadowBlurOuter1" values="0 0 0 0 0 0 0 0 0 0 0 0 0 0 0 0 0 0 0.12 0"/></filter><filter id="l" width="221.7%" height="213.3%" x="-60.9%" y="-56%" filterUnits="objectBoundingBox"><feOffset dy="2" in="SourceAlpha" result="shadowOffsetOuter1"/><feGaussianBlur in="shadowOffsetOuter1" result="shadowBlurOuter1" stdDeviation="1.5"/><feColorMatrix in="shadowBlurOuter1" result="shadowMatrixOuter1" values="0 0 0 0 0 0 0 0 0 0 0 0 0 0 0 0 0 0 0.3 0"/><feMerge><feMergeNode in="shadowMatrixOuter1"/><feMergeNode in="SourceGraphic"/></feMerge></filter></defs><g fill="none" fill-rule="evenodd"><rect width="460" height="339" fill="#FFF" fill-rule="nonzero" rx="6"/><rect width="292" height="338" x="311" fill="url(#a)" fill-rule="nonzero" rx="6"/><g fill-rule="nonzero" filter="url(#b)" transform="translate(47 50)"><rect width="514" height="53" x=".5" y=".5" fill="#FFF" stroke="#F2F2F2" filter="url(#c)" rx="3"/><rect width="90" height="12" x="202.5" y="20" fill="#F2F2F2" rx="6"/><rect width="45" height="12" x="316" y="20" fill="#F2F2F2" rx="6"/><rect width="45" height="12" x="391.5" y="20" fill="#F2F2F2" rx="6"/><rect width="22" height="12" x="467" y="20" fill="#F2F2F2" rx="6"/><rect width="111" height="12" x="53" y="20" fill="#0EA7AE" fill-opacity=".28" rx="6"/><text fill="#0EA7AE" font-family="FontAwesome" font-size="23"><tspan x="15" y="34"></tspan></text></g><g transform="translate(47 174)"><g fill-rule="nonzero" filter="url(#d)"><use fill="#000" filter="url(#e)" xlink:href="#f"/><rect width="514" height="53" x=".5" y=".5" fill="#FFF" fill-rule="evenodd" stroke="#F2F2F2" stroke-linejoin="square" rx="3"/></g><rect width="52" height="12" x="202.5" y="20" fill="#F2F2F2" fill-rule="nonzero" rx="6"/><rect width="45" height="12" x="316" y="20" fill="#F2F2F2" fill-rule="nonzero" rx="6"/><rect width="45" height="12" x="391.5" y="20" fill="#F2F2F2" fill-rule="nonzero" rx="6"/><rect width="22" height="12" x="467" y="20" fill="#F2F2F2" fill-rule="nonzero" rx="6"/><rect width="86" height="12" x="53" y="20" fill="#0EA7AE" fill-opacity=".28" fill-rule="nonzero" rx="6"/><text fill="#0EA7AE" font-family="FontAwesome" font-size="23"><tspan x="15" y="34"></tspan></text></g><g transform="translate(47 236)"><g fill-rule="nonzero" filter="url(#g)"><use fill="#000" filter="url(#h)" xlink:href="#i"/><rect width="514" height="53" x=".5" y=".5" fill="#FFF" fill-rule="evenodd" stroke="#F2F2F2" stroke-linejoin="square" rx="3"/></g><rect width="83" height="12" x="202.5" y="20" fill="#F2F2F2" fill-rule="nonzero" rx="6"/><rect width="45" height="12" x="316" y="20" fill="#F2F2F2" fill-rule="nonzero" rx="6"/><rect width="45" height="12" x="391.5" y="20" fill="#F2F2F2" fill-rule="nonzero" rx="6"/><rect width="22" height="12" x="467" y="20" fill="#F2F2F2" fill-rule="nonzero" rx="6"/><rect width="74" height="12" x="53" y="20" fill="#0EA7AE" fill-opacity=".28" fill-rule="nonzero" rx="6"/><text fill="#0EA7AE" font-family="FontAwesome" font-size="23"><tspan x="15" y="34"></tspan></text></g><g transform="translate(31 111)"><g fill-rule="nonzero"><use fill="#000" filter="url(#j)" xlink:href="#k"/><rect width="544.84" height="56.18" x=".53" y=".53" fill="#FFF" fill-rule="evenodd" stroke="#F2F2F2" stroke-linejoin="square" stroke-width="1.06" rx="3.18"/></g><rect width="67.98" height="12.72" x="214.65" y="21.2" fill="#F2F2F2" fill-rule="nonzero" rx="6.36"/><rect width="47.7" height="12.72" x="334.96" y="21.2" fill="#F2F2F2" fill-rule="nonzero" rx="6.36"/><rect width="47.7" height="12.72" x="414.99" y="21.2" fill="#F2F2F2" fill-rule="nonzero" rx="6.36"/><rect width="23.32" height="12.72" x="495.02" y="21.2" fill="#F2F2F2" fill-rule="nonzero" rx="6.36"/><rect width="126.14" height="12.72" x="56.18" y="21.2" fill="#0EA7AE" fill-opacity=".28" fill-rule="nonzero" rx="6.36"/><text fill="#0EA7AE" font-family="FontAwesome" font-size="24.38"><tspan x="15.9" y="35.84"></tspan></text></g><g filter="url(#l)" transform="translate(522 157)"><path fill="#FFF" d="M6.429 1.607c-.355 0-.658.126-.91.377a1.239 1.239 0 0 0-.376.909v9l-1.517-2.03a1.291 1.291 0 0 0-1.075-.542c-.348 0-.646.128-.894.382a1.252 1.252 0 0 0-.371.904c0 .288.087.546.26.774l3.858 5.142c.254.342.596.513 1.025.513h7.212c.147 0 .28-.045.396-.136a.603.603 0 0 0 .226-.346l.925-3.697c.16-.643.24-1.292.24-1.949v-2.18a1.01 1.01 0 0 0-.28-.712.9.9 0 0 0-.684-.302.93.93 0 0 0-.683.282.93.93 0 0 0-.281.683h-.321v-.613c0-.322-.108-.594-.322-.819a1.065 1.065 0 0 0-.803-.336c-.308 0-.573.11-.794.331a1.083 1.083 0 0 0-.331.794v.643h-.322v-.904a1.34 1.34 0 0 0-.372-.95 1.203 1.203 0 0 0-.914-.396c-.354 0-.657.125-.909.376a1.239 1.239 0 0 0-.376.91v.964h-.322V2.953a1.34 1.34 0 0 0-.371-.95 1.203 1.203 0 0 0-.914-.396z"/><path fill="#000" d="M6.429 1.607c-.355 0-.658.126-.91.377a1.239 1.239 0 0 0-.376.909v9l-1.517-2.03a1.291 1.291 0 0 0-1.075-.542c-.348 0-.646.128-.894.382a1.252 1.252 0 0 0-.371.904c0 .288.087.546.26.774l3.858 5.142c.254.342.596.513 1.025.513h7.212c.147 0 .28-.045.396-.136a.603.603 0 0 0 .226-.346l.925-3.697c.16-.643.24-1.292.24-1.949v-2.18a1.01 1.01 0 0 0-.28-.712.9.9 0 0 0-.684-.302.93.93 0 0 0-.683.282.93.93 0 0 0-.281.683h-.321v-.613c0-.322-.108-.594-.322-.819a1.065 1.065 0 0 0-.803-.336c-.308 0-.573.11-.794.331a1.083 1.083 0 0 0-.331.794v.643h-.322v-.904a1.34 1.34 0 0 0-.372-.95 1.203 1.203 0 0 0-.914-.396c-.354 0-.657.125-.909.376a1.239 1.239 0 0 0-.376.91v.964h-.322V2.953a1.34 1.34 0 0 0-.371-.95 1.203 1.203 0 0 0-.914-.396zm0-1.286c.716 0 1.324.26 1.823.779C8.75 1.619 9 2.237 9 2.953v2.21a4.16 4.16 0 0 1 .321-.02c.663 0 1.243.23 1.738.693.315-.14.646-.211.995-.211.756 0 1.372.291 1.848.874.18-.047.368-.07.562-.07.63 0 1.162.226 1.597.678.436.452.653.992.653 1.622v2.18c0 .776-.093 1.53-.281 2.26l-.924 3.696a1.87 1.87 0 0 1-.683 1.05 1.878 1.878 0 0 1-1.185.406H6.429a2.52 2.52 0 0 1-1.15-.276 2.607 2.607 0 0 1-.91-.748L.512 12.154A2.512 2.512 0 0 1 0 10.607C0 9.904.25 9.3.748 8.794a2.441 2.441 0 0 1 1.803-.758c.476 0 .911.117 1.306.351V2.893c0-.71.251-1.316.753-1.818A2.477 2.477 0 0 1 6.43.32zm.964 14.143v-3.857h.321v3.857h-.321zm2.571 0v-3.857h.322v3.857h-.322zm2.572 0v-3.857h.321v3.857h-.321z"/></g></g></svg>