<svg xmlns="http://www.w3.org/2000/svg" width="399" height="338"><g fill="none" fill-rule="evenodd"><g transform="translate(205 32)"><rect width="186.48" height="258.48" x=".36" y=".36" fill="#FFF" fill-rule="nonzero" stroke="#F2F2F2" stroke-width=".72" rx="3.6"/><path stroke="#0EA7AE" stroke-linecap="square" stroke-width=".72" d="M0 230.76h187.2" opacity=".2"/><path stroke="#0EA7AE" stroke-width=".72" d="M0 43.56h187.2"/><path fill="#35BBC2" fill-rule="nonzero" d="M3.6 0h180a3.6 3.6 0 0 1 3.6 3.6v39.6H0V3.6A3.6 3.6 0 0 1 3.6 0z" opacity=".1"/><rect width="90.72" height="5.76" x="43.2" y="12.96" fill="#35BBC2" fill-rule="nonzero" opacity=".301" rx="2.88"/><rect width="56.16" height="5.76" x="43.2" y="24.48" fill="#35BBC2" fill-rule="nonzero" opacity=".301" rx="2.88"/><rect width="142.56" height="7.2" x="23.76" y="87.12" fill="#383737" fill-opacity=".12" fill-rule="nonzero" rx="3.6"/><rect width="56.88" height="4.32" x="18.72" y="242.64" fill="#383737" fill-opacity=".18" fill-rule="nonzero" rx="2.16"/><rect width="46.08" height="4.32" x="123.84" y="242.64" fill="#383737" fill-opacity=".18" fill-rule="nonzero" rx="2.16"/><rect width="152.64" height="7.2" x="17.28" y="130.32" fill="#383737" fill-opacity=".12" fill-rule="nonzero" rx="3.6"/><rect width="152.64" height="7.2" x="17.28" y="115.92" fill="#383737" fill-opacity=".12" fill-rule="nonzero" rx="3.6"/><rect width="152.64" height="7.2" x="17.28" y="101.52" fill="#383737" fill-opacity=".12" fill-rule="nonzero" rx="3.6"/><rect width="77.76" height="7.2" x="17.28" y="144.72" fill="#383737" fill-opacity=".12" fill-rule="nonzero" rx="3.6"/><rect width="43.92" height="7.2" x="17.28" y="177.84" fill="#383737" fill-opacity=".12" fill-rule="nonzero" rx="3.6"/><rect width="61.92" height="7.2" x="17.28" y="190.8" fill="#383737" fill-opacity=".25" fill-rule="nonzero" rx="3.6"/><path fill="#0EA7AE" d="M33.403 28.44V19.8c-.24.27-.498.517-.776.742-2.01 1.546-3.607 2.813-4.792 3.803a22.88 22.88 0 0 1-.934.754c-.24.18-.564.362-.973.545-.409.184-.793.276-1.153.276h-.023c-.36 0-.744-.092-1.153-.276a5.197 5.197 0 0 1-.973-.545 22.88 22.88 0 0 1-.934-.754c-1.185-.99-2.782-2.257-4.792-3.803a6.592 6.592 0 0 1-.777-.742v8.64c0 .097.036.182.107.253a.346.346 0 0 0 .253.107h16.56a.346.346 0 0 0 .254-.107.346.346 0 0 0 .106-.253zm0-11.824v-.275c0-.034-.001-.083-.005-.147a.308.308 0 0 0-.034-.14 6.582 6.582 0 0 1-.062-.102.206.206 0 0 0-.101-.084.407.407 0 0 0-.158-.028h-16.56a.346.346 0 0 0-.253.107.346.346 0 0 0-.107.253c0 1.26.552 2.325 1.654 3.195 1.448 1.14 2.951 2.329 4.511 3.566l.394.332c.218.184.39.324.518.422.127.097.294.216.5.354.207.14.396.242.568.31.173.067.334.101.484.101h.023c.15 0 .311-.034.483-.101.173-.068.362-.17.569-.31.206-.138.373-.257.5-.354.128-.098.3-.238.518-.422l.393-.332a1656.06 1656.06 0 0 1 4.512-3.566c.405-.323.782-.756 1.13-1.3.35-.543.523-1.036.523-1.479zm1.44-.416v12.24c0 .495-.176.919-.528 1.271a1.733 1.733 0 0 1-1.272.529h-16.56c-.495 0-.918-.176-1.27-.529a1.733 1.733 0 0 1-.53-1.271V16.2c0-.495.177-.919.53-1.271a1.733 1.733 0 0 1 1.27-.529h16.56c.495 0 .92.176 1.272.529.352.352.528.776.528 1.271z"/><rect width="90.72" height="7.2" x="49.68" y="64.8" fill="#35BBC2" fill-rule="nonzero" rx="3.6"/></g><g transform="translate(148 32)"><rect width="186.48" height="258.48" x=".36" y=".36" fill="#FFF" fill-rule="nonzero" stroke="#F2F2F2" stroke-width=".72" rx="3.6"/><rect width="186.48" height="258.48" x=".36" y=".36" fill="#FFF" fill-rule="nonzero" stroke="#F2F2F2" stroke-width=".72" rx="3.6"/><path stroke="#383737" stroke-linecap="square" stroke-width=".72" d="M0 36.36h187.2" opacity=".153"/><rect width="50.4" height="8.64" x="19.44" y="18.72" fill="#383737" fill-opacity=".12" fill-rule="nonzero" rx="4.32"/><rect width="126.72" height="5.76" x="30.24" y="57.6" fill="#383737" fill-opacity=".12" fill-rule="nonzero" rx="2.88"/><rect width="60.48" height="5.76" x="18.72" y="103.68" fill="#383737" fill-opacity=".12" fill-rule="nonzero" rx="2.88"/><rect width="144.72" height="5.76" x="18.72" y="169.92" fill="#383737" fill-opacity=".12" fill-rule="nonzero" rx="2.88"/><rect width="78.48" height="5.76" x="18.72" y="158.4" fill="#383737" fill-opacity=".12" fill-rule="nonzero" rx="2.88"/><rect width="131.04" height="5.76" x="18.72" y="126" fill="#383737" fill-opacity=".12" fill-rule="nonzero" rx="2.88"/><rect width="121.68" height="5.76" x="18.72" y="181.44" fill="#383737" fill-opacity=".12" fill-rule="nonzero" rx="2.88"/><g transform="translate(18.72 136.08)"><rect width="56.16" height="5.76" x="92.16" y="2.16" fill="#383737" fill-opacity=".12" fill-rule="nonzero" rx="2.88"/><rect width="56.16" height="5.76" x="11.52" y="2.16" fill="#383737" fill-opacity=".12" fill-rule="nonzero" rx="2.88"/><path fill="#0EA7AE" d="M7.92 5.231V7.02c0 .446-.158.828-.475 1.145A1.56 1.56 0 0 1 6.3 8.64H1.62a1.56 1.56 0 0 1-1.145-.475A1.56 1.56 0 0 1 0 7.02V2.34c0-.446.158-.828.475-1.145A1.56 1.56 0 0 1 1.62.72H6.3c.236 0 .456.047.658.14a.17.17 0 0 1 .101.13.175.175 0 0 1-.05.163l-.276.276a.178.178 0 0 1-.13.056.179.179 0 0 1-.05-.011A1 1 0 0 0 6.3 1.44H1.62a.867.867 0 0 0-.636.264.867.867 0 0 0-.264.636v4.68c0 .248.088.46.264.636a.867.867 0 0 0 .636.264H6.3c.248 0 .46-.088.636-.264A.867.867 0 0 0 7.2 7.02V5.591c0-.049.017-.09.05-.124l.36-.36a.178.178 0 0 1 .13-.056.15.15 0 0 1 .067.017c.075.03.113.084.113.163zm1.3-2.75L4.64 7.059a.438.438 0 0 1-.32.135A.438.438 0 0 1 4 7.06L1.58 4.641a.438.438 0 0 1-.134-.321c0-.124.045-.23.135-.32l.618-.62a.438.438 0 0 1 .321-.134c.124 0 .23.045.32.135L4.32 4.86l3.64-3.64a.438.438 0 0 1 .32-.134c.124 0 .23.045.32.135l.62.618c.09.09.134.197.134.321s-.045.23-.135.32z"/><path fill="#999" d="M86.94 1.44h-4.68a.867.867 0 0 0-.636.264.867.867 0 0 0-.264.636v4.68c0 .248.088.46.264.636a.867.867 0 0 0 .636.264h4.68c.247 0 .46-.088.636-.264a.867.867 0 0 0 .264-.636V2.34a.867.867 0 0 0-.264-.636.867.867 0 0 0-.636-.264zm1.62.9v4.68c0 .446-.158.828-.475 1.145a1.56 1.56 0 0 1-1.145.475h-4.68a1.56 1.56 0 0 1-1.145-.475 1.56 1.56 0 0 1-.475-1.145V2.34c0-.446.158-.828.475-1.145A1.56 1.56 0 0 1 82.26.72h4.68c.446 0 .828.158 1.145.475.317.317.475.699.475 1.145z"/></g><rect width="40.32" height="5.76" x="19.44" y="69.12" fill="#383737" fill-opacity=".12" fill-rule="nonzero" rx="2.88"/><rect width="66.24" height="4.32" x="64.08" y="69.84" fill="#383737" fill-opacity=".4" fill-rule="nonzero" rx="2.16"/><rect width="66.24" height="4.32" x="81.36" y="20.88" fill="#383737" fill-opacity=".4" fill-rule="nonzero" rx="2.16"/><rect width="84.24" height="4.32" x="64.08" y="81.36" fill="#383737" fill-opacity=".4" fill-rule="nonzero" rx="2.16"/><rect width="50.47" height="4.32" x="19.44" y="232.56" fill="#383737" fill-opacity=".4" fill-rule="nonzero" rx="2.16"/><rect width="105.12" height="4.32" x="19.44" y="92.16" fill="#383737" fill-opacity=".4" fill-rule="nonzero" rx="2.16"/><rect width="40.32" height="5.76" x="19.44" y="80.64" fill="#383737" fill-opacity=".12" fill-rule="nonzero" rx="2.88"/><rect width="40.32" height="5.76" x="19.44" y="222.48" fill="#383737" fill-opacity=".12" fill-rule="nonzero" rx="2.88"/><path stroke="#122223" stroke-linecap="square" stroke-width=".72" d="M81.72 27.36h85.494M63.72 76.32h103.494M63.72 87.84h103.494M20.376 239.04H82.38" opacity=".298"/><rect width="72" height="27.36" x="97.92" y="213.12" fill="#0EA7AE" fill-opacity=".2" fill-rule="nonzero" rx="1.44"/><path stroke="#122223" stroke-linecap="square" stroke-width=".72" d="M20.602 97.92h146.612" opacity=".298"/><path fill="#0EA7AE" d="M116.868 228.682a2.17 2.17 0 0 0-.633-.7 3.68 3.68 0 0 0-.95-.503 6.136 6.136 0 0 0-1.1-.282 8.93 8.93 0 0 1-3.181-1.106c-.085-.045-.175-.14-.27-.287a.774.774 0 0 1-.144-.422c0-.495.083-.99.25-1.489.165-.498.377-.887.636-1.168.416-.467 1.166-.875 2.249-1.224 1.083-.349 2.302-.523 3.657-.523.81 0 1.436.062 1.878.186.441.123.662.315.662.573 0 .422-.057.749-.173.98-.115.23-.239.383-.371.46a5.811 5.811 0 0 1-.696.307 7.047 7.047 0 0 0-1.595.776c-.185.124-.3.186-.346.186-.056 0-.084-.023-.084-.068 0-.095.1-.24.3-.434.2-.194.445-.364.738-.51.31-.164.464-.268.464-.313 0-.073-.172-.11-.515-.11-1.04 0-2.002.093-2.886.279-.883.186-1.579.43-2.088.734-.509.304-.763.613-.763.928 0 .197.105.336.316.418.21.081.676.218 1.396.409.72.191 1.364.41 1.933.658.815.349 1.42.712 1.814 1.089.393.376.59.798.59 1.265 0 .32-.077.643-.232.966-.154.324-.38.62-.679.89-.298.27-.641.493-1.03.667-.331.14-.749.273-1.252.397-.504.123-1.05.22-1.637.29a14.19 14.19 0 0 1-1.684.106c-.984 0-1.776-.093-2.375-.278-.599-.186-.898-.467-.898-.844 0-.169.101-.432.303-.789.203-.357.442-.598.718-.721.242-.096.475-.15.7-.165.225-.014.337.013.337.08 0 .017-.008.034-.025.05a.225.225 0 0 1-.059.043l-.067.034c-.113.045-.204.08-.275.105a.98.98 0 0 0-.168.076c-.043.026-.064.06-.064.106 0 .118.583.177 1.747.177 1.012 0 1.842-.037 2.489-.11a6.909 6.909 0 0 0 1.713-.396 4.792 4.792 0 0 0 1.35-.793zm5.403-3.991a.613.613 0 0 1-.4-.16.508.508 0 0 1-.19-.406c0-.247.118-.523.354-.827.236-.303.48-.455.734-.455.169 0 .31.052.422.156.112.104.169.254.169.451 0 .242-.116.51-.346.802-.23.292-.478.439-.743.439zm11.994 4.849c-.54.518-.972.91-1.297 1.175-.427.349-.776.523-1.046.523-.461 0-.692-.304-.692-.911 0-.18.028-.357.084-.532a3.57 3.57 0 0 1 .233-.544c.098-.188.248-.458.45-.81.203-.351.437-.75.701-1.194-.32.163-.723.487-1.206.97a9.419 9.419 0 0 0-.802.865c-.22.273-.454.577-.704.912-.25.334-.434.56-.549.675-.115.115-.232.173-.35.173-.18 0-.346-.189-.498-.566a3.1 3.1 0 0 1-.193-.76l-2.206 1.815c-.788 1.361-1.505 2.378-2.152 3.05-.647.672-1.128 1.008-1.443 1.008-.169 0-.253-.104-.253-.312 0-.405.205-.922.616-1.552.163-.248.35-.49.561-.726.211-.236.41-.44.6-.612.188-.171.436-.385.746-.64.31-.257.52-.433.633-.528.562-1.148.967-2.025 1.215-2.633a26.53 26.53 0 0 1-1.384 1.384c-.394.36-.755.637-1.084.831-.33.194-.626.291-.89.291-.287 0-.552-.229-.794-.687a3.274 3.274 0 0 1-.219-.516 7.11 7.11 0 0 1-1.024.98c-.473.357-.875.535-1.207.535-.461 0-.804-.242-1.03-.725a3.715 3.715 0 0 1-.337-1.587 2.85 2.85 0 0 1 .228-1.122c.062-.13.177-.332.346-.607.799-1.243 1.53-1.865 2.194-1.865.343 0 .514.132.514.397 0 .18-.11.46-.333.843-.222.383-.42.656-.595.819-.489.472-.808.801-.957.987a.983.983 0 0 0-.224.633.65.65 0 0 0 .228.506.856.856 0 0 0 .59.203c.265 0 .556-.097.874-.291.171-.105.37-.244.596-.416a1.828 1.828 0 0 1 .15-.897c.104-.247.267-.511.49-.793.221-.28.504-.57.847-.864a9.151 9.151 0 0 1 1.207-.865c.871-.546 1.55-.819 2.033-.819.36 0 .54.132.54.397 0 .365-.39.723-1.173 1.071a7.473 7.473 0 0 0-1.421.827c-.47.343-.85.708-1.14 1.093-.29.385-.434.733-.434 1.042 0 .152.036.273.11.363a.35.35 0 0 0 .286.135c.197 0 .422-.09.675-.27.254-.18.628-.498 1.123-.954.225-.208.524-.544.898-1.008.374-.464.684-.818.928-1.063.245-.245.466-.367.663-.367.112 0 .204.035.274.105.07.07.105.173.105.308 0 .259-.102.635-.308 1.127a60.496 60.496 0 0 1-1.11 2.417l1.413-1.027c.002-.299.037-.533.106-.703.07-.174.21-.422.417-.742.389-.596.723-1.034 1.005-1.312.28-.279.55-.418.81-.418.18 0 .324.031.434.093.11.062.165.157.165.287a.37.37 0 0 1-.051.177 1.042 1.042 0 0 1-.114.169c-.042.05-.13.149-.266.295-.888.984-1.333 1.623-1.333 1.915 0 .164.054.245.16.245.068 0 .199-.108.393-.325.194-.216.444-.5.75-.852.307-.351.67-.719 1.09-1.101.418-.383.895-.751 1.43-1.105.297-.208.545-.313.742-.313.09 0 .178.124.266.372.087.247.13.498.13.75 0 .124-.12.313-.362.566-.99 1.102-1.485 1.87-1.485 2.303 0 .242.098.363.295.363.163 0 .375-.086.637-.257.152-.1.354-.245.607-.435v-.017c0-.264.025-.485.076-.662.05-.177.149-.358.295-.544.146-.186.38-.43.7-.734.855-.776 1.685-1.353 2.49-1.73.804-.377 1.425-.565 1.864-.565.118 0 .228.05.329.148.101.098.181.212.24.341.06.13.089.225.089.287 0 .101-.04.176-.118.224a2.353 2.353 0 0 1-.414.173l.152.346c.062.14.11.254.144.341.034.088.05.165.05.232 0 .135-.136.387-.409.756-.273.368-.464.64-.574.814-.11.174-.164.388-.164.641 0 .416.191.624.574.624.284 0 .685-.192 1.201-.577v-.477c.59-.495 1.305-1.364 2.143-2.608a8.447 8.447 0 0 0-.498-.016c-.331 0-.579.022-.742.067a2.58 2.58 0 0 0-.19.055.47.47 0 0 1-.122.03c-.023 0-.034-.017-.034-.051 0-.186.115-.464.346-.835.186-.315.361-.549.527-.7a1.3 1.3 0 0 1 .608-.309c.239-.053.575-.08 1.008-.08h.363c.298-.534.568-.913.81-1.135.242-.222.517-.333.827-.333.31 0 .464.07.464.21 0 .068-.121.251-.363.55a7.295 7.295 0 0 0-.548.75l.51.06c.15.016.266.03.35.042-.32.596-.723 1.206-1.206 1.83a54.72 54.72 0 0 1-.722-.054l-.4-.03c-.304.49-.559.927-.764 1.312a7.333 7.333 0 0 0-.473 1.059c-.11.32-.164.624-.164.911 0 .388.155.582.464.582.214 0 .494-.113.84-.341.22-.145.486-.34.8-.583a2.68 2.68 0 0 1 .063-.594c.043-.18.123-.379.24-.595.12-.217.275-.452.47-.705.193-.253.43-.54.712-.86l.426-.498a.985.985 0 0 1 .338-.274c.11-.048.288-.072.536-.072.18 0 .351.024.514.072.163.048.245.097.245.147 0 .102-.083.284-.249.549-.166.264-.433.586-.802.966-.368.38-.794.752-1.278 1.118-.107.332-.16.585-.16.76 0 .241.093.362.278.362.068 0 .18-.058.338-.173.157-.115.423-.337.797-.666.374-.33.71-.62 1.008-.874.22-.191.474-.476.764-.856.29-.38.525-.665.705-.857.416-.438.7-.724.852-.856.152-.132.298-.198.438-.198.135 0 .227.042.275.126.048.085.071.256.071.515a1 1 0 0 1-.033.287 1.342 1.342 0 0 1-.14.283c-.07.115-.212.327-.426.637l-.759 1.096a4.351 4.351 0 0 0-.413.739c-.119.267-.178.468-.178.603 0 .292.116.439.346.439.192 0 .414-.079.667-.237.134-.083.307-.203.518-.358v-.376c.304-.36.534-.666.692-.92-.18-.061-.311-.137-.393-.227-.081-.09-.122-.225-.122-.405 0-.203.084-.459.253-.768.169-.31.377-.599.625-.869.247-.27.472-.444.675-.523a.509.509 0 0 1 .227-.06c.113 0 .17.054.17.161 0 .096-.088.29-.262.582 1.158-.18 1.89-.27 2.193-.27.118 0 .2.012.245.034.096.05.174.169.236.354.062.186.093.372.093.557 0 .118-.052.246-.156.384a7.666 7.666 0 0 1-.536.604c-.298.32-.548.669-.75 1.046-.203.377-.304.66-.304.852 0 .264.163.397.489.397.26 0 .663-.2 1.212-.598.037-.482.171-.926.403-1.33.275-.481.725-.989 1.35-1.523a5.213 5.213 0 0 1 1.274-.827c.422-.186.799-.279 1.13-.279.265 0 .474.06.63.182.154.12.231.302.231.544 0 .354-.132.707-.396 1.059-.265.351-.668.7-1.211 1.046-.543.346-1.21.68-2.004 1v.21c0 .333.081.591.245.777a.813.813 0 0 0 .64.279c.276 0 .562-.065.857-.195.296-.129.59-.3.882-.514.292-.214.65-.5 1.072-.86v.514c-.636.765-1.232 1.351-1.79 1.76-.556.407-1.121.61-1.695.61-.5 0-.897-.193-1.19-.581-.228-.304-.368-.694-.418-1.173-.222.224-.418.415-.59.574a6.198 6.198 0 0 1-.843.67c-.259.166-.49.25-.692.25-.236 0-.433-.109-.59-.326-.158-.216-.237-.53-.237-.94 0-.242.062-.518.186-.827a5.74 5.74 0 0 1 .544-1.009c.24-.362.508-.724.806-1.084-.158.034-.335.07-.532.106l-.624.114-.506.092c-.225.45-.516.874-.873 1.27v.528a82.576 82.576 0 0 1-1.46 1.324 6.227 6.227 0 0 1-.818.625c-.23.14-.45.21-.658.21-.473 0-.709-.28-.709-.843 0-.214.07-.502.211-.865a30.5 30.5 0 0 1 .684-1.574c-.816 1.08-1.436 1.848-1.86 2.304-.426.455-.773.683-1.043.683-.214 0-.41-.088-.59-.265a1.748 1.748 0 0 1-.418-.718 2.882 2.882 0 0 1-.086-.328c-1.255 1.28-2.202 1.919-2.841 1.919a.74.74 0 0 1-.612-.296c-.155-.196-.232-.45-.232-.759 0-.208.044-.456.13-.742.046-.15.11-.34.194-.569-1.365 1.499-2.346 2.248-2.943 2.248-.22 0-.375-.072-.468-.215-.093-.144-.14-.356-.14-.638 0-.444.16-1.088.482-1.932-.822.912-1.432 1.56-1.831 1.945-.4.385-.729.578-.988.578-.123 0-.278-.107-.464-.32a3.092 3.092 0 0 1-.493-.832 2.762 2.762 0 0 1-.137-.411zm7.093-1.01v.284l.164-.428a8.818 8.818 0 0 0-.164.144zm-2.058-2.506c-1.463.67-2.505 1.237-3.126 1.704-.622.467-.933.948-.933 1.443 0 .18.031.328.093.443.062.115.146.173.253.173.062 0 .172-.04.33-.118a6.632 6.632 0 0 0 1.62-1.363c.489-.56 1.076-1.32 1.763-2.282zm17.487 2.193c.507-.196.94-.441 1.3-.734.36-.292.625-.572.797-.84.172-.266.257-.462.257-.586 0-.129-.059-.194-.177-.194-.101 0-.266.065-.493.194a4.07 4.07 0 0 0-.692.507 3.726 3.726 0 0 0-.629.734 2.371 2.371 0 0 0-.363.92z"/></g><path fill="#D0D0D0" fill-rule="nonzero" d="M150 19.947l11.419-13.184A8 8 0 0 1 167.466 4H210.8a3.2 3.2 0 0 1 3.2 3.2v12.747h-.8a.8.8 0 0 1 .8.8V306.2a.8.8 0 0 1-.8.8H6.8a.8.8 0 0 1-.8-.8V20.747a.8.8 0 0 1 .8-.8H150z"/><g fill-rule="nonzero" transform="translate(83 27)"><rect width="193.77" height="268.969" x=".376" y=".376" fill="#FFF" stroke="#F2F2F2" stroke-width=".752" rx="3.76"/><rect width="14.963" height="11.988" x="164.596" y="14.985" fill="#D0D0D0" rx="2.256"/><rect width="25.438" height="4.495" x="133.173" y="14.985" fill="#383737" fill-opacity=".19" rx="2.248"/><rect width="35.912" height="4.495" x="122.699" y="22.477" fill="#383737" fill-opacity=".19" rx="2.248"/><rect width="119.706" height="5.994" x="29.927" y="59.938" fill="#383737" fill-opacity=".12" rx="2.997"/><rect width="44.89" height="5.994" x="22.445" y="17.981" fill="#383737" fill-opacity=".28" rx="2.997"/><rect width="119.706" height="5.994" x="29.927" y="119.876" fill="#383737" fill-opacity=".12" rx="2.997"/><rect width="80.053" height="5.994" x="22.445" y="167.826" fill="#383737" fill-opacity=".12" rx="2.997"/><rect width="151.129" height="5.994" x="22.445" y="71.926" fill="#383737" fill-opacity=".12" rx="2.997"/><rect width="151.129" height="5.994" x="22.445" y="131.864" fill="#383737" fill-opacity=".12" rx="2.997"/><rect width="152.625" height="5.994" x="22.445" y="179.814" fill="#383737" fill-opacity=".12" rx="2.997"/><rect width="151.129" height="5.994" x="22.445" y="83.913" fill="#383737" fill-opacity=".12" rx="2.997"/><rect width="151.129" height="5.994" x="22.445" y="143.851" fill="#383737" fill-opacity=".12" rx="2.997"/><rect width="152.625" height="5.994" x="22.445" y="191.802" fill="#383737" fill-opacity=".12" rx="2.997"/><rect width="119.706" height="5.994" x="22.445" y="95.901" fill="#383737" fill-opacity=".12" rx="2.997"/><rect width="50.127" height="5.994" x="22.445" y="203.789" fill="#383737" fill-opacity=".12" rx="2.997"/><rect width="31.423" height="5.994" x="22.445" y="241.25" fill="#383737" fill-opacity=".28" rx="2.997"/><rect width="31.423" height="5.994" x="142.151" y="241.25" fill="#383737" fill-opacity=".28" rx="2.997"/></g><g fill-rule="nonzero"><path fill="#F8F8F8" stroke="#F2F2F2" stroke-width=".8" d="M6.675 20.401c-.157-.013-.275.104-.275.303v286.388c.012.249.212.47.417.486l182.321 15.22c.157.014.275-.103.275-.302V36.108c-.012-.249-.211-.47-.417-.486L6.675 20.402z"/><path fill="#D0D0D0" d="M126.538 256.943l48.357 3.992a1.6 1.6 0 0 1 1.468 1.595v40.789a1.6 1.6 0 0 1-1.731 1.594l-48.358-3.992a1.6 1.6 0 0 1-1.468-1.594v-40.79a1.6 1.6 0 0 1 1.732-1.594z"/></g></g></svg>