<svg width="471" height="279" xmlns="http://www.w3.org/2000/svg" xmlns:xlink="http://www.w3.org/1999/xlink"><defs><rect id="path-1" x=".339" y=".339" width="175.554" height="243.217" rx="3"/><filter x="-16.8%" y="-10.5%" width="133.6%" height="124.3%" filterUnits="objectBoundingBox" id="filter-2"><feMorphology radius=".5" operator="dilate" in="SourceAlpha" result="shadowSpreadOuter1"/><feOffset dy="4" in="shadowSpreadOuter1" result="shadowOffsetOuter1"/><feGaussianBlur stdDeviation="9" in="shadowOffsetOuter1" result="shadowBlurOuter1"/><feComposite in="shadowBlurOuter1" in2="SourceAlpha" operator="out" result="shadowBlurOuter1"/><feColorMatrix values="0 0 0 0 0 0 0 0 0 0 0 0 0 0 0 0 0 0 0.16 0" in="shadowBlurOuter1"/></filter></defs><g id="Pages" stroke="none" stroke-width="1" fill="none" fill-rule="evenodd"><g id="Artboard" transform="translate(-491 -10)"><g id="Transaction-Checklists-" transform="translate(491 23)"><rect id="Rectangle" fill-opacity=".2" fill="#0EA7AE" x="0" y="7" width="454" height="33" rx="3"/><g id="Group-8" transform="translate(0 40)"><rect id="Rectangle-Copy-8" fill="#FFF" x="0" y="0" width="454" height="33" rx="3"/><rect id="Rectangle-Copy-9" fill="#F2F2F2" fill-rule="nonzero" x="246" y="13" width="13" height="8" rx="4"/><path d="M22.859 17.913v4.489c0 .327-.27.598-.596.598h-3.572v-3.59h-2.382V23h-3.572a.601.601 0 0 1-.596-.598v-4.49c0-.018.01-.036.01-.055l5.349-4.433 5.35 4.433a.122.122 0 0 1 .009.056zm2.075-.645l-.577.692a.309.309 0 0 1-.196.103h-.028a.291.291 0 0 1-.195-.066L17.5 12.601l-6.438 5.396a.317.317 0 0 1-.223.066.309.309 0 0 1-.196-.103l-.577-.692a.308.308 0 0 1 .038-.421l6.689-5.602a1.141 1.141 0 0 1 1.414 0l2.27 1.908V11.33c0-.169.13-.3.298-.3h1.786c.168 0 .298.131.298.3v3.815l2.037 1.702c.121.103.14.3.038.42z" id="-copy" fill="#0EA7AE"/><rect id="Rectangle-Copy-10" fill-opacity=".4" fill="#35BBC2" fill-rule="nonzero" x="36" y="13" width="76" height="8" rx="4"/><rect id="Rectangle-Copy-11" fill="#F2F2F2" fill-rule="nonzero" x="136" y="13" width="41" height="8" rx="4"/><rect id="Rectangle-Copy-12" fill="#F2F2F2" fill-rule="nonzero" x="191" y="13" width="28" height="8" rx="4"/></g><rect id="Rectangle-Copy-4" fill="#FFF" fill-rule="nonzero" x="246" y="20" width="13" height="8" rx="4"/><path d="M22.859 24.913v4.489c0 .327-.27.598-.596.598h-3.572v-3.59h-2.382V30h-3.572a.601.601 0 0 1-.596-.598v-4.49c0-.018.01-.036.01-.055l5.349-4.433 5.35 4.433a.122.122 0 0 1 .009.056zm2.075-.645l-.577.692a.309.309 0 0 1-.196.103h-.028a.291.291 0 0 1-.195-.066L17.5 19.601l-6.438 5.396a.317.317 0 0 1-.223.066.309.309 0 0 1-.196-.103l-.577-.692a.308.308 0 0 1 .038-.421l6.689-5.602a1.141 1.141 0 0 1 1.414 0l2.27 1.908V18.33c0-.169.13-.3.298-.3h1.786c.168 0 .298.131.298.3v3.815l2.037 1.702c.121.103.14.3.038.42z" id="" fill="#0EA7AE"/><rect id="Rectangle" fill="#FFF" fill-rule="nonzero" x="36" y="20" width="76" height="8" rx="4"/><rect id="Rectangle-Copy" fill="#FFF" fill-rule="nonzero" x="136" y="20" width="41" height="8" rx="4"/><rect id="Rectangle-Copy-2" fill="#FFF" fill-rule="nonzero" x="191" y="20" width="28" height="8" rx="4"/><g id="Group-7" opacity=".9" transform="translate(0 73)"><rect id="Rectangle-Copy-17" fill="#FFF" x="0" y="0" width="454" height="33" rx="3"/><rect id="Rectangle-Copy-16" fill="#F2F2F2" fill-rule="nonzero" x="246" y="13" width="13" height="8" rx="4"/><path d="M22.859 17.913v4.489c0 .327-.27.598-.596.598h-3.572v-3.59h-2.382V23h-3.572a.601.601 0 0 1-.596-.598v-4.49c0-.018.01-.036.01-.055l5.349-4.433 5.35 4.433a.122.122 0 0 1 .009.056zm2.075-.645l-.577.692a.309.309 0 0 1-.196.103h-.028a.291.291 0 0 1-.195-.066L17.5 12.601l-6.438 5.396a.317.317 0 0 1-.223.066.309.309 0 0 1-.196-.103l-.577-.692a.308.308 0 0 1 .038-.421l6.689-5.602a1.141 1.141 0 0 1 1.414 0l2.27 1.908V11.33c0-.169.13-.3.298-.3h1.786c.168 0 .298.131.298.3v3.815l2.037 1.702c.121.103.14.3.038.42z" id="-copy-2" fill="#0EA7AE"/><rect id="Rectangle-Copy-15" fill-opacity=".4" fill="#35BBC2" fill-rule="nonzero" x="36" y="13" width="76" height="8" rx="4"/><rect id="Rectangle-Copy-14" fill="#F2F2F2" fill-rule="nonzero" x="136" y="13" width="41" height="8" rx="4"/><rect id="Rectangle-Copy-13" fill="#F2F2F2" fill-rule="nonzero" x="191" y="13" width="28" height="8" rx="4"/></g><g id="Group-6" opacity=".8" transform="translate(0 106)"><rect id="Rectangle-Copy-22" fill="#FFF" x="0" y="0" width="454" height="33" rx="3"/><rect id="Rectangle-Copy-21" fill="#F2F2F2" fill-rule="nonzero" x="246" y="13" width="13" height="8" rx="4"/><path d="M22.859 17.913v4.489c0 .327-.27.598-.596.598h-3.572v-3.59h-2.382V23h-3.572a.601.601 0 0 1-.596-.598v-4.49c0-.018.01-.036.01-.055l5.349-4.433 5.35 4.433a.122.122 0 0 1 .009.056zm2.075-.645l-.577.692a.309.309 0 0 1-.196.103h-.028a.291.291 0 0 1-.195-.066L17.5 12.601l-6.438 5.396a.317.317 0 0 1-.223.066.309.309 0 0 1-.196-.103l-.577-.692a.308.308 0 0 1 .038-.421l6.689-5.602a1.141 1.141 0 0 1 1.414 0l2.27 1.908V11.33c0-.169.13-.3.298-.3h1.786c.168 0 .298.131.298.3v3.815l2.037 1.702c.121.103.14.3.038.42z" id="-copy-3" fill="#0EA7AE"/><rect id="Rectangle-Copy-20" fill-opacity=".4" fill="#35BBC2" fill-rule="nonzero" x="36" y="13" width="76" height="8" rx="4"/><rect id="Rectangle-Copy-19" fill="#F2F2F2" fill-rule="nonzero" x="136" y="13" width="41" height="8" rx="4"/><rect id="Rectangle-Copy-18" fill="#F2F2F2" fill-rule="nonzero" x="191" y="13" width="28" height="8" rx="4"/></g><g id="Group-5" opacity=".7" transform="translate(0 139)"><rect id="Rectangle-Copy-27" fill="#FFF" x="0" y="0" width="454" height="33" rx="3"/><rect id="Rectangle-Copy-26" fill="#F2F2F2" fill-rule="nonzero" x="246" y="13" width="13" height="8" rx="4"/><path d="M22.859 17.913v4.489c0 .327-.27.598-.596.598h-3.572v-3.59h-2.382V23h-3.572a.601.601 0 0 1-.596-.598v-4.49c0-.018.01-.036.01-.055l5.349-4.433 5.35 4.433a.122.122 0 0 1 .009.056zm2.075-.645l-.577.692a.309.309 0 0 1-.196.103h-.028a.291.291 0 0 1-.195-.066L17.5 12.601l-6.438 5.396a.317.317 0 0 1-.223.066.309.309 0 0 1-.196-.103l-.577-.692a.308.308 0 0 1 .038-.421l6.689-5.602a1.141 1.141 0 0 1 1.414 0l2.27 1.908V11.33c0-.169.13-.3.298-.3h1.786c.168 0 .298.131.298.3v3.815l2.037 1.702c.121.103.14.3.038.42z" id="-copy-4" fill="#0EA7AE"/><rect id="Rectangle-Copy-25" fill-opacity=".4" fill="#35BBC2" fill-rule="nonzero" x="36" y="13" width="76" height="8" rx="4"/><rect id="Rectangle-Copy-24" fill="#F2F2F2" fill-rule="nonzero" x="136" y="13" width="41" height="8" rx="4"/><rect id="Rectangle-Copy-23" fill="#F2F2F2" fill-rule="nonzero" x="191" y="13" width="28" height="8" rx="4"/></g><g id="Group-4" opacity=".6" transform="translate(0 172)"><rect id="Rectangle-Copy-32" fill="#FFF" x="0" y="0" width="454" height="33" rx="3"/><rect id="Rectangle-Copy-31" fill="#F2F2F2" fill-rule="nonzero" x="246" y="13" width="13" height="8" rx="4"/><path d="M22.859 17.913v4.489c0 .327-.27.598-.596.598h-3.572v-3.59h-2.382V23h-3.572a.601.601 0 0 1-.596-.598v-4.49c0-.018.01-.036.01-.055l5.349-4.433 5.35 4.433a.122.122 0 0 1 .009.056zm2.075-.645l-.577.692a.309.309 0 0 1-.196.103h-.028a.291.291 0 0 1-.195-.066L17.5 12.601l-6.438 5.396a.317.317 0 0 1-.223.066.309.309 0 0 1-.196-.103l-.577-.692a.308.308 0 0 1 .038-.421l6.689-5.602a1.141 1.141 0 0 1 1.414 0l2.27 1.908V11.33c0-.169.13-.3.298-.3h1.786c.168 0 .298.131.298.3v3.815l2.037 1.702c.121.103.14.3.038.42z" id="-copy-5" fill="#0EA7AE"/><rect id="Rectangle-Copy-30" fill-opacity=".4" fill="#35BBC2" fill-rule="nonzero" x="36" y="13" width="76" height="8" rx="4"/><rect id="Rectangle-Copy-29" fill="#F2F2F2" fill-rule="nonzero" x="136" y="13" width="41" height="8" rx="4"/><rect id="Rectangle-Copy-28" fill="#F2F2F2" fill-rule="nonzero" x="191" y="13" width="28" height="8" rx="4"/></g><g id="Group-3" opacity=".5" transform="translate(0 205)"><rect id="Rectangle-Copy-37" fill="#FFF" x="0" y="0" width="454" height="33" rx="3"/><rect id="Rectangle-Copy-36" fill="#F2F2F2" fill-rule="nonzero" x="246" y="13" width="13" height="8" rx="4"/><path d="M22.859 17.913v4.489c0 .327-.27.598-.596.598h-3.572v-3.59h-2.382V23h-3.572a.601.601 0 0 1-.596-.598v-4.49c0-.018.01-.036.01-.055l5.349-4.433 5.35 4.433a.122.122 0 0 1 .009.056zm2.075-.645l-.577.692a.309.309 0 0 1-.196.103h-.028a.291.291 0 0 1-.195-.066L17.5 12.601l-6.438 5.396a.317.317 0 0 1-.223.066.309.309 0 0 1-.196-.103l-.577-.692a.308.308 0 0 1 .038-.421l6.689-5.602a1.141 1.141 0 0 1 1.414 0l2.27 1.908V11.33c0-.169.13-.3.298-.3h1.786c.168 0 .298.131.298.3v3.815l2.037 1.702c.121.103.14.3.038.42z" id="-copy-6" fill="#0EA7AE"/><rect id="Rectangle-Copy-35" fill-opacity=".4" fill="#35BBC2" fill-rule="nonzero" x="36" y="13" width="76" height="8" rx="4"/><rect id="Rectangle-Copy-34" fill="#F2F2F2" fill-rule="nonzero" x="136" y="13" width="41" height="8" rx="4"/><rect id="Rectangle-Copy-33" fill="#F2F2F2" fill-rule="nonzero" x="191" y="13" width="28" height="8" rx="4"/></g><g id="Group" transform="translate(277.576 .503)"><g id="Rectangle"><use fill="#000" filter="url(#filter-2)" xlink:href="#path-1"/><use stroke="#F2F2F2" fill="#FFF" xlink:href="#path-1"/></g><rect id="Rectangle" fill="#0EA7AE" x="126.751" y="18.97" width="30.502" height="8.13" rx="4.065"/><rect id="Rectangle" fill-opacity=".28" fill="#383737" x="21.013" y="18.97" width="55.58" height="8.13" rx="4.065"/><path id="Path" fill="#F2F2F2" d="M42.702 46.746h1.356v136.175h-1.356z"/><path id="Path" fill="#84E0E5" d="M42.702 114.495h1.356v102.3h-1.356z"/><g transform="translate(21.013 46.07)" id="Rectangle"><rect fill-opacity=".28" fill="#383737" y=".677" width="10.845" height="6.775" rx="2.111"/><rect stroke="#F2F2F2" stroke-width="6.337" fill="#0EA7AE" x="19.318" y="1.016" width="6.101" height="6.098" rx="3.049"/><rect fill-opacity=".26" fill="#383737" x="33.89" y="1.355" width="56.259" height="5.419" rx="2.71"/></g><g transform="translate(21.013 67.748)" id="Rectangle"><rect fill-opacity=".28" fill="#383737" y=".677" width="10.845" height="6.775" rx="2.111"/><rect stroke="#F2F2F2" stroke-width="6.337" fill="#0EA7AE" x="19.318" y="1.016" width="6.101" height="6.098" rx="3.049"/><rect fill-opacity=".26" fill="#383737" x="33.89" y="1.355" width="77.948" height="5.419" rx="2.71"/></g><g transform="translate(21.013 89.429)" id="Rectangle"><rect fill-opacity=".28" fill="#383737" y=".677" width="10.845" height="6.775" rx="2.111"/><rect stroke="#F2F2F2" stroke-width="6.337" fill="#0EA7AE" x="19.318" y="1.016" width="6.101" height="6.098" rx="3.049"/><rect fill-opacity=".26" fill="#383737" x="33.89" y="1.355" width="82.694" height="5.419" rx="2.71"/></g><g transform="translate(21.013 111.107)" id="Rectangle"><rect fill-opacity=".12" fill="#383737" y=".677" width="10.845" height="6.775" rx="2.111"/><rect fill="#0EA7AE" x="18.301" width="8.134" height="8.13" rx="4.065"/><rect fill-opacity=".12" fill="#383737" x="33.89" y="1.355" width="64.392" height="5.419" rx="2.71"/></g><g transform="translate(21.013 154.467)" id="Rectangle"><rect fill-opacity=".12" fill="#383737" y=".677" width="10.845" height="6.775" rx="2.111"/><rect fill="#0EA7AE" x="18.301" width="8.134" height="8.13" rx="4.065"/><rect fill-opacity=".12" fill="#383737" x="33.89" y="1.355" width="70.493" height="5.419" rx="2.71"/></g><g transform="translate(21.013 174.32)" id="Rectangle"><rect fill-opacity=".12" fill="#383737" y=".677" width="10.845" height="6.775" rx="2.111"/><rect fill="#0EA7AE" x="18.301" width="8.134" height="8.13" rx="4.065"/><rect fill-opacity=".12" fill="#383737" x="33.89" y="1.355" width="72.526" height="5.419" rx="2.71"/></g><g transform="translate(21.013 193.967)" id="Rectangle"><rect fill-opacity=".12" fill="#383737" y=".677" width="10.845" height="6.775" rx="2.111"/><rect fill="#0EA7AE" x="18.301" width="8.134" height="8.13" rx="4.065"/><rect fill-opacity=".12" fill="#383737" x="33.89" y="1.355" width="81.338" height="5.419" rx="2.71"/></g><g transform="translate(21.013 156.027)" id="Rectangle"><rect fill-opacity=".12" fill="#383737" y="58.263" width="10.845" height="6.775" rx="2.111"/><rect fill="#0EA7AE" x="18.301" y="57.586" width="8.134" height="8.13" rx="4.065"/><rect fill-opacity=".12" fill="#383737" x="33.89" y="58.942" width="73.882" height="5.419" rx="2.71"/><rect fill-opacity=".28" fill="#383737" x="116.584" y="58.942" width="20.334" height="5.419" rx="2.71"/><rect fill-opacity=".28" fill="#383737" x="116.584" width="20.334" height="5.419" rx="2.71"/></g><g transform="translate(21.013 132.787)" id="Rectangle"><rect fill-opacity=".12" fill="#383737" y=".677" width="10.845" height="6.775" rx="2.111"/><rect fill="#0EA7AE" x="18.301" width="8.134" height="8.13" rx="4.065"/><rect fill-opacity=".12" fill="#383737" x="33.89" y="1.355" width="82.694" height="5.419" rx="2.71"/></g><path d="M46.037 157.333a.359.359 0 0 1-.097.245l-2.979 3.092a.33.33 0 0 1-.235.1.33.33 0 0 1-.235-.1l-1.725-1.792a.355.355 0 0 1 0-.488l.47-.49a.327.327 0 0 1 .47.001l1.02 1.06 2.272-2.36a.328.328 0 0 1 .47 0l.472.489a.355.355 0 0 1 .097.244zm0 19.647a.359.359 0 0 1-.097.245l-2.979 3.092a.33.33 0 0 1-.235.1.33.33 0 0 1-.235-.1l-1.725-1.791a.355.355 0 0 1 0-.489l.47-.489a.327.327 0 0 1 .47.001l1.02 1.06 2.272-2.362a.328.328 0 0 1 .47 0l.472.49a.355.355 0 0 1 .097.244zm0 19.854a.359.359 0 0 1-.097.245l-2.979 3.09a.33.33 0 0 1-.235.101.33.33 0 0 1-.235-.1l-1.725-1.792a.355.355 0 0 1 0-.488l.47-.49a.327.327 0 0 1 .47.001l1.02 1.06 2.272-2.36a.328.328 0 0 1 .47 0l.472.488a.355.355 0 0 1 .097.245zm0 19.646a.359.359 0 0 1-.097.245l-2.979 3.092a.33.33 0 0 1-.235.1.33.33 0 0 1-.235-.1l-1.725-1.791a.355.355 0 0 1 0-.489l.47-.489a.327.327 0 0 1 .47.001l1.02 1.06 2.272-2.362a.328.328 0 0 1 .47 0l.472.49a.355.355 0 0 1 .097.244zm0-80.826c0 .09-.035.178-.097.244l-2.979 3.093a.33.33 0 0 1-.235.1.33.33 0 0 1-.235-.101l-1.725-1.79a.355.355 0 0 1 0-.49l.47-.489a.327.327 0 0 1 .47.001l1.02 1.06 2.272-2.361a.328.328 0 0 1 .47 0l.472.489a.355.355 0 0 1 .097.244zm0-21.68c0 .092-.035.18-.097.245l-2.979 3.092a.33.33 0 0 1-.235.1.33.33 0 0 1-.235-.1l-1.725-1.791a.355.355 0 0 1 0-.49l.47-.488a.327.327 0 0 1 .47 0l1.02 1.061 2.272-2.362a.328.328 0 0 1 .47 0l.472.49a.355.355 0 0 1 .097.244z" id="Shape" fill="#FFF" fill-rule="nonzero"/></g></g></g></g></svg>